<?xml version="1.0" encoding="UTF-8"?>
<svg id="Layer_1" data-name="Layer 1" xmlns="http://www.w3.org/2000/svg" viewBox="0 0 43 43">
  <defs>
    <style>
      .cls-1 {
        fill: #b1b1b1;
      }

      .cls-2 {
        fill: #fff;
        stroke: #ccc;
        stroke-miterlimit: 10;
      }
    </style>
  </defs>
  <rect class="cls-2" x="2.46" y="2.52" width="38.09" height="37.96" rx="8" ry="8"/>
  <g>
    <path class="cls-1" d="M36.92,27.31c-.76,1.21-1.93,1.63-3.28,1.6-.95-.02-1.77-.4-2.47-1.04-.78-.71-1.63-.84-2.42-.37-.18,.11-.34,.25-.49,.39-1.55,1.38-3.77,1.38-5.31-.02-.49-.45-1.03-.71-1.72-.63-.48,.06-.85,.32-1.2,.64-1.22,1.12-2.95,1.37-4.42,.61-.4-.21-.76-.52-1.12-.81-.65-.53-1.51-.61-2.21-.18-.19,.11-.35,.27-.52,.41-1.5,1.35-3.81,1.33-5.29-.05-.48-.45-.54-1.05-.14-1.5,.38-.43,.98-.45,1.48-.05,.78,.63,1.55,.73,2.3,.27,.2-.12,.37-.28,.54-.43,1.5-1.33,3.76-1.32,5.25,.03,.81,.74,1.63,.88,2.43,.41,.18-.11,.34-.25,.5-.39,1.54-1.39,3.77-1.4,5.31,0,.61,.56,1.28,.84,2.09,.54,.29-.11,.57-.3,.8-.51,1.59-1.41,3.79-1.44,5.36-.01,.9,.82,1.82,.74,2.42,.37,.14-.08,.26-.19,.38-.29,.63-.51,1.37-.32,1.68,.44,.01,.03,.03,.05,.05,.07v.48Z"/>
    <path class="cls-1" d="M36.92,31.65c-.52,.96-1.4,1.38-2.4,1.56-1.27,.23-2.4-.13-3.36-.99-.96-.86-1.91-.86-2.86,0-1.57,1.42-3.78,1.42-5.36,0-.79-.7-1.6-.84-2.39-.38-.17,.1-.33,.23-.47,.37-1.61,1.44-3.79,1.43-5.4-.01-.76-.69-1.62-.81-2.39-.33-.19,.12-.36,.28-.54,.43-1.53,1.35-3.85,1.3-5.31-.12-.43-.42-.48-1-.11-1.43,.38-.44,.99-.52,1.45-.1,.73,.68,1.68,.72,2.36,.31,.18-.11,.34-.25,.49-.39,1.53-1.38,3.78-1.38,5.31,0,.8,.72,1.61,.86,2.41,.4,.09-.05,.17-.1,.24-.18,1.61-1.68,4.2-1.66,5.82-.02,.51,.52,1.2,.59,1.88,.33,.25-.1,.49-.27,.7-.45,1.68-1.48,3.8-1.49,5.47,0,.83,.74,1.81,.8,2.59,.16,.8-.66,1.39-.54,1.88,.37v.48Z"/>
    <g>
      <path class="cls-1" d="M15.64,20.69v4.35c-2.3-.97-4.29-.56-6.09,1.19,0-.23,0-.33,0-.44,.03-1.62,.05-3.23,.09-4.85,0-.22-.05-.34-.24-.45-1.3-.77-2.59-1.57-3.89-2.34-.5-.29-.71-.68-.69-1.26,.05-1.46,.06-2.91,.09-4.37,.01-.56,.26-.92,.68-1.06,.69-.23,1.35,.25,1.35,1.01,0,.92-.03,1.85-.04,2.77,0,.37-.03,.74-.02,1.11,0,.11,.08,.27,.17,.33,.85,.53,1.71,1.05,2.57,1.56,.11,.07,.26,.09,.4,.09,1.55,.02,3.09,.03,4.64,.03,.51,0,.99,.09,1.46,.3,.77,.34,1.55,.65,2.32,.99,.2,.09,.3,.05,.42-.11,.66-.84,1.32-1.67,1.99-2.5,.28-.34,.64-.49,1.07-.38,.42,.11,.71,.39,.74,.81,.02,.27-.05,.6-.21,.81-.85,1.12-1.73,2.21-2.62,3.3-.37,.45-.79,.53-1.35,.3-.82-.34-1.64-.7-2.46-1.04-.09-.04-.18-.08-.37-.15Z"/>
      <path class="cls-1" d="M15.12,15.14c0,1.3-1.05,2.36-2.35,2.36-1.3,0-2.36-1.05-2.36-2.35,0-1.29,1.06-2.36,2.35-2.36,1.29,0,2.35,1.06,2.36,2.35Z"/>
    </g>
    <g>
      <path class="cls-1" d="M27.46,20.69v4.35c2.3-.97,4.29-.56,6.09,1.19,0-.23,0-.33,0-.44-.03-1.62-.05-3.23-.09-4.85,0-.22,.05-.34,.24-.45,1.3-.77,2.59-1.57,3.89-2.34,.5-.29,.71-.68,.69-1.26-.05-1.46-.06-2.91-.09-4.37-.01-.56-.26-.92-.68-1.06-.69-.23-1.35,.25-1.35,1.01,0,.92,.03,1.85,.04,2.77,0,.37,.03,.74,.02,1.11,0,.11-.08,.27-.17,.33-.85,.53-1.71,1.05-2.57,1.56-.11,.07-.26,.09-.4,.09-1.55,.02-3.09,.03-4.64,.03-.51,0-.99,.09-1.46,.3-.77,.34-1.55,.65-2.32,.99-.2,.09-.3,.05-.42-.11-.66-.84-1.32-1.67-1.99-2.5-.28-.34-.64-.49-1.07-.38-.42,.11-.71,.39-.74,.81-.02,.27,.05,.6,.21,.81,.85,1.12,1.73,2.21,2.62,3.3,.37,.45,.79,.53,1.35,.3,.82-.34,1.64-.7,2.46-1.04,.09-.04,.18-.08,.37-.15Z"/>
      <path class="cls-1" d="M27.98,15.14c0,1.3,1.05,2.36,2.35,2.36,1.3,0,2.36-1.05,2.36-2.35,0-1.29-1.06-2.36-2.35-2.36-1.29,0-2.35,1.06-2.36,2.35Z"/>
    </g>
  </g>
</svg>