<?xml version="1.0" encoding="UTF-8"?>
<svg id="Layer_1" data-name="Layer 1" xmlns="http://www.w3.org/2000/svg" viewBox="0 0 43 43">
  <defs>
    <style>
      .cls-1 {
        fill: #b1b1b1;
      }

      .cls-2 {
        fill: #fff;
        stroke: #ccc;
        stroke-miterlimit: 10;
      }
    </style>
  </defs>
  <rect class="cls-2" x="2.46" y="2.52" width="38.09" height="37.96" rx="8" ry="8"/>
  <g>
    <path class="cls-1" d="M15.76,6.86c.14,.03,.28,.07,.42,.11,1.18,.33,1.95,1.55,1.73,2.75-.22,1.24-1.34,2.13-2.56,2.03-1.29-.11-2.26-1.11-2.28-2.37-.02-1.24,.81-2.24,2.03-2.47,.05,0,.09-.03,.14-.05,.17,0,.35,0,.52,0Z"/>
    <path class="cls-1" d="M26.73,6.86c.11,.03,.22,.06,.33,.09,1.21,.3,2.01,1.49,1.82,2.73-.19,1.23-1.3,2.15-2.52,2.07-1.29-.08-2.28-1.07-2.32-2.33-.05-1.24,.79-2.28,2.01-2.5,.06-.01,.11-.03,.16-.05,.17,0,.35,0,.52,0Z"/>
    <path class="cls-1" d="M19.46,22.43c.12,.5,.23,.98,.35,1.47,.21,.86,.42,1.73,.62,2.59,.08,.35-.02,.5-.37,.51-.51,.01-1.03,0-1.54,0-.12,0-.24,0-.38,0,0,.11,0,.19,0,.26,0,2.51,0,5.02,0,7.53,0,.54-.24,.95-.72,1.2-.46,.24-.92,.2-1.36-.09-.28-.19-.44-.46-.55-.82-.04,.09-.06,.14-.08,.19-.23,.61-.84,.97-1.46,.86-.63-.11-1.09-.64-1.1-1.3,0-1.04,0-2.08,0-3.12,0-1.48,0-2.96,0-4.45,0-.08,0-.15,0-.25-.24,0-.46,0-.67,0-.4,0-.8,0-1.19,0-.43-.01-.52-.14-.42-.56,.31-1.28,.62-2.56,.92-3.83,.01-.06,.02-.11,.04-.2-.05,.04-.07,.05-.09,.08-.37,.46-.95,.59-1.5,.31-.51-.25-.72-.75-.55-1.34,.64-2.24,1.29-4.48,1.94-6.72,.04-.15,.1-.29,.15-.43,.47-1.24,1.35-1.99,2.68-2.16,.93-.12,1.86-.13,2.79,.02,1.36,.21,2.19,1.04,2.61,2.31,.34,1.05,.63,2.12,.94,3.18,.36,1.26,.72,2.51,1.08,3.77,.14,.48,.08,.91-.33,1.23-.41,.32-.87,.39-1.34,.15-.17-.09-.3-.24-.46-.37Z"/>
    <path class="cls-1" d="M23.2,18.82c-.28,.65-.56,1.31-.87,2.01-.16-.55-.3-1.04-.44-1.53-.19-.7-.39-1.39-.57-2.09-.03-.11-.03-.25,.02-.35,.56-1.3,1.13-2.59,1.7-3.89,.23-.53,.65-.84,1.21-.85,1.49-.03,2.98-.03,4.46,0,.57,.01,.98,.32,1.22,.86,1.2,2.75,2.41,5.5,3.61,8.26,.3,.68,.02,1.41-.63,1.69-.65,.29-1.38,0-1.67-.68-.47-1.08-.93-2.16-1.4-3.24-.03-.06-.06-.13-.14-.19,0,.09,0,.19,0,.28,0,5.07,0,10.14,0,15.2,0,.19,0,.39-.05,.58-.16,.7-.74,1.2-1.44,1.24-.75,.04-1.4-.37-1.65-1.06-.02-.06-.05-.13-.09-.23-.04,.09-.06,.14-.07,.19-.26,.76-1.01,1.21-1.79,1.09-.78-.12-1.33-.76-1.35-1.57,0-.31,0-.62,0-.93,0-4.85,0-9.7,0-14.55,0-.08,0-.16,0-.23-.02,0-.04-.01-.06-.02Z"/>
  </g>
</svg>