<?xml version="1.0" encoding="UTF-8"?>
<svg id="Layer_1" data-name="Layer 1" xmlns="http://www.w3.org/2000/svg" viewBox="0 0 43 43">
  <defs>
    <style>
      .cls-1 {
        fill: #aeb2b2;
      }

      .cls-2 {
        fill: #fff;
        stroke: #aeb2b2;
        stroke-miterlimit: 10;
      }
    </style>
  </defs>
  <rect class="cls-2" x="2.46" y="2.52" width="38.09" height="37.96" rx="8" ry="8"/>
  <g>
    <path class="cls-1" d="M17.24,34.76c-2.16,0-3.84-.5-5.05-1.49s-1.82-2.37-1.82-4.13,.61-3.22,1.82-4.22c1.21-1,2.9-1.51,5.05-1.51h5.51v2.02h-5.22c-1.76,0-3.03,.33-3.8,.97-.77,.65-1.16,1.56-1.16,2.74s.4,2.01,1.19,2.65c.8,.64,1.9,.96,3.33,.96,1.18,0,2.19-.24,3.03-.72,.85-.48,1.49-1.18,1.93-2.11,.44-.93,.66-2.08,.66-3.45h1.29c0,2.5-.59,4.51-1.78,6.03-1.19,1.52-2.85,2.28-4.98,2.28Zm5.66-.44l-.18-2.76v-7.09c0-1.57-.18-2.86-.53-3.88-.36-1.02-.91-1.78-1.65-2.3-.75-.51-1.72-.77-2.92-.77-1.1,0-2.03,.22-2.77,.66-.75,.44-1.37,1.13-1.86,2.06l-1.98-.88c.51-.88,1.1-1.6,1.75-2.17s1.38-.99,2.19-1.27c.81-.28,1.7-.42,2.68-.42,1.64,0,3,.33,4.08,.99,1.08,.66,1.89,1.65,2.42,2.98,.54,1.32,.81,2.99,.81,5v9.85h-2.02Z"/>
    <path class="cls-1" d="M31.16,11.18c-.39,0-.73-.15-1.03-.44s-.44-.64-.44-1.03c0-.42,.15-.76,.44-1.05,.29-.28,.64-.42,1.03-.42,.42,0,.77,.14,1.05,.42,.28,.28,.42,.63,.42,1.05,0,.39-.14,.74-.42,1.03-.28,.29-.63,.44-1.05,.44Zm-1.14,23.15V15.95h2.2v18.37h-2.2Z"/>
  </g>
</svg>