<?xml version="1.0" encoding="UTF-8"?>
<svg id="Layer_1" data-name="Layer 1" xmlns="http://www.w3.org/2000/svg" viewBox="0 0 43 43">
  <defs>
    <style>
      .cls-1 {
        fill: #aeb2b2;
      }

      .cls-2 {
        fill: #fff;
        stroke: #aeb2b2;
        stroke-miterlimit: 10;
      }
    </style>
  </defs>
  <rect class="cls-2" x="2.46" y="2.52" width="38.09" height="37.96" rx="8" ry="8"/>
  <g>
    <g>
      <path class="cls-1" d="M8.41,19.08c-.07-.56,.19-1.25,.65-1.87,.11-.15,.22-.31,.33-.46,.32-.43,.56-.89,.74-1.39,.25-.7,.55-1.38,1.07-1.93,.21-.23,.47-.39,.76-.5,.68-.24,1.36-.49,2.04-.75,.34-.13,.68-.17,1.03-.06,.67,.2,1.34,.28,2.03,.15,.42-.08,.75,.07,1.02,.38,.84,.97,1.26,2.1,1.22,3.39-.01,.53-.12,1.05-.32,1.54-.24,.59-.63,1.07-1.14,1.45-.2,.15-.4,.3-.62,.43-1.1,.67-1.65,1.69-1.89,2.91-.18,.9,.02,1.69,.56,2.44,.76,1.04,1.64,1.93,2.73,2.63,.6,.39,1.17,.8,1.63,1.36,1.59,1.96,.91,4.94-1.36,5.94-1.35,.6-2.84,.27-3.89-.86-.74-.8-1.17-1.76-1.48-2.79-.36-1.24-.7-2.48-1.2-3.67-.48-1.13-1.1-2.17-1.93-3.08-1.29-1.42-1.88-3.13-1.97-5.25Z"/>
      <path class="cls-1" d="M18.26,10.44c-.07,.31-.12,.63-.2,.94-.09,.35-.35,.54-.71,.59-.34,.05-.67,.1-1.01,.16-.53,.1-.95-.08-1.29-.48-.79-.94-.78-2.81,.88-3.56,.48-.21,.93-.14,1.34,.2,.6,.5,.96,1.3,.99,2.16Z"/>
      <path class="cls-1" d="M14.31,10.63c0,.36-.09,.7-.27,1.01-.11,.18-.26,.29-.47,.35-.24,.06-.47,.15-.69,.23-.17,.06-.33,.08-.48-.04-.43-.35-.69-.8-.66-1.37,.04-.55,.32-.94,.81-1.19,.52-.26,1.16-.14,1.51,.26,.19,.21,.27,.46,.26,.75Z"/>
      <path class="cls-1" d="M9.53,12.34c.02-.51,.24-.94,.75-1.18,.5-.24,.97-.13,1.38,.22,.38,.32,.47,.88,.17,1.3-.17,.23-.41,.42-.63,.61-.11,.09-.25,.15-.37,.22-.44,.24-.7,.18-.98-.24-.18-.26-.29-.55-.31-.92Z"/>
      <path class="cls-1" d="M10.24,14.38c-.04,.4-.22,.79-.58,1.08-.2,.16-.43,.16-.66,.06-.78-.34-.92-1.52-.24-2.03,.28-.21,.58-.27,.9-.12,.36,.16,.51,.46,.57,.83,0,.04,0,.09,.01,.19Z"/>
      <path class="cls-1" d="M7.4,16.43c0-.32,.08-.57,.25-.78,.27-.34,.72-.4,1.05-.13,.34,.28,.51,.65,.4,1.09-.06,.23-.16,.47-.29,.67-.19,.29-.5,.35-.79,.17-.39-.24-.59-.6-.63-1.01Z"/>
    </g>
    <g>
      <path class="cls-1" d="M34.59,19.08c.07-.56-.19-1.25-.65-1.87-.11-.15-.22-.31-.33-.46-.32-.43-.56-.89-.74-1.39-.25-.7-.55-1.38-1.07-1.93-.21-.23-.47-.39-.76-.5-.68-.24-1.36-.49-2.04-.75-.34-.13-.68-.17-1.03-.06-.67,.2-1.34,.28-2.03,.15-.42-.08-.75,.07-1.02,.38-.84,.97-1.26,2.1-1.22,3.39,.01,.53,.12,1.05,.32,1.54,.24,.59,.63,1.07,1.14,1.45,.2,.15,.4,.3,.62,.43,1.1,.67,1.65,1.69,1.89,2.91,.18,.9-.02,1.69-.56,2.44-.76,1.04-1.64,1.93-2.73,2.63-.6,.39-1.17,.8-1.63,1.36-1.59,1.96-.91,4.94,1.36,5.94,1.35,.6,2.84,.27,3.89-.86,.74-.8,1.17-1.76,1.48-2.79,.36-1.24,.7-2.48,1.2-3.67,.48-1.13,1.1-2.17,1.93-3.08,1.29-1.42,1.88-3.13,1.97-5.25Z"/>
      <path class="cls-1" d="M24.74,10.44c.07,.31,.12,.63,.2,.94,.09,.35,.35,.54,.71,.59,.34,.05,.67,.1,1.01,.16,.53,.1,.95-.08,1.29-.48,.79-.94,.78-2.81-.88-3.56-.48-.21-.93-.14-1.34,.2-.6,.5-.96,1.3-.99,2.16Z"/>
      <path class="cls-1" d="M28.69,10.63c0,.36,.09,.7,.27,1.01,.11,.18,.26,.29,.47,.35,.24,.06,.47,.15,.69,.23,.17,.06,.33,.08,.48-.04,.43-.35,.69-.8,.66-1.37-.04-.55-.32-.94-.81-1.19-.52-.26-1.16-.14-1.51,.26-.19,.21-.27,.46-.26,.75Z"/>
      <path class="cls-1" d="M33.47,12.34c-.02-.51-.24-.94-.75-1.18-.5-.24-.97-.13-1.38,.22-.38,.32-.47,.88-.17,1.3,.17,.23,.41,.42,.63,.61,.11,.09,.25,.15,.37,.22,.44,.24,.7,.18,.98-.24,.18-.26,.29-.55,.31-.92Z"/>
      <path class="cls-1" d="M32.76,14.38c.04,.4,.22,.79,.58,1.08,.2,.16,.43,.16,.66,.06,.78-.34,.92-1.52,.24-2.03-.28-.21-.58-.27-.9-.12-.36,.16-.51,.46-.57,.83,0,.04,0,.09-.01,.19Z"/>
      <path class="cls-1" d="M35.6,16.43c0-.32-.08-.57-.25-.78-.27-.34-.72-.4-1.05-.13-.34,.28-.51,.65-.4,1.09,.06,.23,.16,.47,.29,.67,.19,.29,.5,.35,.79,.17,.39-.24,.59-.6,.63-1.01Z"/>
    </g>
    <path class="cls-1" d="M21.42,21.15c.28-.35,.61-.62,1.01-.82,.54-.27,1.11-.36,1.7-.19,.54,.16,.95,.5,1.26,.97,.2,.3,.34,.63,.39,.99,.05,.4-.02,.78-.17,1.15-.19,.47-.47,.89-.79,1.27-.45,.54-.97,1.02-1.51,1.47-.58,.49-1.19,.94-1.81,1.38-.04,.03-.06,.03-.11,0-.82-.57-1.62-1.17-2.36-1.84-.48-.43-.93-.89-1.31-1.42-.26-.36-.47-.75-.59-1.18-.17-.65-.05-1.25,.31-1.8,.3-.46,.7-.8,1.23-.97,.47-.15,.95-.12,1.41,.04,.52,.17,.94,.48,1.29,.9,0,.01,.02,.02,.03,.03,0,0,0,0,.02,0Z"/>
  </g>
</svg>