<?xml version="1.0" encoding="UTF-8"?>
<svg id="Layer_1" data-name="Layer 1" xmlns="http://www.w3.org/2000/svg" viewBox="0 0 43 43">
  <defs>
    <style>
      .cls-1 {
        font-family: MyriadPro-Regular, 'Myriad Pro';
        font-size: 5px;
      }

      .cls-1, .cls-2 {
        fill: #b1b1b1;
      }

      .cls-3 {
        fill: #fff;
        stroke: #ccc;
        stroke-miterlimit: 10;
      }
    </style>
  </defs>
  <rect class="cls-3" x="2.46" y="2.52" width="38.09" height="37.96" rx="8" ry="8"/>
  <g>
    <path class="cls-2" d="M22.3,19.43c-1.06-.85-2.05-1.64-3.13-2.31-.36-.22-.73-.42-1.13-.57-.27-.1-.44-.05-.6,.21-1.11,1.83-1.77,3.78-1.7,5.94,.01,.37-.09,.45-.44,.45-.93,0-.94,0-.93-.92,.01-2.01,.65-3.84,1.71-5.53,.09-.14,.29-.28,.15-.48-.11-.16-.31-.08-.47-.07-1.88,.12-3.67,.59-5.36,1.47,.34-1.41,2.11-2.82,3.52-2.84,.06,0,.12,0,.18,0,.19,0,.37,0,.44-.23,.08-.25-.1-.36-.27-.46-1.03-.57-2.07-1.14-3.16-1.6-.22-.09-.44-.19-.69-.29,1.76-.87,3.54-.63,4.92,.65,.15,.14,.3,.29,.51,.17,.25-.14,.17-.36,.09-.56-.23-.64-.46-1.29-.71-1.92-.25-.63-.55-1.23-.96-1.82,1.75,.3,2.92,1.43,3.26,3.11,.04,.2,.06,.41,.3,.46,.25,.05,.33-.16,.43-.32,.94-1.51,2.43-2.12,3.99-1.62-.51,.48-1.01,.93-1.49,1.41-.47,.46-.93,.92-1.31,1.45-.11,.15-.15,.3-.03,.45,.11,.13,.25,.15,.41,.08,1.73-.86,3.16-.22,4.5,.9,.13,.11,.24,.23,.37,.34-.08,.16-.22,.08-.32,.08-1.15,0-2.31,.03-3.44,.28-.24,.05-.47,.12-.69,.21-.17,.06-.34,.13-.37,.36-.02,.23,.15,.31,.3,.41,.68,.42,1.26,.95,1.67,1.64,.26,.43,.42,.9,.45,1.49Z"/>
    <path class="cls-2" d="M25.08,15.4c.22-.22,.17-.43-.04-.62-.22-.2-.44-.41-.69-.65,.2-.08,.48-.06,.48-.36,0-.28-.23-.33-.41-.43-1-.57-2.02-1.1-3.07-1.56,.57-.96,1.45-.83,2.3-.68,.77,.13,1.41,.53,1.97,1.07,.14,.13,.27,.31,.51,.17,.25-.15,.16-.36,.09-.56-.42-1.28-.89-2.54-1.67-3.77,1.34,.31,2.34,.92,2.93,2.11,.16,.33,.27,.68,.34,1.03,.04,.19,.05,.41,.3,.45,.25,.04,.33-.16,.44-.33,.94-1.5,2.2-2.03,3.91-1.64,.05,.16-.11,.2-.18,.27-.84,.79-1.7,1.55-2.43,2.46-.14,.18-.34,.36-.16,.6,.18,.24,.41,.09,.62,0,.99-.44,1.97-.38,2.94,.08,.65,.31,1.2,.75,1.71,1.38-.64,0-1.28-.01-1.91,0-.7,.02-1.39,.1-2.07,.28-.19,.05-.38,.11-.55,.2-.37,.19-.38,.46-.03,.67,.67,.41,1.25,.91,1.67,1.57,.29,.46,.5,.96,.51,1.59-.87-.68-1.68-1.36-2.57-1.94-.53-.35-1.06-.69-1.67-.92-.29-.11-.45-.08-.63,.21-1.12,1.83-1.76,3.78-1.7,5.94,0,.28-.05,.4-.34,.36-.07-.01-.15,.01-.23,.02q-.81,.07-.81-.72c-.02-1.98,.58-3.79,1.59-5.47,.06-.1,.13-.2,.19-.31,.06-.11,.19-.23,.09-.37-.09-.13-.25-.09-.38-.08-.35,.02-.7,.05-1.04,.07-.05-.03-.05-.07,0-.11Z"/>
    <path class="cls-2" d="M13.54,25.71c2.18-2,4.82-2.36,7.62-2.14,1.51,.12,2.94,.53,4.22,1.39,.27,.18,.53,.4,.79,.6-.43,.25-.87,.5-1.24,.86-.43,.42-1.02,.41-1.48,.03-.04-.03-.07-.06-.1-.09-.93-.85-1.32-.84-2.27,.02-.54,.49-1.25,.48-1.74-.06-.72-.81-1.52-.67-2.17-.04-.65,.63-1.2,.62-1.85-.02-.42-.42-.88-.63-1.47-.44-.09,.03-.28,.15-.3-.1Z"/>
    <path class="cls-2" d="M20.76,21.16c1.12,.02,2.15,.16,3.16,.43,.45,.12,.31,.44,.35,.71,.06,.33-.21,.26-.38,.31-.49,.15-.99,.3-1.43,.57-.24,.15-.46,.18-.73,.13-1.22-.23-2.44-.25-3.66-.09-.59,.08-1.18-.1-1.77-.07-.17,0-.2-.1-.19-.24,.01-.22-.13-.47,.17-.64,.67-.37,1.37-.63,2.11-.81,.8-.2,1.61-.27,2.36-.3Z"/>
    <path class="cls-2" d="M26.54,26.06c.33,.12,.61,.31,.85,.58,.48,.54,1.13,.52,1.62,0,.74-.8,1.57-.81,2.3-.01,.29,.32,.62,.47,1.05,.38,.14-.03,.29-.03,.32,.15,.03,.19-.13,.22-.26,.25-.54,.1-.98-.08-1.35-.47-.63-.68-1.16-.67-1.8,0-.63,.67-1.53,.66-2.16,0-.63-.67-1.17-.67-1.8,0-.61,.65-1.51,.66-2.13,.03-.72-.74-1.13-.74-1.86,0-.62,.63-1.54,.61-2.13-.04-.62-.68-1.15-.68-1.79,0-.61,.65-1.51,.66-2.13,.02-.7-.72-1.15-.72-1.86,0-.62,.63-1.54,.61-2.13-.04-.62-.68-1.16-.68-1.79,0-.32,.34-.7,.52-1.18,.49-.14,0-.24-.07-.23-.22,0-.13,.11-.18,.23-.17,.45,.02,.75-.22,1.05-.54,.59-.63,1.51-.61,2.1,.01,.71,.74,1.27,.71,1.9-.1,.36-.5,1.14-.63,1.75-.28,.19,.11,.33,.26,.49,.4,.54,.49,.93,.5,1.46-.02,.36-.35,.75-.6,1.28-.57,.43,.02,.79,.18,1.1,.48,.64,.64,1.09,.69,1.69,.02,.55-.62,1.67-.66,2.31,0,.61,.64,.98,.62,1.61,.01,.43-.42,.91-.65,1.52-.4Z"/>
    <path class="cls-2" d="M22.74,23.47c2.34-.96,4.63-1.06,6.87,.28,.29,.17,.52,.41,.72,.69,.14,.2,.13,.34-.16,.34-1.52,0-3.03,0-4.55,0-.07,0-.16-.01-.21-.05-.82-.56-1.72-.94-2.67-1.26Z"/>
    <path class="cls-2" d="M31.16,29.19c-.46,.02-.78-.2-1.06-.49-.52-.55-1.02-.54-1.55,.02-.61,.65-1.42,.66-2.04,.03-.59-.6-1.04-.6-1.61,0-.61,.64-1.42,.63-2.03-.01-.55-.57-1.04-.57-1.58,0-.6,.64-1.42,.65-2.04,.02-.59-.6-1.04-.6-1.61,0-.58,.62-1.42,.62-2.01,0-.59-.62-1.04-.61-1.64,.01-.56,.59-1.4,.59-1.98,0-.63-.64-1.04-.64-1.67,.01-.29,.3-.64,.44-1.06,.41-.14,0-.24-.06-.23-.21,0-.13,.11-.18,.23-.17,.42,.03,.69-.21,.96-.5,.53-.56,1.36-.54,1.91,0,.69,.69,1.01,.69,1.7,0,.59-.58,1.41-.56,1.97,.04,.58,.61,1.04,.62,1.61,.01,.6-.64,1.43-.64,2.03,0,.55,.59,1.04,.59,1.58,.02,.62-.66,1.45-.66,2.07,0,.53,.56,1.03,.57,1.54,.02,.65-.69,1.46-.69,2.09,0,.5,.54,1.01,.55,1.52,.02,.67-.71,1.46-.72,2.12,0,.24,.26,.51,.41,.88,.38,.15-.02,.37-.1,.37,.17,0,.21-.2,.19-.34,.22-.06,.01-.12,0-.15,0Z"/>
    <path class="cls-2" d="M23.68,30.99c-.35,0-.67-.17-.94-.47-.49-.53-.96-.53-1.47,0-.63,.65-1.39,.64-2.01-.04-.44-.48-.97-.48-1.41,0-.64,.69-1.39,.69-2.05,0-.45-.48-.96-.48-1.42,0-.67,.69-1.39,.7-2.04,.01-.47-.49-.96-.49-1.44,.03-.27,.29-.59,.47-.99,.47-.13,0-.3,.02-.31-.18-.02-.19,.13-.21,.28-.21,.33,0,.56-.16,.78-.4,.59-.64,1.37-.63,1.98,.01,.5,.53,.96,.52,1.47-.01,.6-.64,1.37-.64,1.98,0,.5,.53,.96,.53,1.47,0,.63-.66,1.37-.65,2.01,.02,.48,.5,.96,.5,1.44-.02,.62-.66,1.38-.66,2.02,0,.49,.51,.95,.51,1.43,0,.63-.66,1.4-.66,2.02,0,.47,.51,.97,.52,1.44,.01,.63-.67,1.39-.68,2.01-.02,.26,.28,.53,.45,.92,.36,.16-.03,.29,0,.31,.16,.02,.16-.13,.22-.27,.24-.47,.07-.86-.08-1.19-.43-.54-.57-.98-.57-1.53,0-.54,.57-1.34,.58-1.9,.03-.63-.62-.97-.62-1.59,0-.26,.26-.56,.4-.98,.4Z"/>
    <path class="cls-2" d="M16.22,23.56c-.9,.31-1.75,.69-2.51,1.25-.06,.04-.13,.09-.2,.09-1.09,0-2.19,0-3.32,0,.63-.9,3.67-1.52,6.03-1.34Z"/>
    <path class="cls-2" d="M25.08,15.4s0,.07,0,.11c-1.27,.22-2.51,.51-3.68,1.05-.12,.05-.19,.03-.28-.05-.25-.2-.5-.38-.79-.6,.61-.29,1.23-.36,1.85-.4,.96-.06,1.93-.08,2.9-.11Z"/>
  </g>
  <text class="cls-1" transform="translate(11.44 36.16)"><tspan x="0" y="0">Big Island</tspan></text>
</svg>