<?xml version="1.0" encoding="UTF-8"?>
<svg id="Layer_1" data-name="Layer 1" xmlns="http://www.w3.org/2000/svg" viewBox="0 0 43 43">
  <defs>
    <style>
      .cls-1, .cls-2 {
        fill: #b1b1b1;
      }

      .cls-3 {
        fill: #fff;
        stroke: #ccc;
        stroke-miterlimit: 10;
      }

      .cls-2 {
        font-family: MyriadPro-Regular, 'Myriad Pro';
        font-size: 4.9px;
      }
    </style>
  </defs>
  <rect class="cls-3" x="2.46" y="2.52" width="38.09" height="37.96" rx="8" ry="8"/>
  <g>
    <g>
      <g>
        <path class="cls-1" d="M24.75,12.77c-.16-.14-.35-.1-.54-.1-1.04,0-2.08,0-3.12,0-.12,0-.25,0-.37,0-.13,0-.19-.08-.2-.21,0-.03,0-.06,0-.09,.12-.87-.34-1.55-.75-2.24-.24-.41-.4-.84-.53-1.28-.19-.66,.06-1.15,.68-1.46,.41-.2,.85-.28,1.28-.4,.12-.03,.24-.05,.36-.09,.25-.07,.39-.23,.45-.48,.06-.23,.08-.46,.08-.69,0-.33,.07-.4,.39-.47,.2-.05,.4,0,.59,.05,.16,.04,.23,.15,.23,.31,0,.19,0,.37,0,.56,.03,.45,.21,.66,.65,.77,.39,.09,.78,.18,1.16,.32,.27,.1,.49,.24,.71,.42,.35,.28,.42,.64,.31,1.04-.14,.52-.34,1.03-.62,1.5-.15,.25-.3,.5-.44,.76-.17,.31-.22,.64-.21,.99,0,.27,.05,.56-.14,.81Z"/>
        <path class="cls-1" d="M22.68,14.04c.43,0,.87,0,1.3,0,.5,0,.85,.3,1.11,.67,.19,.28,.11,.64,.06,.95-.12,.9-.54,1.67-1.11,2.37-.38,.47-.79,.92-1.27,1.29-.81,.63-1.63,1.24-2.62,1.55-.71,.22-.93,.05-.95-.7-.03-1.23,.19-2.43,.41-3.64,.08-.43,.15-.85,.28-1.27,.19-.58,.61-.77,1.08-1.07,.1-.06,.28-.18,.4-.18,.43,0,1.3,.02,1.3,.02Z"/>
        <path class="cls-1" d="M25.59,15.98c-.03,1.14-.34,2.19-.75,3.22-.36,.91-.84,1.76-1.44,2.53-.66,.85-.97,1.81-1.12,2.85-.09,.6-.05,1.2-.16,1.8-.14,.78-.77,1.06-1.43,.61-.37-.25-.55-.62-.73-1-.1-.21-.19-.42-.3-.63-.16-.31-.25-.35-.59-.32-.22,.02-.42,.11-.62,.19-.35,.14-.71,.21-1.09,.19-.6-.04-.99-.63-.8-1.21,.07-.19,.16-.37,.31-.51,.37-.37,.77-.71,1.25-.95,1.1-.56,2.22-1.09,3.36-1.59,.86-.38,1.58-.94,2.18-1.69,.78-.98,1.35-2.07,1.78-3.24,.03-.07,.06-.14,.09-.21,0-.01,.03-.01,.07-.04Z"/>
        <path class="cls-1" d="M25.97,16.39s.04,.02,.06,.04c.06,.08,.1,.18,.13,.27,.06,.19,.09,.4,.12,.6,.15,.93,.24,1.87,.21,2.82-.05,1.56-.5,3.01-1.04,4.47-.5,1.37-.82,2.72-.77,4.18,.03,.92,.17,1.84,.4,2.73,.12,.46,.26,.92,.42,1.37,.08,.23,.17,.45,.26,.67,.04,.09,.23,.41,.2,.51-.02,.05-.08,.07-.13,.05-.2-.08-.38-.36-.51-.52-.47-.56-.89-1.15-1.25-1.79-1.07-1.92-1.38-4.07-1.2-6.23,.08-1.03,.38-2.07,.85-3,.5-.99,1.16-1.86,1.53-2.92,.19-.55,.36-1.12,.46-1.69,.07-.4,0-1.27,.28-1.57Z"/>
      </g>
      <rect class="cls-1" x="20.61" y="13.02" width="4.17" height=".72" rx=".33" ry=".33"/>
    </g>
    <text class="cls-2" transform="translate(8.48 24.09) rotate(46.14)"><tspan x="0" y="0">Boutique </tspan></text>
  </g>
</svg>