<?xml version="1.0" encoding="UTF-8"?>
<svg id="Layer_1" data-name="Layer 1" xmlns="http://www.w3.org/2000/svg" viewBox="0 0 43 43">
  <defs>
    <style>
      .cls-1 {
        fill: #aeb2b2;
      }

      .cls-2 {
        fill: #fff;
        stroke: #aeb2b2;
        stroke-miterlimit: 10;
      }
    </style>
  </defs>
  <rect class="cls-2" x="2.46" y="2.52" width="38.09" height="37.96" rx="8" ry="8"/>
  <g>
    <path class="cls-1" d="M36.93,18.91c-.2-.19-.46-.17-.7,.06-.13,.12-.26,.23-.44,.38,.03-.16,.05-.24,.06-.33,.06-.63-.07-1.2-.51-1.68-.48-.52-1.28-.66-1.91-.34-.66,.34-.99,1-.8,1.72,.08,.3,.23,.59,.4,.85,.15,.23,.37,.41,.57,.63-.22,.1-.46,.21-.7,.31-.03-.05-.04-.08-.05-.1-.84-2.27-2.4-3.9-4.44-5.13-1.72-1.04-3.59-1.63-5.57-1.87-2.61-.31-5.15-.02-7.59,.97-.68,.28-1.33,.63-2,.95,.02,0,0,0,0,0-.06-.06-.13-.12-.19-.18-.63-.58-1.33-1.06-2.18-1.25-.86-.2-1.65-.02-2.38,.47,.03,.05,.05,.09,.07,.13,.66,1.04,1.22,2.12,1.67,3.26,.07,.17,.07,.3-.05,.46-.58,.77-1,1.63-1.29,2.55-.03,.09-.1,.18-.18,.24-.82,.54-1.68,1.02-2.62,1.31-.12,.04-.16,.09-.16,.22,.02,.55,.02,1.11,.06,1.66,.06,.78,.18,1.55,.47,2.29,.35,.85,.91,1.47,1.82,1.74,.65,.19,1.31,.21,1.97,.14,.18-.02,.31,.01,.44,.17,.57,.67,1.23,1.25,1.94,1.77,.09,.07,.17,.19,.19,.3,.23,1.01,.46,2.03,.68,3.04,.08,.38,.17,.76,.26,1.13h3.66c.16-.75,.32-1.49,.49-2.25,1.64,.32,3.27,.37,4.91,.18,.13,.79,.26,1.55,.4,2.34h.25c1.07,0,2.14,0,3.21,0,.17,0,.24-.06,.3-.21,.53-1.33,1.07-2.67,1.61-4,.04-.09,.12-.19,.2-.24,.7-.47,1.36-.98,1.95-1.59,2-2.09,2.93-4.52,2.42-7.43-.02-.14,.04-.16,.13-.21,.47-.24,.94-.49,1.41-.73,.06-.03,.12-.06,.18-.06,.82,0,1.45-.38,2-.94,.23-.23,.25-.51,.05-.7Zm-2.34,.59s-.14,.05-.19,.03c-.42-.17-.72-.47-.87-.91-.11-.33,0-.6,.27-.76,.27-.16,.61-.11,.83,.11,.22,.22,.28,.51,.31,.81-.01,.3-.14,.54-.36,.74Z"/>
    <g>
      <path class="cls-1" d="M23.75,18.33c-2.86,0-5.18-2.32-5.18-5.18s2.32-5.18,5.18-5.18,5.18,2.32,5.18,5.18-2.32,5.18-5.18,5.18Zm0-9.57c-2.42,0-4.38,1.97-4.38,4.38s1.97,4.38,4.38,4.38,4.38-1.97,4.38-4.38-1.97-4.38-4.38-4.38Z"/>
      <path class="cls-1" d="M23.86,14.48s-.08,0-.12-.02c-.21-.07-.32-.29-.25-.5l.68-2.08c-.72-.05-1.25-.2-1.27-.21-.21-.06-.33-.28-.27-.49,.06-.21,.28-.33,.49-.27,0,0,.73,.21,1.58,.18l.57-.02-1.03,3.13c-.06,.17-.21,.27-.38,.27Z"/>
    </g>
  </g>
</svg>