<?xml version="1.0" encoding="UTF-8"?>
<svg id="Layer_1" data-name="Layer 1" xmlns="http://www.w3.org/2000/svg" viewBox="0 0 43 43">
  <defs>
    <style>
      .cls-1 {
        fill: #aeb2b2;
      }

      .cls-2 {
        fill: #fff;
        stroke: #aeb2b2;
        stroke-miterlimit: 10;
      }
    </style>
  </defs>
  <rect class="cls-2" x="2.46" y="2.52" width="38.09" height="37.96" rx="8" ry="8"/>
  <g>
    <path class="cls-1" d="M8.54,28.92c-.22,0-.42,0-.62,0-.4-.02-.65-.24-.65-.61,0-1.43,.04-2.87,.62-4.21,.34-.79,.79-1.52,1.7-1.76,.47-.12,.97-.21,1.46-.22,3.35-.06,6.62,.47,9.77,1.63,.9,.33,1.29,.89,1.3,1.85,0,.27,0,.54,0,.83,.11,0,.19,.02,.28,.02,1.54,0,3.08,0,4.62,0,.21,0,.3-.07,.38-.25,.66-1.5,1.33-3,1.99-4.5,.05-.12,.05-.32,0-.44-1.34-3.08-2.68-6.16-4.02-9.24-.07-.16-.14-.25-.34-.26-2.4-.14-4.81-.23-7.22-.12-1.23,.06-2.45,.15-3.7,.23v5.36s.05,.03,.09,.04c.95,.26,1.51,.9,1.81,1.81,.24,.73,.5,1.46,.76,2.21-1.31-.15-2.59-.29-3.9-.44v-2.43h-3.09v-1.26h3.06v-5.1c-.34,.04-.65,.09-.97,.13-.51,.05-.83-.15-.87-.52-.04-.38,.22-.67,.72-.72,1.39-.16,2.78-.36,4.18-.43,1.97-.1,3.95-.14,5.92-.13,2.34,0,4.67,.22,6.98,.55,.17,.02,.36,.08,.51,.17,.23,.15,.31,.39,.24,.66-.07,.26-.32,.46-.62,.43-.45-.03-.9-.11-1.35-.16-.28-.03-.56-.07-.89-.11,.05,.13,.08,.22,.12,.31,1.25,2.85,2.49,5.69,3.75,8.54,.06,.15,.22,.29,.37,.35,1.09,.47,2.13,1,3.08,1.72,.71,.53,1.34,1.13,1.66,1.99,.07,.19,.1,.41,.1,.62,0,1.24-.05,2.48-.02,3.71,.02,.69-.04,1.34-.42,1.94-.61,.98-1.48,1.52-2.65,1.52-1.19,0-2.1-.55-2.71-1.58-.12-.2-.22-.42-.26-.64-.05-.25-.2-.25-.39-.25-3.09,0-6.19,0-9.28,0-1.7,0-3.41,0-5.11,0-.21,0-.3,.06-.36,.26-.48,1.58-2.04,2.5-3.63,2.14-1.57-.35-2.61-1.88-2.38-3.5,0-.03,0-.06,0-.14Zm1.2,.66c.04,1.03,.88,1.84,1.88,1.82,1.03-.03,1.87-.9,1.83-1.9-.04-1.02-.89-1.84-1.88-1.81-1.04,.03-1.86,.89-1.82,1.89Zm21.05-.04c0,1.01,.82,1.84,1.84,1.85,1.01,.01,1.87-.84,1.87-1.86,0-1.01-.83-1.84-1.84-1.85-1.02-.01-1.86,.83-1.86,1.86Z"/>
    <path class="cls-1" d="M24.85,17.76c1.1,1.09,2.14,2.15,3.21,3.19,.17,.17,.21,.3,.09,.51-.15,.28-.27,.58-.41,.9-1.24-1.26-2.46-2.5-3.73-3.79-.31,.34-.55,.6-.79,.84-.19,.19-.45,.29-.69,.16-.17-.09-.34-.3-.38-.49-.03-.17,.07-.43,.19-.56,.78-.81,1.58-1.61,2.38-2.4,.29-.28,.61-.29,.86-.05,.27,.27,.29,.66,.02,.94-.24,.25-.49,.47-.76,.73Z"/>
  </g>
</svg>