<?xml version="1.0" encoding="UTF-8"?>
<svg id="Layer_1" data-name="Layer 1" xmlns="http://www.w3.org/2000/svg" viewBox="0 0 43 43">
  <defs>
    <style>
      .cls-1 {
        fill: #aeb2b2;
      }

      .cls-2 {
        fill: #fff;
        stroke: #aeb2b2;
        stroke-miterlimit: 10;
      }
    </style>
  </defs>
  <rect class="cls-2" x="2.46" y="2.52" width="38.09" height="37.96" rx="8" ry="8"/>
  <path class="cls-1" d="M31.95,18.46c-1.09,0-2.12,.27-3.03,.75l-2.42-3.85-1.09-3.93h-3.07v.95h2.35l.75,2.71H15.95l-1.14-1.96h1.79v-1.63h-5.29v1.63h2.4l3.76,6.46,.82-.48-1.79-3.08h8.79l-4.18,8.12h-3.57c-.43-3.2-3.18-5.68-6.5-5.68-3.62,0-6.56,2.94-6.56,6.56s2.94,6.56,6.56,6.56,6.52-2.91,6.56-6.49h4.08l4.42-8.59,2.01,3.2c-1.65,1.19-2.73,3.13-2.73,5.32,0,3.62,2.94,6.56,6.56,6.56s6.56-2.94,6.56-6.56-2.94-6.56-6.56-6.56ZM11.05,30.63c-3.1,0-5.62-2.52-5.62-5.62s2.52-5.61,5.62-5.61c2.8,0,5.12,2.06,5.54,4.74h-3.27c-.35-.91-1.23-1.56-2.27-1.56-1.35,0-2.44,1.09-2.44,2.44s1.09,2.44,2.44,2.44,2.39-1.05,2.43-2.37h3.18c-.04,3.07-2.54,5.55-5.61,5.55Zm20.91,0c-3.1,0-5.62-2.52-5.62-5.62,0-1.85,.9-3.49,2.29-4.51l1.75,2.78c-.45,.44-.72,1.05-.72,1.73,0,1.35,1.09,2.44,2.44,2.44s2.44-1.09,2.44-2.44-1.09-2.44-2.44-2.44c-.33,0-.64,.07-.92,.18l-1.73-2.76c.76-.38,1.61-.6,2.52-.6,3.1,0,5.62,2.52,5.62,5.61s-2.52,5.62-5.62,5.62Z"/>
</svg>