<?xml version="1.0" encoding="UTF-8"?>
<svg id="Layer_1" data-name="Layer 1" xmlns="http://www.w3.org/2000/svg" viewBox="0 0 43 43">
  <defs>
    <style>
      .cls-1 {
        fill: #b1b1b1;
      }

      .cls-2 {
        fill: #fff;
        stroke: #ccc;
        stroke-miterlimit: 10;
      }
    </style>
  </defs>
  <rect class="cls-2" x="2.46" y="2.52" width="38.09" height="37.96" rx="8" ry="8"/>
  <g>
    <path class="cls-1" d="M32.05,22.88c-.02-.41,.07-.7,.37-1.02,.81-.88,1.32-1.92,1.3-3.61,0-.56-.43-1.7-1.11-2.52-.76-.92-1.76-.89-2.5,.06-1.51,1.95-1.41,4.32,.3,6.13,.26,.27,.34,.52,.32,.86-.09,1.71-.18,3.42-.25,5.13-.1,2.13-.19,4.26-.26,6.39-.02,.78,.49,1.32,1.16,1.32,.66,0,1.17-.55,1.19-1.31,0-.39-.01-.78-.03-1.17-.16-3.42-.32-6.84-.49-10.26Z"/>
    <path class="cls-1" d="M33.11,13.91c-3.23-5.03-7.93-7.2-13.84-6.35-4.34,.63-7.55,3.07-9.85,6.99,.95,0,1.72,0,2.5,0,.91,0,1.12,.18,1.13,1.08,.02,1.56,.02,3.12,0,4.69-.01,.76-.2,1.49-.72,2.08-.19,.22-.27,.43-.26,.73,.12,2.46,.24,4.92,.3,7.38,.02,.58,.22,.92,.65,1.27,4.53,3.67,11.56,3.87,16.27,.46,.37-.27,.5-.56,.5-.97,.02-1.11,.05-2.22,.08-3.33,.03-.1,.05-.28,.07-.5,0-.06,.02-.12,.02-.19,.13-1.45,.18-4.4,.02-4.78-.18,1.43-.03,2.82-.3,4.18-1.3,5.17-6.66,7.52-10.59,6.11,1.09-.05,2.1,.06,3.12-.14,3.08-.62,5.67-3.09,6.35-6.17,.72-3.24-.57-6.64-3.23-8.48-2.46-1.7-5.09-1.93-7.86-.89-.31,.12-.56,.29-.89-.01-1.17-1.05-2.36-2.07-3.55-3.11,.02-.03,.05-.07,.07-.1l4.25,2.28s.06-.08,.08-.12c-.91-1.28-1.81-2.56-2.72-3.84,.03-.03,.07-.06,.1-.09,1.19,1.08,2.37,2.15,3.56,3.23,.03-.03,.06-.05,.09-.08-.55-1.4-1.09-2.8-1.64-4.21,.05-.03,.11-.05,.16-.08,.83,1.22,1.66,2.45,2.48,3.67,.04-.02,.09-.04,.13-.06-.2-1.52-.4-3.05-.6-4.57,.05-.01,.1-.02,.14-.03,.53,1.43,1.05,2.86,1.58,4.29,.05,0,.1-.01,.15-.02,.18-1.6,.37-3.2,.55-4.8h.08c.18,1.61,.37,3.23,.55,4.84,.05,0,.09,0,.14,0,.51-1.38,1.02-2.77,1.53-4.15,.03,0,.06,.01,.09,.02,.03,0,.06,.01,.09,.02-.19,1.47-.38,2.94-.58,4.41,.05,.01,.1,.02,.14,.03,.82-1.21,1.64-2.41,2.46-3.62,.05,.03,.11,.06,.16,.09-.55,1.4-1.09,2.8-1.72,4.41,1.36-1.23,2.54-2.31,3.73-3.39,.03,.03,.06,.07,.09,.1-.9,1.28-1.8,2.56-2.71,3.83l.1,.1,3.74-1.97c.03,.05,.06,.11,.09,.16-1.18,.96-2.36,1.91-3.63,2.95,1.13,.7,1.98,1.56,2.75,2.55-.38-1.71,.21-3.15,1.18-4.47,.78-1.06,2.29-1.18,3.13-.19,1.42,1.68,2.13,3.74,.79,5.78-.88,1.33-1.08,2.63-.91,4.1,.06,.56,.02,1.14,.05,1.71,.03,.51,.1,1.02,.16,1.63,2.85-4.29,2.96-10.14,.17-14.49Zm-5.2,10.74c.05,3.01-2.41,6.45-6.48,6.42-4.17-.03-6.56-3.57-6.39-6.49-.13-3.26,2.69-6.41,6.36-6.42,3.65,0,6.44,2.82,6.5,6.48Zm-8.52-7.7c.89-.16,1.79-.12,2.69-.02,.66,.07,1.28,.26,1.86,.62-1.02-.26-2.06-.32-3.1-.32-3.93,.36-6.95,3.75-6.73,7.71,.13,2.33,1.09,4.21,2.94,5.6,1.84,1.38,3.93,1.81,6.21,1.34-2.87,1.28-6.89,.13-8.92-2.91-3.11-4.66-.46-11.01,5.05-12.02Z"/>
    <path class="cls-1" d="M8.62,19.89c0-1.01,0-2.02,0-3.02-1.21,3.55-1,6.99,.73,10.3,.21-1.37,.07-2.75,.26-4.11,.03-.22-.04-.41-.19-.58-.67-.74-.8-1.65-.79-2.6Z"/>
    <path class="cls-1" d="M16.62,22.28c0,.68,.25,1.28,.59,1.86,1.09,1.87,2.62,3.32,4.27,4.71,1.49-1.28,2.89-2.59,3.96-4.2,.36-.55,.7-1.12,.83-1.78,.16-.8,.1-1.57-.62-2.11-.67-.51-1.39-.4-2.12-.1-.78,.33-1.41,.87-2.04,1.41-1.39-1.13-1.93-1.46-2.68-1.6-1.26-.24-2.19,.54-2.18,1.81Z"/>
    <path class="cls-1" d="M11.95,21.95c.28-.21,.41-.6,.44-.96,.12-1.61,.17-3.91,.07-5.56,0-.08-.07-.13-.14-.13h-.15c-.08,0-.14,.06-.14,.14,0,1.26,0,3.14,.01,4.36-.13,.14-.26,.15-.38,0,0-1.21,.01-3.09,.01-4.35,0-.08-.06-.14-.14-.14h-.06c-.08,0-.14,.06-.14,.14-.02,1.15,0,2.92-.01,4.02,0,.18,.12,.57-.34,.33,0-1.21,.02-3.09,0-4.35,0-.08-.06-.14-.14-.14h-.04c-.08,0-.14,.06-.14,.14-.05,1.01,.04,2.62,0,3.57-.01,.28,.07,.59-.19,.83-.08-1.23-.07-3.13-.09-4.4,0-.08-.07-.14-.14-.14h-.06c-.08,0-.14,.06-.14,.14,0,1.26,0,3.14,.01,4.36-.46,.25-.35-.14-.35-.33,0-1.1,0-2.87,0-4.02,0-.08-.06-.14-.14-.14h-.2c-.08,0-.14,.06-.14,.14,0,1.48,0,3.6,.02,5.04,.01,.64,.17,1.26,.7,1.69,.24,.2,.28,.42,.27,.7-.08,1.56-.15,3.12-.22,4.68-.1,2.22-.21,4.44-.29,6.66-.03,.84,.48,1.4,1.18,1.39,.71,0,1.17-.56,1.18-1.41,0-.3,0-.6-.02-.9-.16-3.3-.32-6.6-.48-9.89-.03-.53-.09-1.05,.43-1.45Z"/>
  </g>
</svg>