<?xml version="1.0" encoding="UTF-8"?>
<svg id="Layer_1" data-name="Layer 1" xmlns="http://www.w3.org/2000/svg" viewBox="0 0 43 43">
  <defs>
    <style>
      .cls-1 {
        fill: #aeb2b2;
      }

      .cls-2 {
        fill: #fff;
        stroke: #aeb2b2;
        stroke-miterlimit: 10;
      }
    </style>
  </defs>
  <rect class="cls-2" x="2.46" y="2.52" width="38.09" height="37.96" rx="8" ry="8"/>
  <g>
    <path class="cls-1" d="M17.13,21.16c-.08,.68-.14,1.33-.23,1.98-.01,.1-.14,.21-.24,.28-2.43,1.76-3.01,5.06-1.31,7.53,1.24,1.8,3.47,2.67,5.65,2.21,2.11-.45,3.8-2.21,4.17-4.34,.52-2.94-1.36-5.71-4.28-6.31-.07-.01-.14-.03-.25-.06,.06-.57,.12-1.15,.18-1.72,2.29,.12,5.59,2.22,6.16,6.07,.56,3.78-2.03,7.45-5.76,8.13-3.91,.72-7.63-1.7-8.46-5.52-.86-3.95,1.6-7.25,4.36-8.26Z"/>
    <path class="cls-1" d="M20.98,16.73c-.11,1.05-.24,2.18-.36,3.3-.16,1.43-.32,2.85-.47,4.28-.1,.91-.82,1.54-1.69,1.45-.86-.09-1.45-.83-1.36-1.73,.27-2.53,.55-5.05,.83-7.57,.1-.85,.82-1.42,1.66-1.35,.79,.06,1.4,.74,1.39,1.63Z"/>
    <path class="cls-1" d="M26.34,24.07c.76,.09,1.48,.12,2.17,.28,.59,.13,.95,.59,1.03,1.2,.16,1.24,.29,2.48,.43,3.73,.14,1.28,.3,2.56,.42,3.84,.03,.33,.02,.69-.09,1-.22,.65-.89,1.02-1.58,.94-.68-.08-1.25-.6-1.33-1.28-.15-1.17-.27-2.34-.39-3.51-.01-.11,0-.22,.04-.32,.54-1.95,.36-3.82-.58-5.62-.03-.06-.06-.13-.11-.26Z"/>
    <path class="cls-1" d="M20.98,8c1.64,0,2.96,1.33,2.96,2.97,0,1.63-1.35,2.96-2.98,2.95-1.62,0-2.94-1.33-2.95-2.96,0-1.64,1.32-2.97,2.97-2.97Z"/>
    <path class="cls-1" d="M16.92,20.87c-.5,.28-.98,.55-1.49,.84-.05-.32-.09-.63-.14-.95-.27-1.99-.54-3.98-.81-5.96-.01-.11-.03-.22-.04-.33-.04-.48,.27-.88,.73-.95,.45-.07,.9,.22,.98,.69,.09,.56,.15,1.13,.17,1.7,.03,1.54,.35,3.05,.56,4.57,.02,.13,.04,.25,.05,.39Z"/>
    <path class="cls-1" d="M17.27,19.32c-.08-.53-.17-1.05-.24-1.58-.05-.38-.13-.77-.1-1.15,.07-1.25,1.09-2.25,2.29-2.32,1.32-.08,2.45,.78,2.67,2.06,.24,1.45,.44,2.91,.66,4.36,0,.03,0,.05,0,.1-.55-.14-1.1-.28-1.67-.43,.06-.57,.13-1.14,.19-1.72,.07-.67,.17-1.33,.2-2,.04-.74-.43-1.43-1.1-1.7-.71-.29-1.48-.13-2.01,.41-.29,.29-.45,.65-.5,1.05-.1,.9-.2,1.81-.3,2.71,0,.06-.02,.12-.03,.18-.01,0-.03,0-.04,0Z"/>
  </g>
</svg>