<?xml version="1.0" encoding="UTF-8"?>
<svg id="Layer_1" data-name="Layer 1" xmlns="http://www.w3.org/2000/svg" viewBox="0 0 43 43">
  <defs>
    <style>
      .cls-1 {
        fill: #aeb2b2;
      }

      .cls-2 {
        fill: #fff;
        stroke: #aeb2b2;
        stroke-miterlimit: 10;
      }
    </style>
  </defs>
  <rect class="cls-2" x="2.46" y="2.52" width="38.09" height="37.96" rx="8" ry="8"/>
  <g>
    <g>
      <path class="cls-1" d="M10.97,29c0,1.8,1.46,3.26,3.26,3.26s3.26-1.46,3.26-3.26v-2.94h-6.52v2.94Z"/>
      <path class="cls-1" d="M17.5,15.38c0-1.8-1.46-3.26-3.26-3.26s-3.26,1.46-3.26,3.26v.82h6.52v-.82Z"/>
      <rect class="cls-1" x="10.97" y="17.91" width="6.52" height="6.44"/>
    </g>
    <g>
      <path class="cls-1" d="M25.08,26.06v2.47c-.14-.02-.27-.02-.4-.02-2.06,0-3.78,1.54-4.03,3.53-1.22-.47-2.09-1.65-2.09-3.04v-2.94h6.52Z"/>
      <path class="cls-1" d="M25.08,15.38c0-1.8-1.46-3.26-3.26-3.26s-3.26,1.46-3.26,3.26v.82h6.52v-.82Z"/>
      <rect class="cls-1" x="18.56" y="17.91" width="6.52" height="6.44"/>
    </g>
    <path class="cls-1" d="M24.67,35.14c-1.41,0-2.56-1.15-2.56-2.56s1.15-2.56,2.56-2.56,2.56,1.15,2.56,2.56-1.15,2.56-2.56,2.56Zm0-4.35c-.99,0-1.79,.8-1.79,1.79s.8,1.79,1.79,1.79,1.79-.8,1.79-1.79-.8-1.79-1.79-1.79Z"/>
    <path class="cls-1" d="M28.02,31.61c-.11,0-.23-.03-.33-.11-.26-.18-.32-.54-.13-.8,6.9-9.64,2.15-17.69-.21-20.7-.5-.64-1.26-1.01-2.07-1.01h0l-13.99,.05h0c-.31,0-.57-.25-.57-.57,0-.32,.25-.57,.57-.57l13.99-.05h.01c1.16,0,2.24,.53,2.96,1.45,2.52,3.22,7.59,11.8,.25,22.07-.11,.16-.29,.24-.47,.24Z"/>
    <rect class="cls-1" x="13.84" y="8.53" width="1.14" height="2.07"/>
    <rect class="cls-1" x="21.55" y="8.53" width="1.14" height="2.07"/>
  </g>
</svg>