<?xml version="1.0" encoding="UTF-8"?>
<svg id="Layer_1" data-name="Layer 1" xmlns="http://www.w3.org/2000/svg" viewBox="0 0 43 43">
  <defs>
    <style>
      .cls-1 {
        fill: #aeb2b2;
      }

      .cls-2 {
        fill: #fff;
        stroke: #aeb2b2;
        stroke-miterlimit: 10;
      }
    </style>
  </defs>
  <rect class="cls-2" x="2.46" y="2.52" width="38.09" height="37.96" rx="8" ry="8"/>
  <g>
    <path class="cls-1" d="M17.18,25.52c-.79-.1-1.51-.19-2.24-.28-3.03-.38-6.06-.76-9.09-1.15-.51-.06-.87-.48-.85-.96,.02-.5,.39-.84,.93-.87,.32-.01,.64-.03,.99-.04-.03-.14-.05-.26-.08-.38-.44-2.2-.88-4.41-1.31-6.61-.07-.37,0-.47,.37-.49,.37-.02,.73-.07,1.1-.05,.8,.05,1.41,.44,1.84,1.12,.95,1.51,1.92,3.01,2.85,4.53,.23,.37,.48,.49,.92,.49,6.18-.11,12.35-.19,18.53-.31,1.29-.02,2.53,.16,3.75,.55,1.04,.33,1.91,.96,2.68,1.72,.56,.55,.57,1.26,.05,1.86-.5,.57-1.13,.85-1.88,.85-2.1,0-4.2,.01-6.29,.02-1.28,0-2.57,0-3.85,.01-.11,0-.22,.02-.32,.06-2.67,.96-5.35,1.93-8.02,2.89-.6,.22-1.22,.32-1.86,.3-.6-.01-1.2-.04-1.8-.05-.14,0-.3,0-.31-.17,0-.1,.08-.23,.16-.3,1.16-.85,2.33-1.7,3.49-2.54,.07-.05,.14-.11,.25-.19Zm11.19-2.92c-.09,.3,.07,.61,.36,.7,.28,.09,.59-.08,.68-.36,.09-.29-.06-.59-.35-.69-.3-.1-.61,.05-.7,.35Zm2.9-.36c-.29-.09-.59,.06-.68,.35-.1,.3,.06,.61,.36,.7,.28,.09,.6-.07,.69-.35,.1-.29-.07-.61-.36-.7Zm-4.09,.69c.09-.29-.06-.59-.35-.68-.3-.1-.61,.07-.7,.36-.09,.28,.08,.6,.36,.69,.3,.1,.6-.07,.7-.36Zm-8.9,0c.09-.29-.07-.59-.36-.68-.3-.09-.61,.07-.7,.37-.09,.3,.09,.61,.38,.69,.29,.08,.59-.09,.67-.37Zm3.76,.37c.29,.09,.61-.08,.69-.38,.08-.29-.08-.59-.37-.68-.3-.09-.6,.07-.69,.37-.08,.29,.08,.59,.37,.68Zm-1.52-.37c.09-.29-.07-.59-.36-.68-.3-.1-.61,.06-.7,.36-.09,.29,.07,.59,.36,.69,.29,.09,.61-.07,.7-.37Zm4.45,0c.09-.29-.06-.59-.34-.69-.3-.1-.61,.05-.7,.35-.09,.28,.06,.6,.34,.69,.29,.1,.61-.06,.7-.35Zm-9.26-.68c-.29-.09-.59,.05-.69,.34-.1,.3,.05,.61,.35,.71,.28,.09,.6-.07,.69-.35,.1-.3-.06-.61-.35-.7Z"/>
    <polygon class="cls-1" points="22.57 19.52 16.9 19.52 14.29 14.22 16.09 14.22 22.57 19.52"/>
  </g>
</svg>