<svg id="Layer_1" data-name="Layer 1" xmlns="http://www.w3.org/2000/svg" viewBox="0 0 803.24 1030.39"><defs><style>.cls-1{fill:#56707f;}.cls-2{fill:#ff9000;}.cls-3{fill:#fff;}</style></defs><title>download icon</title><path class="cls-1" d="M911.77,274.92,709.61,55l-4.06-4.37H283.44A86.41,86.41,0,0,0,197,137V919.78a86.41,86.41,0,0,0,86.42,86.42H520.24l-29-40.56H283.44a45.93,45.93,0,0,1-45.86-45.86V137a45.93,45.93,0,0,1,45.86-45.86H669.05V245.28a70.3,70.3,0,0,0,70.2,70.2h143.2v604.3a45.67,45.67,0,0,1-45.55,45.86H826L795.4,1006.2h41.49c47.42,0,86.11-38.69,86.11-86.42V315.48Zm-172.52,0a29.83,29.83,0,0,1-29.64-29.64V114.88l146.94,160Z" transform="translate(-119.76 -50.61)"/><rect class="cls-2" y="195.69" width="486.47" height="198.93"/><path class="cls-3" d="M195,276.65c9.77-1.66,23.5-2.91,42.84-2.91,19.55,0,33.48,3.75,42.84,11.23,8.94,7.07,15,18.71,15,32.44s-4.57,25.37-12.89,33.27c-10.81,10.19-26.82,14.76-45.54,14.76a80.34,80.34,0,0,1-10.81-.62v50.12H195Zm31.4,63.63a48.38,48.38,0,0,0,10.61.83c16.84,0,27.24-8.52,27.24-22.87,0-12.9-8.94-20.59-24.75-20.59a54.26,54.26,0,0,0-13.1,1.25Z" transform="translate(-119.76 -50.61)"/><path class="cls-3" d="M311.63,276.65a283.07,283.07,0,0,1,42.84-2.91c26.62,0,43.88,4.78,57.39,15,14.56,10.81,23.71,28.07,23.71,52.82,0,26.82-9.77,45.33-23.29,56.77-14.76,12.27-37.22,18.09-64.67,18.09a274.59,274.59,0,0,1-36-2.08ZM343.45,391c2.7.63,7.07.63,11,.63,28.7.21,47.41-15.6,47.41-49.08.21-29.11-16.84-44.5-44.09-44.5a65.84,65.84,0,0,0-14.35,1.25Z" transform="translate(-119.76 -50.61)"/><path class="cls-3" d="M452.22,274.78h85.68v26H484v32h50.33v25.79H484v56.36H452.22Z" transform="translate(-119.76 -50.61)"/><path class="cls-2" d="M812.87,878.91,748,965.64l-30.26,40.56L665,1076.71c-4.37,5.93-13.42,5.62-17.78-.31L597,1006.2l-29-40.56-62.71-87.35c-5.31-7.17,0-17.47,9-17.47l56.16.31V625.9h177.2V861.44h56.47C812.87,861.44,818.18,871.74,812.87,878.91Z" transform="translate(-119.76 -50.61)"/></svg>