<?xml version="1.0" encoding="UTF-8"?>
<svg id="Layer_1" data-name="Layer 1" xmlns="http://www.w3.org/2000/svg" viewBox="0 0 43 43">
  <defs>
    <style>
      .cls-1 {
        fill: #b1b1b1;
      }

      .cls-2 {
        fill: #fff;
        stroke: #ccc;
        stroke-miterlimit: 10;
      }
    </style>
  </defs>
  <rect class="cls-2" x="2.46" y="2.52" width="38.09" height="37.96" rx="8" ry="8"/>
  <path class="cls-1" d="M20.61,25.24v-.98c-.15,0-.29,0-.44,0-.51,0-.89-.22-1.14-.66-.16-.28-.32-.55-.49-.84-.51,.24-.97,.52-1.38,.86-1.49,1.21-2.37,2.77-2.59,4.68-.07,.66-.63,.87-1.02,.73-.33-.12-.56-.42-.5-.79,.09-.58,.18-1.17,.36-1.72,.68-2.12,2.01-3.72,3.94-4.84,.02-.01,.05-.03,.07-.04,0,0,.01-.02,.03-.04-.33-.26-.68-.45-1.07-.61-.52-.21-1.06-.32-1.62-.33-.88,0-1.75,0-2.63,0-.03,0-.07,0-.12,0,0,.06,0,.11,0,.17,0,.38,0,.76,0,1.14,0,.29-.16,.46-.44,.46-.43,0-.86,0-1.29,0-.29,0-.45-.16-.45-.44,0-1.3,0-2.6,0-3.9,0-.27,.16-.42,.42-.43,.08,0,.17,0,.26,0v-1.52c-.07,0-.14,0-.2,0-1.14,0-2.28,0-3.42,0-.41,0-.67-.35-.55-.72,.08-.24,.29-.38,.6-.38,.81,0,1.62,0,2.42,0,.32,0,.64,0,.97,0,.06,0,.12,0,.2,0,0-.3,0-.58,0-.87,0-.11,0-.21,0-.32,0-.25,.17-.42,.39-.42,.23,0,.39,.17,.39,.42,0,.33,0,.67,0,1,0,.06,0,.11,0,.19,.08,0,.15,0,.23,0,1.11,0,2.23,0,3.34,0,.34,0,.57,.16,.63,.43,.08,.37-.18,.67-.58,.67-1.13,0-2.26,0-3.39,0-.07,0-.13,0-.22,0v1.52c.08,0,.16,0,.25,0,.28,0,.43,.16,.43,.43,0,.4,0,.8,0,1.2,0,.04,0,.08,.01,.13,.07,0,.13,0,.19,0,1.21,0,2.42,0,3.63,0,.81,0,1.5-.29,2.06-.87,.37-.38,.75-.75,1.13-1.13,.25-.25,.56-.38,.91-.37,1.03,0,2.06,0,3.09,0,.36,0,.66,.12,.91,.38,.4,.4,.8,.8,1.2,1.2,.53,.52,1.18,.79,1.92,.79,1.24,0,2.48,0,3.71,0,.05,0,.1,0,.18,0,0-.08,0-.16,0-.24,0-.34,0-.68,0-1.02,0-.38,.13-.51,.51-.52,.06,0,.11,0,.18,0v-1.51c-.1,0-.18,0-.27,0-1.12,0-2.24,0-3.36,0-.24,0-.43-.1-.53-.33-.09-.21-.06-.41,.09-.59,.13-.15,.3-.19,.49-.19,1.11,0,2.23,0,3.34,0,.07,0,.15,0,.25,0,0-.07,0-.12,0-.17,0-.31,0-.61,0-.92,0-.34,.14-.52,.4-.52,.25,0,.39,.19,.39,.51,0,.3,0,.6,0,.9,0,.06,0,.12,0,.2,.09,0,.16,0,.22,0,1.12,0,2.24,0,3.36,0,.2,0,.38,.04,.51,.21,.14,.18,.17,.38,.07,.59-.11,.21-.29,.31-.52,.31-1.1,0-2.2,0-3.31,0-.1,0-.2,0-.32,0v1.52c.07,0,.13,0,.2,0,.34,0,.49,.15,.49,.49,0,.62,0,1.24,0,1.87,0,.64,0,1.29,0,1.93,0,.34-.15,.49-.48,.49-.41,0-.81,0-1.22,0-.33,0-.47-.15-.48-.48,0-.37,0-.73,0-1.1,0-.06,0-.11,0-.17-.04-.01-.06-.02-.08-.02-1.01,0-2.01-.02-3.02,.03-.85,.04-1.61,.37-2.3,.87-.01,0-.02,.02-.04,.05,.17,.1,.34,.2,.5,.31,2.23,1.47,3.54,3.53,3.89,6.19,.07,.53-.21,.93-.68,.96-.41,.03-.76-.24-.81-.66-.12-1.13-.48-2.18-1.11-3.13-.7-1.06-1.62-1.87-2.75-2.45-.11-.06-.16-.03-.21,.07-.14,.24-.28,.48-.42,.72-.25,.44-.62,.66-1.12,.65-.15,0-.29,0-.44,0v.97c.06,0,.12,.01,.18,.01,.38,0,.76,0,1.14,0,.41,0,.64,.23,.64,.64,0,1.02,0,2.03,0,3.05,0,.41-.22,.63-.63,.63-1.48,0-2.96,0-4.44,0-.39,0-.62-.23-.62-.63,0-1.02,0-2.05,0-3.07,0-.4,.23-.63,.63-.63,.43,0,.87,0,1.32,0Zm2.09,2.15c-.01-.67-.56-1.19-1.23-1.18-.65,.01-1.18,.56-1.17,1.22,.01,.65,.56,1.18,1.2,1.18,.67,0,1.21-.56,1.2-1.22Z"/>
</svg>