<?xml version="1.0" encoding="UTF-8"?>
<svg id="Layer_1" data-name="Layer 1" xmlns="http://www.w3.org/2000/svg" viewBox="0 0 43 43">
  <defs>
    <style>
      .cls-1, .cls-2 {
        fill: #fff;
      }

      .cls-2, .cls-3 {
        stroke: #aeb2b2;
        stroke-miterlimit: 10;
      }

      .cls-4 {
        fill: #037ff0;
      }

      .cls-3 {
        fill: none;
      }
    </style>
  </defs>
  <rect class="cls-2" x="2.46" y="2.52" width="38.09" height="37.96" rx="8" ry="8"/>
  <path class="cls-4" d="M2.22,8.59l.22,26.45,37.92-.08V8.07H2.73c-.29,0-.52,.23-.52,.52Z"/>
  <g>
    <path class="cls-1" d="M39.2,18.13c.19-.17-8.16,5.53-10.18,2.9-.95-1.3-.34-3.11,.26-4.58,.09-.21-.16-.4-.34-.26-3.5,2.65-8.83,6.82-10.62,5.61-1.05-.77-.35-2.34-.07-2.92,.03-.05-.04-.1-.09-.06-.92,.73-6.08,5.14-14.26,5.23-.13,0-.15,.18-.02,.19,2.38,.33,7.49,.81,11.5-.53,0,0-1.08,6.43,10.17-3,0,0-2.4,12.15,13.64-2.59h0Z"/>
    <path class="cls-1" d="M22.6,34.71c-7.29,0-13.21-5.93-13.21-13.21s5.93-13.21,13.21-13.21,13.21,5.93,13.21,13.21-5.93,13.21-13.21,13.21Zm0-24.67c-6.32,0-11.46,5.14-11.46,11.46s5.14,11.46,11.46,11.46,11.46-5.14,11.46-11.46-5.14-11.46-11.46-11.46Z"/>
  </g>
  <rect class="cls-3" x="2.46" y="2.52" width="38.09" height="37.96" rx="8" ry="8"/>
</svg>