<?xml version="1.0" encoding="UTF-8"?>
<svg id="Layer_1" data-name="Layer 1" xmlns="http://www.w3.org/2000/svg" viewBox="0 0 43 43">
  <defs>
    <style>
      .cls-1 {
        fill: #aeb2b2;
      }

      .cls-2 {
        fill: #fff;
        stroke: #aeb2b2;
        stroke-miterlimit: 10;
      }
    </style>
  </defs>
  <rect class="cls-2" x="2.46" y="2.52" width="38.09" height="37.96" rx="8" ry="8"/>
  <path class="cls-1" d="M37.43,28.3c-.08-.25-.13-.51-.24-.76-.26-.6-.66-1.1-1.21-1.45-.17-.11-.21-.23-.21-.42,0-2.43,.02-4.85,0-7.28,0-1.1-.06-2.2-.39-3.26-.55-1.78-1.47-3.31-3.07-4.34-.94-.6-1.96-.83-3.07-.73-1.32,.13-2.38,.75-3.29,1.69-1,1.05-1.61,2.3-1.96,3.7-.17,.68-.27,1.37-.27,2.07,0,.35,.03,1.55,.04,2.11-.69-.15-1.54-.14-2.59,.1,.11-.58,.17-1,.17-1v-1.05c0-.07,0-.16,.08-.18,.33-.11,.37-.41,.41-.68,.12-.91,.16-1.83,0-2.74-.13-.8-.35-1.59-.91-2.21-.57-.65-1.3-.98-2.16-1.04-.17,0-.27-.04-.34-.23-.21-.6-.72-.85-1.27-1.02-.4-.12-.81-.19-1.23-.19-.06,0-.13-.01-.19-.04h-.97c-.3,.08-.61,.08-.92,.14-1.08,.21-2.02,.67-2.81,1.46-1,1-1.58,2.21-1.84,3.59-.09,.46-.07,.93-.02,1.39,.05,.46,.06,.93,.17,1.38,.08,.31,.19,.6,.42,.83,.09,.09,.13,.2,.13,.33,0,.47,0,.93,0,1.4,.01,1.34,.45,2.51,1.36,3.51,.51,.56,1.1,1,1.78,1.32,.11,.05,.17,.13,.17,.26,0,.46,0,.92,0,1.38,0,.19-.1,.23-.26,.23-.76,0-1.51,0-2.27,0-1.21,0-2.32,.34-3.27,1.11-.82,.67-1.39,1.51-1.67,2.53-.05,.17-.09,.34-.14,.5,0,.94,0,1.88,0,2.82,0,.11,.02,.14,.14,.14,10.52,0,21.05,0,31.58,0,.11,0,.14-.02,.14-.14,0-1.74,0-3.48,0-5.23Zm-13.1-11.39c.1-1.02,.35-1.98,.78-2.91,.39-.83,.91-1.57,1.59-2.18,.57-.51,1.22-.9,1.97-1.08,.89-.22,1.77-.17,2.62,.19,1.42,.6,2.33,1.69,2.99,3.04,.3,.6,.5,1.24,.65,1.89,.13,.56,.21,1.13,.2,1.71,0,1.02-.03,2.05,0,3.07,.05,1.57,.02,3.15,.03,4.72,0,.31-.01,.32-.31,.24-.25-.06-.5-.08-.75-.08-.77,0-1.55,0-2.33,0-.17,0-.22-.06-.21-.21,0-.36,0-.71,0-1.07,0-.14,.05-.22,.18-.29,1.32-.65,2.17-1.69,2.53-3.12,.11-.43,.15-.87,.15-1.3,0-1.1,0-2.19,0-3.28,0-.28-.08-.53-.27-.73-.13-.13-.28-.21-.48-.23-.71-.07-1.43-.1-2.12-.32-.81-.25-1.56-.62-2.13-1.28-.34-.4-.72-.46-1.17-.19-.95,.56-1.9,1.13-2.85,1.7-.24,.14-.35,.36-.35,.63v2.02h0v1.04c.04,.56,.14,1.07,.25,1.53-.28-.24-.6-.45-1-.6-.01-.68-.05-2.29,.02-2.89Zm4.13,7.63c0-.27,.03-.28,.29-.23,.47,.09,.94,.17,1.42,.08,.21-.04,.44-.03,.65-.11,.13-.05,.19,.03,.19,.16v.71c.03,.25-.04,.53,.04,.8,.04,.11-.06,.15-.14,.18-.19,.09-.39,.15-.59,.17-.55,.04-1.11,.06-1.64-.16-.17-.07-.27-.13-.24-.37,.05-.41,.02-.83,.02-1.24Zm1.29-.71c-.81,0-1.57-.22-2.25-.67-1.4-.64-1.84-4.22-1.84-4.22v-2.9c0-.2,.04-.35,.24-.47,.85-.5,1.7-1.01,2.55-1.51,.32-.19,.4-.17,.64,.1,.49,.55,1.1,.91,1.78,1.18,.84,.34,1.72,.43,2.61,.52,.29,.03,.33,.07,.33,.36v2c-.02,.57,.05,1.27-.03,1.98-.12,1.11-.62,2.01-1.49,2.72-.74,.6-1.6,.9-2.55,.91Zm-1.88,1.43c0,.18-.06,.26-.25,.26-.27,0-.55,0-.81,0-.14,0-.19-.05-.18-.18,.01-.38-.02-.75,.04-1.13,.05-.28,.02-.57,.04-.91,.29,.23,.55,.45,.87,.57,.24,.09,.31,.25,.3,.49-.02,.3-.01,.59,0,.89Zm-3.19-4.7c1.31,.76,1.4,2.73,1.4,2.73,.01,.21,.01,.41,0,.61-.01,.15-.09,.14-.18,.06-.28-.24-.54-.49-.76-.78-.03-.04-.05-.07-.08-.11-.28-.34-.49-.35-.81-.05-.69,.65-1.51,.8-2.41,.65-.63-.11-1.26-.22-1.91-.13-.13,.02-.18-.03-.2-.12,.64-.6,1.06-2.02,1.31-3.14,.55-.09,2.52-.37,3.64,.28Zm-3.6,7.43c-.85-.75-1.23-1.7-1.28-2.81,0-.26,0-.53,0-.79,0-.18,.08-.26,.25-.27,.14,0,.28,0,.43,0,.4-.02,.78,.07,1.17,.13,1.03,.15,2.02,.08,2.84-.66,.09-.09,.16-.07,.24,.02,.34,.42,.73,.77,1.17,1.07,.09,.06,.14,.13,.14,.24,.02,1.25-.37,2.33-1.36,3.14-1.06,.87-2.58,.83-3.6-.06Zm2.78,1.37c0,.48-.35,.84-.83,.84-.43,0-.78-.33-.8-.74,0-.17,.06-.25,.22-.23,.32,.05,.63,.04,.94,0,.08-.01,.17-.02,.25-.04,.16-.06,.21,.01,.21,.16Zm-6.01-3.66c0-.21,0-.43,0-.64,0-.14,.05-.23,.19-.28,.35-.14,.67-.33,.98-.54,.04-.03,.09-.09,.15-.06,.05,.03,.03,.09,.03,.15,0,.37,0,.74,.03,1.1,.02,.3,.07,.6,.15,.89,.06,.19,.02,.24-.17,.24-.37,0-.75,0-1.12,0-.18,0-.24-.07-.23-.25,0-.21,0-.41,0-.62Zm-7.78-8.14c-.06,0-.07-.07-.09-.11-.1-.21-.15-.45-.16-.68-.02-.63-.16-1.26-.09-1.89,.07-.63,.25-1.23,.51-1.8,.5-1.08,1.21-1.96,2.27-2.52,.49-.26,1.01-.42,1.56-.51,.4-.06,.8-.07,1.33-.08,.43-.02,.98,.03,1.52,.17,.22,.06,.43,.15,.62,.27,.3,.19,.38,.45,.25,.89-.07,.24-.06,.26,.2,.21,1.1-.24,2,.09,2.66,1,.3,.41,.43,.91,.53,1.4,.18,.87,.13,1.74,.08,2.61,0,.06-.01,.11-.03,.17-.06,.2-.09,.22-.28,.13-1.2-.55-1.95-1.47-2.25-2.75-.02-.08-.04-.16-.06-.25-.04-.24-.08-.25-.31-.16-.92,.38-1.87,.68-2.84,.89-.92,.21-1.85,.31-2.78,.36-.41,.02-.82,.04-1.18,.26-.42,.26-.64,.68-.85,1.1-.19,.38-.32,.79-.52,1.17-.02,.04-.03,.1-.08,.1Zm.71,4.01c-.21-.49-.32-1.01-.32-1.55,0-.58,0-1.15,0-1.73,0-.09-.01-.19,.04-.26,.3-.48,.47-1.02,.72-1.53,.06-.12,.12-.24,.19-.36,.23-.41,.57-.6,1.04-.62,.78-.02,1.56-.11,2.33-.24,1.09-.18,2.14-.47,3.17-.85,.14-.06,.2-.01,.24,.12,.4,1.24,1.19,2.15,2.35,2.73,.13,.06,.19,.15,.19,.3,0,.4,0,.81,0,1.21-.27,2.95-1.66,4.6-1.66,4.6-.03,.05-.07,.1-.13,.14-1.06,.85-2.29,1.26-3.63,1.17-2.1-.15-3.69-1.15-4.55-3.14Zm6.89,5.61s.11-.02,.14,.04c.02,.06-.04,.09-.07,.13-.38,.41-.81,.75-1.35,.91-.6,.18-1.19,.12-1.76-.13-.45-.2-.85-.46-1.22-.78-.04-.04-.1-.06-.09-.12,.02-.06,.09-.04,.13-.06,.23-.06,.3-.14,.3-.38,0-.51,0-1.02,0-1.53,0-.21,.03-.23,.23-.17,.83,.24,1.68,.27,2.53,.15,.16-.02,.32-.06,.47-.09,.23-.05,.26-.02,.26,.21v.72c0,.23,0,.45,0,.68,0,.32,.09,.41,.41,.43Zm-.64,5.95c-1.78,0-3.55,0-5.32,0H6.46c-.34,0-.34,0-.34-.33,.02-.67-.05-1.33,.07-2,.13-.75,.43-1.41,.9-1.99,.57-.7,1.29-1.19,2.15-1.45,.37-.11,.75-.16,1.13-.17,.59,0,1.18,0,1.77,0,.19,0,.34,.06,.46,.19,.43,.46,.93,.84,1.48,1.15,.52,.28,1.08,.45,1.67,.44,.77-.01,1.44-.31,2.02-.82,.27-.25,.51-.52,.74-.8,.09-.11,.19-.16,.33-.16,.23,0,.45,0,.68,0,.13,0,.22,.05,.28,.16,.4,.72,.96,1.26,1.71,1.62,.09,.04,.15,.1,.13,.21-.02,.11-.12,.1-.2,.11-.41,.02-.82,0-1.24,.06-.81,.13-1.49,.51-2.03,1.12-.62,.69-.93,1.51-.9,2.45,0,.19-.07,.23-.23,.23Zm10.94,0c-1.64,0-3.29,0-4.93,0h-4.85c-.34,0-.34,0-.34-.35,.01-1.38,.98-2.58,2.33-2.85,.46-.09,.94-.08,1.42-.06,.09,0,.15,.06,.19,.14,.21,.43,.55,.68,1.02,.77,.55,.11,1.19-.21,1.44-.7,.09-.18,.2-.23,.39-.23,.49,.01,.97,0,1.45,.12,1.28,.35,2.15,1.5,2.15,2.89,0,.19-.07,.25-.26,.25Zm8.9-.27c0,.25-.02,.27-.28,.27h-7.5c-.28,0-.31,0-.29-.3,.07-1.49-1-2.88-2.32-3.34-.36-.12-.73-.19-1.1-.2-.23,0-.47,0-.7,0-.09,0-.22,.03-.25-.11-.03-.13-.01-.25,.13-.33,.64-.36,1.13-.88,1.49-1.52,.17-.3,.3-.62,.38-.97,.04-.16,.12-.21,.29-.23,.44-.04,.8,.07,1.18,.31,.81,.51,1.72,.59,2.64,.43,.42-.07,.82-.24,1.15-.53,.17-.15,.34-.22,.57-.22,.7,0,1.4-.04,2.1,.02,.91,.08,1.6,.54,2.09,1.3,.29,.45,.4,.96,.41,1.48,.02,1.31,0,2.63,0,3.94Z"/>
</svg>