<?xml version="1.0" encoding="UTF-8"?>
<svg id="Layer_1" data-name="Layer 1" xmlns="http://www.w3.org/2000/svg" viewBox="0 0 43 43">
  <defs>
    <style>
      .cls-1 {
        fill: #aeb2b2;
      }

      .cls-2 {
        fill: #fff;
        stroke: #aeb2b2;
        stroke-miterlimit: 10;
      }
    </style>
  </defs>
  <rect class="cls-2" x="2.46" y="2.52" width="38.09" height="37.96" rx="8" ry="8"/>
  <g>
    <g>
      <path class="cls-1" d="M19.35,19.5c.19,.04,.38,.08,.56,.12,.86,.2,1.66,.53,2.35,1.08,.86,.68,1.4,1.57,1.71,2.61,.11,.37,.18,.74,.25,1.12,.03,.15,0,.32,0,.47,.02,.53-.09,1.04-.25,1.54-.42,1.3-1.19,2.34-2.36,3.06-.91,.56-1.91,.78-2.98,.74-.9-.03-1.76-.24-2.53-.73-1.5-.95-2.41-2.3-2.56-4.08-.16-1.96,.52-3.6,2.04-4.86,.76-.63,1.66-.96,2.65-1.06,.03,0,.06-.01,.09-.02,.33,0,.67,0,1,0Zm1.92,10.03c.1-.23,.16-.31,.31-.37,.1-.04,.21-.07,.32-.08,.07,0,.11-.03,.14-.1,.12-.31,.34-.51,.66-.6,.06-.02,.08-.05,.08-.11,0-.21,.07-.39,.25-.51,.07-.05,.15-.07,.22-.11,.02-.01,.06-.05,.05-.07-.01-.3,.12-.52,.38-.67,.05-.03,.06-.05,.05-.11-.07-.28-.03-.52,.19-.73,.02-.02,.02-.06,.02-.08,0-.27-.03-.54-.03-.8,0-.39,0-.77,.01-1.16,0-.04-.02-.09-.04-.11-.19-.2-.25-.43-.17-.69,0-.02,0-.06-.02-.07-.24-.17-.32-.41-.3-.69,0-.02-.02-.06-.04-.06-.32-.11-.46-.27-.46-.6,0-.17-.06-.23-.21-.28-.29-.1-.49-.29-.56-.61,0-.02-.05-.04-.07-.05-.2-.02-.37-.09-.51-.24-.07-.07-.13-.15-.19-.24-.03-.04-.05-.05-.1-.03-.16,.06-.32,.03-.45-.07-.07-.06-.12-.15-.19-.23-.33,.08-.65,.06-.89-.25-.13,.11-.27,.13-.43,.12-.15-.01-.29-.02-.44-.04-.08,0-.14,0-.19,.08-.03,.05-.09,.09-.15,.12-.08,.04-.17,.08-.25,.12-.12,.05-.23,.11-.3,.23-.01,.02-.05,.04-.08,.04-.1,0-.21,0-.32,0-.05,.28-.28,.35-.53,.41,.05,.18,.06,.34-.02,.5-.08,.16-.22,.25-.41,.26,.03,.05,.05,.09,.06,.13,.12,.29,.02,.62-.26,.83-.03,.02-.06,.04-.05,.1,.09,.29,0,.55-.19,.78-.06,.08-.14,.14-.21,.21,.15,.25,.16,.33,.07,.58-.02,.07-.05,.13-.08,.2-.03,.08-.06,.17-.09,.25-.04,.16-.03,.31,.07,.45,.04,.05,.08,.06,.13,.03,.1-.05,.17-.13,.18-.24,0-.12,0-.24,0-.36,0-.08-.03-.16-.05-.23,.26-.05,.49,.1,.56,.35,.09,.33-.08,.61-.45,.74,.45,.12,.58,.82,.16,1.06,.26,.13,.27,.35,.22,.6-.03,.15-.06,.3-.09,.45-.03,.16-.01,.19,.14,.26,.05,.02,.09,.04,.14,.06,.1,.03,.2,.06,.3,.09,.09,.03,.18,.07,.25,.12,.15,.1,.24,.42,.04,.56-.03,.02-.05,.07-.07,.11,0,.02,0,.05,0,.06,.11,.06,.14,.17,.19,.27,.02,.05,.05,.06,.1,.05,.15-.03,.29-.02,.43,.04,.2,.1,.29,.28,.24,.5,0,.03-.02,.07-.03,.1,.57,.28,1.15,.18,1.72,.06-.01-.11-.05-.15-.14-.14-.07,0-.14,.02-.21,.02-.04,0-.07,0-.11,0,0-.01,0-.02,0-.03,.3-.16,.57-.05,.84,.11,.12-.26,.42-.39,.81-.28Zm-5.28-2.92c-.11,.18-.07,.47,.07,.6,.03,.03,.08,.05,.12,.07,.06,.03,.09,0,.11-.06,.05-.19-.01-.41-.17-.53-.04-.03-.09-.05-.14-.08Zm-.13-.68c.03,.11,.05,.2,.08,.3,.02,.07,.08,.06,.13,.05,.03,0,.07-.03,.07-.06,.03-.11,.06-.22,.06-.34,0-.08-.04-.16-.08-.22-.06-.08-.14-.06-.18,.02-.04,.08-.06,.17-.09,.25Zm1.67,3.49c0,.17,.22,.35,.39,.32,.12-.03,.17-.15,.1-.25-.08-.11-.18-.18-.31-.21-.13-.03-.18,.01-.18,.14Zm-.42-.97c0-.12-.06-.24-.17-.31-.05-.03-.13-.04-.2-.05-.01,0-.04,.02-.05,.04-.06,.17,.06,.42,.23,.48,.14,.05,.19,.02,.19-.16Zm-1.19-.92c-.03,.17-.03,.34,.08,.48,.04,.06,.12,.1,.19,.13,.04,.02,.09,0,.09-.06,0-.08,.01-.17,0-.25-.04-.19-.17-.3-.35-.31Zm-.59-3.08c.22-.08,.35-.5,.24-.75-.23,.04-.37,.46-.24,.75Zm.54-1.91c-.27,.16-.29,.44-.39,.67,.13,.04,.22,0,.29-.11,.1-.17,.12-.35,.1-.56Zm-.55,3.17c-.11,.02-.15,.1-.17,.24-.02,.24,.04,.46,.17,.51,.08-.25,.05-.5,0-.75Zm-.05-.25c.13-.14,.16-.6,.05-.76-.18,.08-.22,.57-.05,.76Zm.7-3.11c.24-.12,.36-.41,.24-.61-.18,.1-.4,.41-.24,.61Zm1.18,6.91c.03-.26-.2-.44-.47-.37,0,.21,.19,.35,.47,.37Zm-1.18-.86c-.02,.26,.13,.45,.36,.47,.04-.22-.13-.43-.36-.47Zm-.44-.93c-.02-.27-.12-.56-.27-.56,0,.31,.08,.53,.27,.56Zm-.72-3.49c.07-.25,.13-.48,.19-.72-.21,.08-.34,.53-.19,.72Zm.89-2.3s.02,0,.03,0c.09-.15,.31-.23,.29-.46-.14,.02-.34,.2-.35,.33,0,.04,.02,.09,.03,.14Zm-.29,.35c-.06,.09-.11,.17-.16,.25-.04,.06-.08,.11-.11,.18-.03,.07-.02,.13,.06,.18,.1-.19,.3-.34,.21-.61Zm-.76,3c.02-.21,.14-.4,.1-.61-.2,.06-.26,.44-.1,.61Zm2.73-4.72c-.15,.04-.28,.1-.35,.23-.02,.04,0,.1-.01,.17,.18-.1,.34-.18,.36-.4Zm.29,.04c.21,.02,.35-.09,.33-.27-.19-.02-.33,.08-.33,.27Zm-1.25,1.05c.22-.05,.37-.28,.28-.42-.1,.14-.25,.23-.28,.42Zm-1.77,4.67c.08-.15,.06-.36-.04-.46-.09,.13-.07,.37,.04,.46Zm3.88-6.18c-.17-.02-.29,.03-.31,.13,.15,.04,.27-.01,.31-.13Zm-2.11,.84c.15-.02,.21-.13,.29-.24-.15,.03-.23,.11-.29,.24Z"/>
      <path class="cls-1" d="M16.25,24.08c.16-.18,.18-.4,.21-.62,.01-.09,.03-.18,.05-.27,0-.05,.04-.06,.08-.06,.2,0,.36,.14,.4,.34,.03,.19,0,.37-.13,.52-.15,.19-.42,.23-.61,.08Z"/>
      <path class="cls-1" d="M17.11,25.15c.38-.06,.62,.19,.52,.56-.03,.09-.07,.18-.13,.26-.15,.19-.39,.2-.59,.04,.22-.24,.37-.51,.2-.85Z"/>
      <path class="cls-1" d="M17.17,23.9c.26-.12,.48,0,.53,.27,.03,.2-.01,.38-.14,.53-.13,.15-.29,.2-.49,.15,.27-.3,.28-.62,.1-.96Z"/>
      <path class="cls-1" d="M16.93,21.93c.15-.22,.42-.35,.43-.65,.27,0,.4,.2,.31,.44-.05,.13-.13,.23-.25,.3-.17,.1-.34,.07-.49-.08Z"/>
      <path class="cls-1" d="M16.88,22.28c.32-.04,.5,.17,.4,.46-.11,.31-.43,.43-.69,.24,.17-.2,.37-.39,.29-.7Z"/>
      <path class="cls-1" d="M17.26,23.56c.28-.22,.49-.46,.34-.84,.15,0,.28,.08,.33,.22,.07,.19,0,.45-.17,.59-.14,.12-.33,.13-.5,.02Z"/>
      <path class="cls-1" d="M17.55,22.46c.26-.12,.52-.25,.48-.6,.21,.02,.34,.19,.3,.38-.08,.34-.49,.49-.74,.26-.01,0-.02-.02-.03-.04Z"/>
      <path class="cls-1" d="M18.14,23.43c.21-.11,.41-.01,.46,.21,.03,.15,0,.29-.06,.42-.12,.22-.35,.28-.58,.13,.06-.04,.11-.08,.16-.13,.06-.05,.13-.1,.17-.17,.1-.16,.05-.33-.11-.43-.02,0-.03-.02-.05-.03Z"/>
      <path class="cls-1" d="M18.05,28.45c.24-.27,.02-.59-.28-.67,.08-.13,.24-.18,.39-.12,.18,.08,.32,.32,.3,.51-.02,.18-.17,.29-.4,.27Z"/>
      <path class="cls-1" d="M17.08,27.88c.05-.24,.07-.46-.12-.63,.25-.14,.55,.02,.6,.32,.03,.22,.03,.23-.2,.29-.08,.02-.18,.01-.27,.02Z"/>
      <path class="cls-1" d="M17.88,25.44c.32-.25,.37-.44,.25-.86,.15,.03,.25,.13,.3,.26,.06,.17,.06,.34-.07,.49-.12,.14-.29,.15-.47,.11Z"/>
      <path class="cls-1" d="M17.01,26.29c.12-.06,.23-.05,.33,.04,.15,.14,.2,.31,.16,.51-.04,.19-.22,.27-.44,.21,.14-.1,.18-.24,.16-.39-.01-.15-.06-.29-.22-.37Z"/>
      <path class="cls-1" d="M17.94,26.69c.26-.24,.28-.57,.04-.77,.12-.07,.26-.04,.35,.07,.12,.16,.11,.45-.03,.6-.1,.1-.22,.12-.36,.1Z"/>
      <path class="cls-1" d="M18.01,26.85c.24-.05,.36,.05,.34,.28-.01,.15-.07,.27-.18,.37-.14,.12-.33,.1-.46-.06,.07-.02,.14-.04,.21-.06,.08-.03,.19-.03,.21-.13,.03-.13,.03-.27-.07-.38-.01-.01-.03-.02-.04-.03Z"/>
      <path class="cls-1" d="M17.84,28.59c.05-.07,.12-.09,.19-.07,.13,.04,.26,.1,.39,.16,.02,0,.03,.03,.04,.05,.02,.2-.04,.36-.29,.36-.03,0-.06,0-.09,0,.06-.31,0-.42-.24-.49Z"/>
      <path class="cls-1" d="M19.67,23.17c.14,.02,.23,.11,.27,.25,.05,.18-.02,.38-.16,.49-.12,.1-.3,.1-.45,0,.17-.04,.31-.13,.38-.28,.08-.16,.06-.32-.05-.47Z"/>
      <path class="cls-1" d="M18.45,23.17c.1-.04,.21-.06,.31-.12,.24-.13,.28-.28,.15-.52,.14-.03,.24,.05,.25,.19,.02,.22-.17,.48-.38,.54-.13,.03-.25,0-.33-.09Z"/>
      <path class="cls-1" d="M18.79,24.88c.12-.06,.22-.11,.33-.16,.07-.04,.1-.1,.1-.18,0-.16-.02-.31-.17-.41,.12-.05,.24,0,.3,.11,.11,.2,0,.55-.19,.67-.12,.07-.24,.05-.37-.02Z"/>
      <path class="cls-1" d="M18.7,26.08c.35-.1,.48-.59,.15-.78,.14-.05,.26,0,.33,.14,.08,.17,.04,.44-.08,.58-.1,.11-.23,.13-.4,.06Z"/>
      <path class="cls-1" d="M19.06,27.89c.14-.33,.08-.54-.18-.63,.08-.08,.2-.09,.31-.03,.15,.09,.24,.31,.19,.48-.02,.08-.21,.18-.32,.17Z"/>
      <path class="cls-1" d="M19.62,24.73c.13-.05,.25-.02,.31,.11,.09,.17,.09,.35,0,.52-.07,.12-.19,.16-.35,.14,.05-.06,.09-.11,.13-.16,.09-.11,.15-.24,.08-.38-.04-.08-.11-.15-.17-.23Z"/>
      <path class="cls-1" d="M19.76,25.74c.19-.08,.35,0,.38,.2,.02,.13,0,.26-.09,.37-.09,.12-.24,.17-.35,.12,.04-.05,.08-.11,.13-.18,.03-.04,.06-.08,.09-.13,.1-.19,.06-.29-.15-.39Z"/>
      <path class="cls-1" d="M19.1,26.36c.11-.03,.22-.04,.31,.04,.08,.08,.08,.19,.06,.29-.07,.25-.31,.36-.55,.24,.05-.02,.09-.04,.13-.05,.01,0,.02,0,.03-.01,.1-.04,.21-.08,.21-.21,0-.13-.05-.24-.18-.3Z"/>
      <path class="cls-1" d="M20.2,22.35c.12,.04,.19,.11,.21,.22,.03,.17-.06,.38-.2,.48-.1,.07-.2,.07-.3,.01,.31-.21,.36-.34,.28-.71Z"/>
      <path class="cls-1" d="M20.06,21.24c.08,0,.15,0,.22,0,.07,0,.13-.02,.19-.04,.13-.04,.18-.14,.16-.28,0,0,.02,0,.03,0,.02,.03,.05,.06,.06,.1,0,.09,0,.18,0,.27,0,.02-.01,.04-.03,.05-.15,.16-.51,.12-.63-.09Z"/>
      <path class="cls-1" d="M18.01,21.61c.29-.06,.49-.21,.56-.5,.09,.06,.12,.16,.1,.26-.07,.27-.47,.38-.65,.24Z"/>
      <path class="cls-1" d="M19.78,27.5c.08-.07,.17-.08,.26-.04,.15,.06,.25,.17,.27,.33,.01,.11-.03,.19-.14,.26-.03-.05-.05-.09-.07-.14-.02-.06-.03-.12-.04-.18-.04-.18-.08-.22-.28-.24Z"/>
      <path class="cls-1" d="M19.15,29.84c-.11-.18-.29-.24-.5-.23,0,0,0-.02,0-.03,.05-.03,.09-.07,.14-.09,.15-.05,.3-.03,.43,.06,.03,.02,.06,.06,.08,.1,.03,.06,.02,.11-.05,.14-.03,.01-.06,.03-.1,.05Z"/>
      <path class="cls-1" d="M19.52,21.73c.09,.1,.1,.2,.06,.3-.1,.25-.51,.35-.73,.16,.07-.01,.13-.03,.19-.04,.07-.01,.14-.02,.21-.04,.19-.04,.29-.15,.27-.38Z"/>
      <path class="cls-1" d="M17.75,20.65c.09,.04,.1,.1,.08,.18-.06,.25-.17,.34-.43,.34-.11,0-.15-.03-.18-.14,.29,.04,.45-.1,.52-.37Z"/>
      <path class="cls-1" d="M23.17,25.93c-.09,.23-.18,.45-.26,.67-.08-.03-.13-.13-.12-.25,.02-.18,.2-.39,.38-.42Z"/>
      <path class="cls-1" d="M20.63,21.65c.13,.12,.13,.29,0,.42-.16,.16-.43,.16-.52,.04,.24-.07,.5-.12,.52-.45Z"/>
      <path class="cls-1" d="M20.07,28.91c-.02-.06-.04-.11-.05-.16-.02-.06-.03-.12-.05-.17-.04-.1-.12-.15-.24-.17,.02,0,.04-.03,.06-.03,.1,0,.2,0,.3,0,0,0,.01,0,.02,0,.08,.08,.12,.17,.12,.28,0,.1-.03,.18-.15,.23Z"/>
      <path class="cls-1" d="M19,28.6c.09-.24,.01-.36-.27-.47,.07-.07,.18-.08,.28-.03,.1,.05,.17,.14,.2,.25,.04,.15-.03,.25-.2,.25Z"/>
      <path class="cls-1" d="M20.01,27.22c.08-.36,.05-.5-.14-.62,.07-.03,.13-.03,.19,.01,.13,.08,.21,.31,.16,.46-.03,.09-.1,.14-.21,.15Z"/>
      <path class="cls-1" d="M23.3,27.02c-.2,.14-.27,.34-.33,.55-.09-.02-.14-.14-.12-.27,.04-.21,.21-.32,.44-.27Z"/>
      <path class="cls-1" d="M19.68,21.06c.04,.1,.04,.18,0,.26-.12,.2-.48,.26-.65,.11,.24-.08,.54-.05,.66-.36Z"/>
      <path class="cls-1" d="M19.14,29.38c.07-.17,.02-.26-.13-.32-.1-.04-.21-.03-.32,.02,0-.09,.06-.13,.13-.14,.19-.02,.36,.04,.5,.17,.07,.07,.06,.15-.03,.2-.04,.03-.09,.04-.16,.07Z"/>
      <path class="cls-1" d="M22.77,27.78c-.23,.13-.4,.29-.43,.55-.1-.09-.12-.24-.05-.37,.08-.16,.25-.23,.48-.18Z"/>
      <path class="cls-1" d="M18.76,20.55c.02,.28-.25,.45-.6,.34,.21-.11,.4-.23,.6-.34Z"/>
      <path class="cls-1" d="M21.18,28.66c-.21-.06-.4-.08-.59,.08,.01-.04,.02-.1,.04-.13,.09-.12,.21-.17,.36-.17,.13,0,.2,.09,.19,.23Z"/>
      <path class="cls-1" d="M23.3,24.2c0,.06,0,.11-.01,.17,0,.06-.03,.12-.04,.18-.02,.11-.01,.21,.1,.27-.07,.04-.12,.03-.17-.03-.1-.12-.12-.38-.03-.5,.03-.04,.08-.06,.11-.1,.01,0,.02,.01,.03,.02Z"/>
      <path class="cls-1" d="M21.27,29.16c-.2,.1-.45,.04-.61,.22-.03-.1,.02-.18,.16-.26,.18-.1,.35-.08,.45,.04Z"/>
      <path class="cls-1" d="M20.89,20.51c.08,.05,.16,.11,.24,.14,.07,.03,.16,.03,.24,.04,.02,0,.04,0,.05,0,0,.02,0,.05-.01,.06-.11,.15-.35,.13-.46-.03-.04-.06-.06-.14-.08-.21,0,0,.02,0,.02,0Z"/>
      <path class="cls-1" d="M23.46,26.91c-.13-.05-.18-.13-.16-.26,.02-.17,.16-.32,.35-.35-.14,.18-.23,.37-.19,.61Z"/>
      <path class="cls-1" d="M21.65,20.93c.18,.09,.25,.34,.5,.33-.1,.11-.21,.12-.33,.05-.14-.08-.21-.24-.17-.38Z"/>
      <path class="cls-1" d="M22.97,22.39c.09,.21,.11,.45,.35,.56-.09,.06-.19,.05-.27-.03-.14-.12-.17-.36-.08-.53Z"/>
      <path class="cls-1" d="M22.05,28.6c-.1,.02-.19,.04-.27,.06-.06,.01-.13,.02-.19,.05-.07,.04-.12,.1-.18,.15-.03-.06,0-.16,.11-.25,.17-.14,.39-.15,.53-.01Z"/>
      <path class="cls-1" d="M23.82,24.63c-.02,.21-.14,.39-.07,.6-.11-.02-.17-.09-.18-.2-.01-.17,.09-.34,.24-.4Z"/>
      <path class="cls-1" d="M22.96,23.1c.03,.21-.04,.44,.12,.61-.1,.04-.16,.02-.2-.05-.08-.13-.06-.42,.05-.54,0,0,.02-.01,.03-.02Z"/>
      <path class="cls-1" d="M21.62,28.29c-.08-.16-.04-.3,.07-.41,.09-.08,.28-.14,.39-.05-.22,.08-.41,.19-.47,.46Z"/>
      <path class="cls-1" d="M22.35,21.58c.09,.08,.18,.16,.26,.23,.03,.03,.07,.05,.09,.09,.02,.03,.02,.07,.04,.11-.03,0-.07,0-.1,0-.22-.05-.32-.2-.29-.43Z"/>
      <path class="cls-1" d="M19.05,19.99c.02,.11,0,.19-.08,.25-.13,.1-.27,.09-.43,.04,.17-.1,.33-.19,.5-.29Z"/>
      <path class="cls-1" d="M23.64,26.1c-.12-.04-.17-.09-.17-.2,0-.17,.09-.35,.24-.41-.03,.2-.19,.39-.07,.61Z"/>
      <path class="cls-1" d="M19.71,20.5c-.01,.15-.14,.27-.28,.26-.09,0-.19-.02-.28-.04-.03,0-.06-.02-.08-.04,.22-.03,.44-.05,.64-.18Z"/>
      <path class="cls-1" d="M19.86,20.17c-.01,.08-.07,.12-.16,.13-.13,.03-.32-.05-.4-.19,.19,.02,.38,.04,.56,.06Z"/>
      <path class="cls-1" d="M20.36,29.39c-.18-.04-.32-.24-.52-.1l-.02-.02s.04-.05,.06-.07c.12-.06,.25-.07,.38-.03,.1,.03,.13,.1,.1,.22Z"/>
      <path class="cls-1" d="M23.64,24.12s-.09,.02-.15-.02c-.13-.11-.14-.42-.02-.55,.01,.1,.01,.2,.04,.3,.03,.09,.08,.18,.12,.27Z"/>
      <path class="cls-1" d="M22.05,22.08c-.02,.08-.06,.1-.13,.07-.06-.03-.12-.05-.17-.08-.01,0-.03-.02-.03-.03-.02-.11-.04-.21-.04-.33,.13,.13,.17,.32,.37,.36Z"/>
      <path class="cls-1" d="M20.93,21.14c.18,.02,.33,.08,.46,.19-.17,.14-.41,0-.46-.19Z"/>
      <path class="cls-1" d="M20.21,20.19c.14,.12,.28,.17,.45,.15-.02,.1-.1,.14-.22,.13-.12-.01-.26-.12-.23-.28Z"/>
      <path class="cls-1" d="M20.24,24.64c.05-.14,.1-.27,.14-.4,.08,.04,.12,.16,.09,.27-.03,.1-.12,.15-.23,.12Z"/>
      <path class="cls-1" d="M20.6,28.02c.13-.2,.35-.21,.49,0h-.49Z"/>
      <path class="cls-1" d="M21.11,22.59c.07-.04,.11,0,.11,.05,0,.09,0,.18-.03,.26-.03,.1-.1,.1-.18,.02,.04-.11,.23-.17,.1-.33Z"/>
      <path class="cls-1" d="M21.41,22.01c-.07,.07-.18,.08-.27,.05-.07-.02-.12-.11-.18-.17,0,0,0-.01,.01-.02,.14,.05,.28,.09,.43,.14Z"/>
      <path class="cls-1" d="M20.01,20.65c.16,.03,.3,.05,.44,.07-.06,.12-.32,.1-.44-.07Z"/>
    </g>
    <path class="cls-1" d="M24.51,26.41c.08-.04,.14-.06,.2-.09,1.14-.56,1.94-1.45,2.45-2.6,.39-.91,.76-1.82,1.11-2.75,1.61-4.27,3.2-8.55,4.81-12.82,.02-.05,.03-.09,.05-.16h-1.23c-.03,.07-.06,.15-.09,.24-.76,2.1-1.51,4.21-2.27,6.31-.17,.48-.4,.94-.61,1.4-.04,.08-.09,.15-.13,.23-.37,.76-1.03,1.09-1.83,1.19-.64,.08-1.27,0-1.9-.1-1.43-.24-2.86-.51-4.3-.72-1.11-.17-2.22-.27-3.34-.4-.98-.11-1.96-.15-2.94-.1-.92,.04-1.82,.18-2.67,.53-.22,.09-.43,.19-.63,.3-.84,.5-1.28,1.24-1.31,2.22-.02,.61,.11,1.19,.28,1.77,.32,1.12,.94,2.05,1.79,2.85,.32,.3,.68,.57,1.02,.84,.04,.03,.09,.06,.15,.1,.15-1.91,.98-3.42,2.55-4.5,1.2-.83,2.54-1.14,3.99-.95,1.71,.23,3.06,1.08,4.02,2.51,.97,1.43,1.21,3,.84,4.7Z"/>
    <path class="cls-1" d="M19.34,33.74c.03-.63,.12-1.25,.33-1.84,.1-.29,.22-.58,.45-.8,.03-.03,.06-.08,.07-.12,0-.12,0-.24,0-.39-1.01,.26-2,.26-3,0,0,.14,0,.25,0,.37,0,.04,.02,.1,.05,.13,.29,.27,.42,.63,.52,.99,.2,.67,.28,1.36,.29,2.06,0,.29,0,.58,0,.87h1.25c0-.42,0-.84,.03-1.26Z"/>
  </g>
</svg>