<?xml version="1.0" encoding="UTF-8"?>
<svg id="Layer_1" data-name="Layer 1" xmlns="http://www.w3.org/2000/svg" viewBox="0 0 43 43">
  <defs>
    <style>
      .cls-1 {
        fill: #b1b1b1;
      }

      .cls-2 {
        fill: #fff;
        stroke: #ccc;
        stroke-miterlimit: 10;
      }
    </style>
  </defs>
  <rect class="cls-2" x="2.46" y="2.52" width="38.09" height="37.96" rx="8" ry="8"/>
  <path class="cls-1" d="M15.72,14.89c.44-3.1,2.98-5.06,5.67-5.12,2.82-.06,5.52,2.05,5.89,5.11,.25-.03,.49-.07,.74-.09,3-.3,5.72,1.76,6.26,4.73,.54,2.96-1.28,5.86-4.19,6.64-.23,.06-.3,.15-.3,.39,.01,1.77-.02,3.53,.02,5.3,.02,.9-.61,1.4-1.39,1.39-4.62-.02-9.25,0-13.87,0-.9,0-1.36-.46-1.36-1.35,0-1.79,0-3.58,0-5.37,0-.21-.06-.29-.26-.34-2.51-.68-4.22-2.83-4.31-5.44-.09-2.51,1.51-4.82,3.93-5.65,.96-.33,1.95-.39,2.96-.21,.06,.01,.13,.02,.21,.03Zm13.28,11.47c-.12,0-.2,0-.28,0-.78,.02-1.54-.11-2.27-.4-.25-.1-.36-.31-.28-.53,.08-.21,.29-.29,.54-.21,.05,.01,.09,.03,.14,.05,2.31,.85,4.94-.11,6.1-2.29,.98-1.84,.89-3.68-.35-5.37-1.24-1.69-2.97-2.31-5.04-1.96-.18,.03-.24,.1-.28,.3-.1,.59-.23,1.17-.39,1.75-.07,.27-.3,.37-.52,.29-.22-.08-.3-.3-.21-.56,.02-.07,.05-.14,.08-.21,.51-1.58,.34-3.09-.61-4.46-1.16-1.65-2.79-2.39-4.78-2.13-2.01,.27-3.37,1.43-4.07,3.33-.4,1.09-.37,2.19,0,3.28,.02,.06,.04,.11,.06,.16,.1,.28,.02,.5-.2,.58-.23,.08-.46-.02-.53-.31-.15-.59-.27-1.18-.39-1.77-.03-.14-.06-.21-.2-.23-.28-.04-.56-.1-.84-.11-2.26-.11-4.31,1.31-5.01,3.46-.69,2.12,.12,4.48,2,5.71,1.42,.93,2.94,1.09,4.54,.52,.33-.12,.54-.05,.63,.18,.09,.25-.03,.47-.37,.56-.43,.12-.87,.24-1.31,.31-.37,.06-.76,.05-1.14,.07v3.71h14.99v-3.73Zm-14.98,4.56s-.03,.06-.03,.08c0,.27,0,.55,0,.82,0,.51,.1,.61,.62,.61,4.6,0,9.2,0,13.8,0,.08,0,.17,0,.25,0,.2-.02,.34-.14,.35-.33,.02-.39,0-.78,0-1.18H14.02Z"/>
</svg>