<?xml version="1.0" encoding="UTF-8"?>
<svg id="Layer_1" data-name="Layer 1" xmlns="http://www.w3.org/2000/svg" viewBox="0 0 43 43">
  <defs>
    <style>
      .cls-1 {
        fill: #aeb2b2;
      }

      .cls-2 {
        fill: #fff;
        stroke: #aeb2b2;
        stroke-miterlimit: 10;
      }
    </style>
  </defs>
  <rect class="cls-2" x="2.46" y="2.52" width="38.09" height="37.96" rx="8" ry="8"/>
  <g>
    <path class="cls-1" d="M19.07,30.92c-.84,0-1.25,.63-1.25,1.33s.45,1.29,1.25,1.29,1.25-.6,1.25-1.33c0-.64-.41-1.3-1.25-1.3Z"/>
    <path class="cls-1" d="M32.62,29.16H10.38v.77h1.82v4.99H30.81v-4.99h1.82v-.77Zm-15.99,4.67h-.51v-1.5h-1.89v1.5h-.5v-3.2h.5v1.34h1.89v-1.34h.51v3.2Zm2.4,.05c-1.03,0-1.76-.65-1.76-1.62s.77-1.68,1.82-1.68,1.76,.67,1.76,1.62c0,1.1-.82,1.68-1.82,1.68Zm4.77-2.9h-1.19v2.85h-.51v-2.85h-1.19v-.35h2.89v.35Zm2.63,2.85h-2.2v-3.2h2.11v.35h-1.61v1.01h1.52v.34h-1.52v1.15h1.69v.35Zm2.83,0h-2.17v-3.2h.5v2.85h1.67v.35Z"/>
    <path class="cls-1" d="M10.83,20.61v7.52h3.23v-7.52h-3.23Zm2.42,2.79h-1.7v-2.21h1.7v2.21Z"/>
    <path class="cls-1" d="M28.91,20.61v7.52h3.23v-7.52h-3.23Zm2.42,2.79h-1.7v-2.21h1.7v2.21Z"/>
    <path class="cls-1" d="M15.43,16.76v11.37h3.23v-11.37h-3.23Zm2.49,6.78h-1.7v-1.63h1.7v1.63Zm0-4.37h-1.7v-1.63h1.7v1.63Z"/>
    <path class="cls-1" d="M24.42,16.76v11.37h3.23v-11.37h-3.23Zm2.49,6.78h-1.7v-1.63h1.7v1.63Zm0-4.37h-1.7v-1.63h1.7v1.63Z"/>
    <path class="cls-1" d="M19.88,12.41v15.72h3.23V12.41h-3.23Zm2.55,14.94h-1.87v-1.97h1.87v1.97Zm0-4h-1.87v-1.97h1.87v1.97Zm0-4h-1.87v-1.97h1.87v1.97Zm0-4h-1.87v-1.97h1.87v1.97Z"/>
    <polygon class="cls-1" points="12.43 16.52 12.81 17.68 14.03 17.68 13.04 18.39 13.42 19.56 12.43 18.84 11.44 19.56 11.82 18.39 10.83 17.68 12.05 17.68 12.43 16.52"/>
    <polygon class="cls-1" points="30.58 16.52 30.95 17.68 32.17 17.68 31.19 18.39 31.56 19.56 30.58 18.84 29.59 19.56 29.97 18.39 28.98 17.68 30.2 17.68 30.58 16.52"/>
    <polygon class="cls-1" points="17.06 12.29 17.44 13.45 18.66 13.45 17.67 14.17 18.05 15.33 17.06 14.62 16.07 15.33 16.45 14.17 15.46 13.45 16.68 13.45 17.06 12.29"/>
    <polygon class="cls-1" points="21.55 8.07 21.93 9.23 23.15 9.23 22.16 9.95 22.54 11.11 21.55 10.39 20.57 11.11 20.94 9.95 19.96 9.23 21.18 9.23 21.55 8.07"/>
    <polygon class="cls-1" points="26.12 12.29 26.49 13.45 27.71 13.45 26.73 14.17 27.1 15.33 26.12 14.62 25.13 15.33 25.51 14.17 24.52 13.45 25.74 13.45 26.12 12.29"/>
  </g>
</svg>