<?xml version="1.0" encoding="UTF-8"?>
<svg id="Layer_1" data-name="Layer 1" xmlns="http://www.w3.org/2000/svg" viewBox="0 0 43 43">
  <defs>
    <style>
      .cls-1 {
        fill: #aeb2b2;
      }

      .cls-2 {
        fill: #fff;
        stroke: #aeb2b2;
        stroke-miterlimit: 10;
      }
    </style>
  </defs>
  <rect class="cls-2" x="2.46" y="2.52" width="38.09" height="37.96" rx="8" ry="8"/>
  <g>
    <path class="cls-1" d="M29.63,10.87c-1.32,.22-2.48,.8-3.56,1.58-.29,.21-.56,.43-.85,.66-.06-.05-.12-.1-.18-.15-1.06-.88-2.22-1.59-3.56-1.95-1.42-.38-2.82-.32-4.13,.4-.27,.15-.52,.32-.75,.51l.55,.83c.17-.14,.35-.27,.54-.39,1.09-.64,2.26-.71,3.47-.41,1.39,.36,2.55,1.12,3.6,2.08,.35,.32,.56,.32,.92,0,1.03-.92,2.17-1.68,3.52-2.05,1.22-.33,2.42-.3,3.55,.33,1.21,.67,1.88,1.74,2.18,3.06,.11,.49,.14,1,.21,1.5-.06,1.57-.48,3.04-1.12,4.46-.81,1.77-1.92,3.35-3.2,4.81-1.61,1.83-3.43,3.43-5.37,4.9-.07,.05-.12,.08-.2,.02-1.13-.85-2.21-1.75-3.24-2.7l-.66,.68c1.16,1.09,2.4,2.11,3.69,3.07,.21,.16,.4,.15,.61-.01,.8-.63,1.61-1.24,2.38-1.9,1.94-1.65,3.7-3.47,5.17-5.55,1.12-1.59,2.03-3.28,2.53-5.17,.41-1.57,.5-3.14,.05-4.72-.79-2.79-3.29-4.36-6.14-3.88Z"/>
    <polygon class="cls-1" points="18.47 24.39 18.47 22.52 22.68 22.52 15.92 12.38 9.95 22.52 15.98 22.52 15.98 24.39 6.93 24.39 10.84 28.31 20.9 28.31 24.73 24.39 18.47 24.39"/>
  </g>
</svg>