<?xml version="1.0" encoding="UTF-8"?>
<svg id="Layer_1" data-name="Layer 1" xmlns="http://www.w3.org/2000/svg" viewBox="0 0 43 43">
  <defs>
    <style>
      .cls-1 {
        fill: #aeb2b2;
      }

      .cls-2 {
        fill: #fff;
        stroke: #aeb2b2;
        stroke-miterlimit: 10;
      }
    </style>
  </defs>
  <rect class="cls-2" x="2.46" y="2.52" width="38.09" height="37.96" rx="8" ry="8"/>
  <g>
    <g>
      <path class="cls-1" d="M22.65,13.76c1.6,2.62,1.6,5.21-.01,7.83,.35,.05,.69,.11,1.04,.14,.45,.04,.9,.05,1.36,.07,.08,0,.17,.03,.23,.08,1.13,.87,2.43,1.17,3.83,1.08,.2-.01,.24-.1,.14-.28-.24-.43-.57-.8-.93-1.14-.04-.04-.06-.1-.1-.15,.05-.03,.09-.07,.14-.08,1.79-.5,3.46-1.29,5.06-2.24,.24-.14,.24-.15,.45,.05,1.07,.99,2.34,1.6,3.72,2.03,.17,.05,.24,0,.23-.17-.07-1.45-.67-2.56-2.02-3.21-.05-.02-.08-.07-.12-.11,.04-.03,.08-.08,.12-.1,1.35-.65,1.94-1.76,2.02-3.21,0-.17-.06-.22-.22-.17-1.41,.43-2.72,1.07-3.8,2.1-.11,.1-.18,.1-.3,.03-1.62-.98-3.32-1.78-5.15-2.29-.18-.05-.18-.09-.05-.22,.37-.34,.69-.72,.94-1.15,.1-.17,.06-.26-.14-.28-1.33-.09-2.58,.17-3.68,.97-.19,.14-.37,.18-.6,.2-.69,.05-1.37,.12-2.06,.19-.04,0-.08,.02-.12,.03Z"/>
      <path class="cls-1" d="M22.01,21.29c-.07,.09-.12,.12-.24,.09-.96-.29-1.86-.7-2.67-1.3-.82-.6-1.51-1.33-2-2.23-.06-.11-.09-.21-.01-.33,.12-.19,.22-.39,.36-.58,1.09-1.52,2.58-2.45,4.36-2.98,.11-.03,.15,.02,.2,.09,.78,1.09,1.17,2.3,1.18,3.32,0,1.6-.41,2.86-1.17,3.92Zm-.96-4.27c.22,0,.41-.18,.41-.41,0-.23-.18-.43-.41-.43-.23,0-.42,.19-.42,.42,0,.23,.19,.42,.42,.42Z"/>
    </g>
    <g>
      <path class="cls-1" d="M20.35,25.71c-1.6,2.62-1.6,5.21,.01,7.83-.35,.05-.69,.11-1.04,.14-.45,.04-.9,.05-1.36,.07-.08,0-.17,.03-.23,.08-1.13,.87-2.43,1.17-3.83,1.08-.2-.01-.24-.1-.14-.28,.24-.43,.57-.8,.93-1.14,.04-.04,.06-.1,.1-.15-.05-.03-.09-.07-.14-.08-1.79-.5-3.46-1.29-5.06-2.24-.24-.14-.24-.15-.45,.05-1.07,.99-2.34,1.6-3.72,2.03-.17,.05-.24,0-.23-.17,.07-1.45,.67-2.56,2.02-3.21,.05-.02,.08-.07,.12-.11-.04-.03-.08-.08-.12-.1-1.35-.65-1.94-1.76-2.02-3.21,0-.17,.06-.22,.22-.17,1.41,.43,2.72,1.07,3.8,2.1,.11,.1,.18,.1,.3,.03,1.62-.98,3.32-1.78,5.15-2.29,.18-.05,.18-.09,.05-.22-.37-.34-.69-.72-.94-1.15-.1-.17-.06-.26,.14-.28,1.33-.09,2.58,.17,3.68,.97,.19,.14,.37,.18,.6,.2,.69,.05,1.37,.12,2.06,.19,.04,0,.08,.02,.12,.03Z"/>
      <path class="cls-1" d="M19.82,29.32c0-1.02,.4-2.24,1.18-3.32,.05-.07,.1-.12,.2-.09,1.77,.53,3.27,1.46,4.36,2.98,.13,.18,.23,.39,.36,.58,.08,.12,.05,.22-.01,.33-.49,.9-1.18,1.63-2,2.23-.81,.6-1.71,1.01-2.67,1.3-.11,.03-.17,0-.24-.09-.76-1.06-1.17-2.32-1.17-3.92Zm2.55-.77c0-.23-.19-.42-.42-.42-.23,0-.41,.2-.41,.43,0,.22,.19,.4,.41,.41,.23,0,.42-.19,.42-.42Z"/>
    </g>
    <path class="cls-1" d="M14.81,16.3c-1.04,0-1.88-.84-1.88-1.88s.84-1.88,1.88-1.88,1.88,.84,1.88,1.88-.84,1.88-1.88,1.88Zm0-3.01c-.62,0-1.12,.5-1.12,1.12s.5,1.12,1.12,1.12,1.12-.5,1.12-1.12-.5-1.12-1.12-1.12Z"/>
    <path class="cls-1" d="M14.69,10.57c-.69,0-1.25-.56-1.25-1.25s.56-1.25,1.25-1.25,1.25,.56,1.25,1.25-.56,1.25-1.25,1.25Zm0-1.99c-.41,0-.74,.33-.74,.74s.33,.74,.74,.74,.74-.33,.74-.74-.33-.74-.74-.74Z"/>
    <path class="cls-1" d="M27.33,29.37c-.72,0-1.3-.58-1.3-1.3s.58-1.3,1.3-1.3,1.3,.58,1.3,1.3-.58,1.3-1.3,1.3Zm0-2.08c-.43,0-.78,.35-.78,.78s.35,.78,.78,.78,.78-.35,.78-.78-.35-.78-.78-.78Z"/>
    <path class="cls-1" d="M27.24,25.4c-.48,0-.86-.39-.86-.86s.39-.86,.86-.86,.86,.39,.86,.86-.39,.86-.86,.86Zm0-1.38c-.28,0-.52,.23-.52,.52s.23,.52,.52,.52,.52-.23,.52-.52-.23-.52-.52-.52Z"/>
  </g>
</svg>