<?xml version="1.0" encoding="UTF-8"?>
<svg xmlns="http://www.w3.org/2000/svg" viewBox="0 0 43 43">
  <defs>
    <style>
      .cls-1, .cls-2 {
        fill: #fff;
      }

      .cls-3 {
        isolation: isolate;
      }

      .cls-4 {
        stroke: #fff;
        stroke-width: .05px;
      }

      .cls-4, .cls-5 {
        fill: #b1b1b1;
      }

      .cls-4, .cls-2 {
        stroke-miterlimit: 10;
      }

      .cls-6 {
        fill: #f4d9bf;
      }

      .cls-7 {
        fill: #cbc52c;
        mix-blend-mode: screen;
      }

      .cls-2 {
        stroke: #ccc;
      }
    </style>
  </defs>
  <g class="cls-3">
    <g id="Layer_1" data-name="Layer 1">
      <rect class="cls-2" x="2.46" y="2.52" width="38.09" height="37.96" rx="8" ry="8"/>
      <g>
        <g>
          <path class="cls-5" d="M8.41,27.44c-.69,1.14,.62,1.96,1.82,2.13,1.25,.18,2.71-.15,3.87,.39,.58,.27,.92,.82,1.29,1.27,.6,.73,1.4,1.18,2.39,1.38,1.4,.28,2.98,.25,4.41,.26,1.75,0,3.29-.55,4.93-.98,.95-.25,1.98-.13,2.95-.12,1.01,.01,2.04-.02,3.01-.31,.77-.22,1.5-.51,2.12-1,1.6-1.27-.67-2.61-.05-3.98,.35-.77,1.87-.88,1.81-1.83-.05-.73-1.12-1.14-1.79-1.42-1.21-.51-2.5-.88-3.79-1.22-.61-.16-1.22-.27-1.84-.38-.64-.12-1.28-.25-1.94-.34-.8-.11-1.62-.17-2.43-.23-.79-.06-1.57-.09-2.36-.1-1.64-.01-3.26,.04-4.85,.32-.8,.14-1.6,.28-2.38,.46-1.34,.31-4.13,1-3.62,2.58,.09,.29,.32,.54,.29,.86-.06,.61-1.03,.85-1.6,1.04-.79,.25-1.71,.5-2.17,1.14-.02,.03-.04,.06-.06,.09Z"/>
          <path class="cls-5" d="M12.49,23.47c-.08,.57,.41,1.19,.04,1.73-.16,.23-.41,.41-.69,.54-.01,0-.02,0-.04,0,.24-.15,.41-.33,.44-.58,.03-.32-.19-.56-.29-.86-.26-.8,.33-1.37,1.15-1.78-.31,.25-.56,.57-.61,.94Z"/>
          <path class="cls-5" d="M8.24,27.84c.04,.29,.2,.54,.45,.73,.36,.28,.83,.44,1.29,.55,.47,.11,.96,.17,1.44,.2,.61,.04,1.23,.04,1.83,.13,.32,.05,.64,.13,.93,.26,.22,.1,.46,.22,.63,.39,.47,.46,.91,.93,1.43,1.34,.08,.06,.22,.17,.38,.28,.06,.05,.13,.09,.2,.13,.38,.22,.8,.35,1.24,.45,.6,.13,1.2,.22,1.81,.29,.59,.07,1.18,.13,1.78,.1,.69-.03,1.37-.16,2.03-.35,.34-.1,.68-.21,1.02-.32,.35-.12,.7-.26,1.07-.34,.74-.16,1.5-.16,2.26-.12,.74,.05,1.48,.14,2.23,.11,1.32-.05,2.7-.34,3.82-.98,.43-.25,.86-.57,1.07-.99,.23-.44,.19-.92-.02-1.35-.24-.49-.67-.99-.64-1.55,.02-.29,.17-.57,.4-.78,.2-.17,.43-.29,.68-.4,.23-.1,.46-.2,.66-.34,.21-.15,.45-.35,.51-.59,.07-.33-.14-.63-.38-.89,.33,.22,.59,.5,.61,.85,.06,.95-1.46,1.07-1.81,1.83-.63,1.37,1.65,2.71,.05,3.98-.61,.48-1.35,.77-2.12,1-.97,.28-1.99,.32-3.01,.31-.98-.01-2-.13-2.95,.12-1.64,.43-3.18,.98-4.93,.98-1.43,0-3,.02-4.41-.26-.99-.2-1.79-.65-2.39-1.38-.37-.45-.71-1-1.29-1.27-1.16-.54-2.62-.21-3.87-.39-1.05-.15-2.19-.8-1.99-1.72Z"/>
        </g>
        <g>
          <path class="cls-5" d="M14.31,26.42c-.24,.31-.68,.6-.63,1.04,.1,.85,1.33,1.06,1.95,1.38,1.03,.53,1.87,1.34,2.95,1.79,1,.41,2.08,.54,3.15,.42,1.12-.13,2.17-.56,3.27-.79,1.46-.3,2.96,.01,4.43-.24,.78-.14,1.57-.34,2.25-.77,1.02-.64,.63-1.34,.73-2.37,.05-.57,.61-.84,.87-1.3,.33-.59,.18-1.39-.26-1.89-.98-1.11-2.74-1.65-4.15-1.89-1.8-.31-3.64-.2-5.45-.23-1.54-.03-3.09-.02-4.63,.18-1.64,.22-3.89,.68-4.47,2.5-.24,.76,.53,1.45,0,2.15,0,0,0,.01-.01,.02Z"/>
          <path class="cls-5" d="M15.51,26.9c1.19,1.85,3.82,2.71,5.89,2.98,1.26,.17,2.57,.25,3.84,.09,.94-.12,1.89-.3,2.79-.59,2-.63,4.93-2.17,4.25-4.77-.25-.97-1.08-2.03-2.06-2.37-.21-.16-.44-.27-.76-.36-.71-.2-1.39-.38-2.12-.47-1.45-.19-2.91-.29-4.37-.26-1.46,.03-2.95,.12-4.36,.53-1.11,.32-2.35,.79-3.07,1.73-.02,.03-.04,.05-.06,.08-.75,1.05-.65,2.34,.03,3.4Z"/>
        </g>
        <g>
          <g>
            <path class="cls-1" d="M16.26,23.69c.91-.51,3.17-.74,3.83,.71,.6-.43,1.92-.72,3.44-.72s2.83,.3,3.44,.72c0,0,0,0,0,0h0c.66-1.45,2.92-1.23,3.83-.71,.3,.17,.49,.38,.63,.59-.09-.69-.35-1.35-.82-1.81-1.02-1-2.6-1.59-3.97-1.89-1.01-.22-2.08-.32-3.12-.32-1.71,0-3.23,.35-4.96,.94-1.06,.36-2.34,1.04-2.72,2.2-.09,.26-.14,.54-.17,.82,.13-.19,.32-.37,.58-.52Z"/>
            <path class="cls-5" d="M27.77,21.74c-.6-.25-1.22-.42-1.86-.54-.47-.09-.94-.16-1.41-.19-.08,0-.17,0-.25,0-.7,.02-1.41,.13-2.1,.23-.65,.1-1.3,.23-1.93,.43-.72,.23-2.26,.74-2.4,1.64,.91-.03,1.87,.24,2.26,1.1,.6-.43,1.92-.72,3.44-.72s2.83,.3,3.44,.72c0,0,0,0,0,0h0c.42-.93,1.5-1.17,2.46-1.09,0-.17-.05-.35-.18-.53-.35-.49-.94-.81-1.48-1.04Z"/>
            <path class="cls-1" d="M24.45,22.22c-1.11-.02-2.3,.08-3.36,.4-.68,.21-1.3,.53-1.89,.91,.39,.17,.71,.45,.9,.87,.6-.43,1.92-.72,3.44-.72s2.83,.3,3.44,.72c0,0,0,0,0,0h0c.29-.64,.9-.96,1.56-1.06-1.2-.76-2.68-1.1-4.08-1.13Z"/>
            <path class="cls-7" d="M15.86,23.8s.26-.25,.64-.39c0,0,.14-.75,.54-1.19,0,0-.76,.19-1.18,1.58Z"/>
            <path class="cls-1" d="M17.58,22.43c0,.05-.04,.1-.1,.1s-.1-.04-.1-.1,.04-.1,.1-.1,.1,.04,.1,.1Z"/>
            <path class="cls-1" d="M20.41,20.91c0,.05-.04,.1-.1,.1s-.1-.04-.1-.1,.04-.1,.1-.1,.1,.04,.1,.1Z"/>
            <path class="cls-1" d="M30.27,22.7c0,.05-.04,.1-.1,.1s-.1-.04-.1-.1,.04-.1,.1-.1,.1,.04,.1,.1Z"/>
            <path class="cls-1" d="M28.68,21.98c0,.05-.04,.1-.1,.1s-.1-.04-.1-.1,.04-.1,.1-.1,.1,.04,.1,.1Z"/>
          </g>
          <path class="cls-4" d="M24.08,20.85s-.88-.88-2.06-.53c-1.18,.34-2.3,1.97-5.55-.31,0,0-.56-.15-.77,.28-.06,.12-.26,.32,.08,.63,.85,.77,3.07,1.9,4.49,1.87,1.99-.05,3.81-1.93,3.81-1.93Z"/>
          <path class="cls-4" d="M23.94,20.02s-1.3,.16-1.98,1.69c-.55,1.23-1.07,5.33-1.07,5.33,0,0,2.39,1.49,5.28,.67,0,0,.34-3.97,.22-6.39-.02-.5-.17-.67-.45-.79,0,0-.59-.42-1.72-.42l-.27-.1Z"/>
          <path class="cls-4" d="M22.54,26.08c.55,.12,1.12,.21,1.69,.22,.28,0,.6,0,.85,.12,.21,.1,.28,.3,.32,.51,.05,.31,.03,.62,.04,.94,.24-.04,.48-.09,.72-.16,0,0,.14-1.62,.21-3.41-.15-.03-.3-.08-.43-.14-.45-.19-.84-.52-.98-1-.16-.53-.08-1.12,.17-1.61,.18-.36,.42-.68,.68-.98,.02-.03,.04-.05,.06-.07-.19-.11-.75-.37-1.65-.37l-.27-.1s-1.3,.16-1.98,1.69c-.32,.72-.63,2.42-.83,3.71,.36,.38,.93,.55,1.43,.66Z"/>
          <path class="cls-5" d="M23.71,19.99l.21-.03s-1.06,1.03-.67,1.43c.39,.4,1.04,.09,1.23-.27,.19-.36,.56-1.11,.87-1.09,0,0,.24-.09,.46,.28,0,0-.93,.95-1.14,2.38-.21,1.43,1.69,1.99,1.69,1.99l-.1,1.63s-3.66-.07-5.11-1c0,0,0-1.99,.23-2.9,.24-.91,1.61-2.01,2.32-2.43Z"/>
          <path class="cls-1" d="M23.26,21.39c-.39-.4,.67-1.43,.67-1.43l-.12,.02c-.26,.24-.48,.56-.62,.87-.08,.18-.18,.43-.1,.63,.09,.23,.37,.3,.6,.29,.86-.02,1.05-1.01,1.49-1.65-.26,.19-.52,.73-.67,1.02-.19,.36-.84,.67-1.23,.27Z"/>
          <path class="cls-4" d="M14.01,20.2c.04-.19,1.01,.02,1.01,.02,0,0-1.08-.47-1-.61,.08-.14,1.19,.32,1.19,.32,0,0-1.21-.83-1.09-1.07,.12-.24,1.3,.68,1.3,.68,0,0-.98-1.08-.84-1.26,.14-.18,.75,.46,1.46,1.24-.18-.5-.09-1.06,.11-1.03,.21,.03,.05,.36,.26,.84,.11,.19,.23,.42,.24,.65,.02,.38-.47,.97-.87,.93-.26-.03-.5-.21-.68-.39,0,0-1.12-.14-1.08-.32Z"/>
          <g>
            <path class="cls-1" d="M31.43,24.28c-.13-.21-.33-.42-.63-.59-.91-.51-3.17-.74-3.83,.71h0c-.6,.59-1.92,.99-3.44,.99s-2.83-.41-3.44-.99c-.66-1.45-2.92-1.22-3.83-.71-.26,.15-.45,.33-.58,.52-.1,.97,.16,1.99,.86,2.76,.99,1.08,2.58,1.57,3.93,1.93,.98,.26,2.04,.35,3.06,.35,1.61,0,3.37-.12,4.89-.7,.99-.38,2.3-1.13,2.74-2.16,.24-.57,.35-1.28,.29-1.96,0-.05-.01-.11-.02-.16Z"/>
            <path class="cls-5" d="M26.97,24.4h0c-.6,.59-1.92,.99-3.44,.99s-2.83-.41-3.44-.99c-.39-.87-1.36-1.13-2.26-1.1-.03,.19,0,.39,.12,.62,.53,1.02,1.77,1.51,2.82,1.79,1.36,.36,2.81,.46,4.21,.25,1.09-.17,2.18-.5,3.13-1.08,.51-.31,1.32-.9,1.33-1.56-.96-.08-2.04,.16-2.46,1.09Z"/>
            <path class="cls-1" d="M19.46,24.45c.36,.34,.88,.54,1.35,.66,.6,.16,1.21,.23,1.83,.23-1.13-.12-2.05-.48-2.53-.94-.19-.42-.52-.7-.9-.87-.11,.31-.01,.66,.26,.92Z"/>
            <path class="cls-5" d="M27.4,24.56c.35-.18,1.09-.68,.83-1.15-.54,.15-1.01,.45-1.26,.99h0c-.25,.24-.62,.45-1.08,.62,.53-.07,1.06-.22,1.51-.46Z"/>
            <path class="cls-7" d="M16.51,24.04c-.3,.11-.57,.33-.74,.58,.05,1.01,.71,3.78,6.48,4.33,0,0-6.02-1.49-5.74-4.91Z"/>
            <path class="cls-1" d="M19.1,26.91c0,.05-.04,.1-.1,.1s-.1-.04-.1-.1,.04-.1,.1-.1,.1,.04,.1,.1Z"/>
            <path class="cls-1" d="M20.98,27.96c0,.05-.04,.1-.1,.1s-.1-.04-.1-.1,.04-.1,.1-.1,.1,.04,.1,.1Z"/>
            <path class="cls-1" d="M22.63,26.91c0,.05-.04,.1-.1,.1s-.1-.04-.1-.1,.04-.1,.1-.1,.1,.04,.1,.1Z"/>
            <path class="cls-1" d="M25.01,25.73c0,.05-.04,.1-.1,.1s-.1-.04-.1-.1,.04-.1,.1-.1,.1,.04,.1,.1Z"/>
            <path class="cls-1" d="M23.39,28.86c0,.05-.04,.1-.1,.1s-.1-.04-.1-.1,.04-.1,.1-.1,.1,.04,.1,.1Z"/>
            <path class="cls-1" d="M25.01,27.81c0,.05-.04,.1-.1,.1s-.1-.04-.1-.1,.04-.1,.1-.1,.1,.04,.1,.1Z"/>
            <path class="cls-1" d="M27.02,26.42c0,.05-.04,.1-.1,.1s-.1-.04-.1-.1,.04-.1,.1-.1,.1,.04,.1,.1Z"/>
            <path class="cls-1" d="M29.53,27.62c0,.05-.04,.1-.1,.1s-.1-.04-.1-.1,.04-.1,.1-.1,.1,.04,.1,.1Z"/>
            <path class="cls-1" d="M26.47,28.86c0,.05-.04,.1-.1,.1s-.1-.04-.1-.1,.04-.1,.1-.1,.1,.04,.1,.1Z"/>
            <path class="cls-1" d="M29.63,26.18c0,.05-.04,.1-.1,.1s-.1-.04-.1-.1,.04-.1,.1-.1,.1,.04,.1,.1Z"/>
            <path class="cls-1" d="M31.1,25.44c0,.05-.04,.1-.1,.1s-.1-.04-.1-.1,.04-.1,.1-.1,.1,.04,.1,.1Z"/>
            <path class="cls-1" d="M29.92,24.21c0,.05-.04,.1-.1,.1s-.1-.04-.1-.1,.04-.1,.1-.1,.1,.04,.1,.1Z"/>
            <path class="cls-1" d="M17.67,25.44c0,.05-.04,.1-.1,.1s-.1-.04-.1-.1,.04-.1,.1-.1,.1,.04,.1,.1Z"/>
            <path class="cls-1" d="M21.08,25.53c0,.05-.04,.1-.1,.1s-.1-.04-.1-.1,.04-.1,.1-.1,.1,.04,.1,.1Z"/>
            <path class="cls-1" d="M17.77,23.89c0,.05-.04,.1-.1,.1s-.1-.04-.1-.1,.04-.1,.1-.1,.1,.04,.1,.1Z"/>
          </g>
          <g>
            <path class="cls-4" d="M25.98,20.74s-.98,.42-.64,1.39c.16,.47,2.32,1.96,2.39,2.38,.07,.41-.23,3.29-.23,3.29l.85,.21s.78-2.85,.78-3.68c0-.82-2.01-3.88-3.15-3.58Z"/>
            <path class="cls-4" d="M28.58,27.87c-.01-.15-.05-.3-.11-.42-.07-.12-.21-.21-.34-.25-.24-.07-.46,.08-.68,.18-.2,.09-.34,.25-.49,.41-.16,.17-.31,.35-.4,.57-.04,.1-.12,.35,.1,.29,.28-.08,.31-.42,.59-.52-.06,.3-.15,.55-.34,.82-.09,.13-.13,.31-.07,.46,.06,.14,.37-.24,.38-.26,.1-.12,.3-.47,.35-.59-.03,.14-.19,.51-.22,.65-.02,.09-.09,.32,.07,.31,.2-.02,.34-.38,.4-.53,.01-.03,.08-.25,.1-.32-.03,.13-.23,.86-.1,.9,.22,.07,.3-.54,.34-.67,.05-.14,.09-.3,.1-.45,0,.07-.18,1.06-.18,1.06,.06,.14,.27,0,.4-.48,.03-.12,.06-.42,.07-.54,.02-.18,.04-.4,.02-.62Z"/>
          </g>
          <path class="cls-6" d="M23.87,19.58l-.11,1.02s.53,.68,1.3-.4l.21-.76-1.41,.14Z"/>
          <path class="cls-4" d="M23.87,19.58l-.11,1.02s.53,.68,1.3-.4l.21-.76-1.41,.14Z"/>
          <g>
            <g>
              <path class="cls-4" d="M26.97,19.65s.14,.52,.75,.35c.62-.17,1.11-.73,.74-1.26-.37-.53-1.23,.22-1.23,.22,0,0,.39-.71-.55-2.33-.92-1.59-1.01-2.62-1.02-2.85,0,.23,0,1.18-.3,.71-.48-.77-.35-1.94-.35-1.94-.19,.5-.62,1.3-.66,.64-.04-.65,.47-1.2,.47-1.2-1.31,.09-1.79,1.55-1.79,1.55-.26,.54-.52,.85-1.33,1.31-.81,.46-1.28,2.44,.28,3.93,1.42,1.35,3.33,1.3,3.33,1.3,.85,.03,1.62-.44,1.62-.44Z"/>
              <g>
                <path class="cls-1" d="M27.4,19.68s0,0,0-.02c0-.01,0-.03,0-.05,0-.02,0-.05,0-.08,0-.03,0-.06,.02-.1,0-.04,.02-.07,.04-.11,.01-.04,.04-.08,.06-.12,.02-.04,.05-.08,.08-.11h.01s0-.02,0-.02h0s0-.01,0-.01l.02-.03s.04-.03,.06-.05c.02-.02,.04-.03,.07-.04,.03,0,.05-.02,.08-.02,.05,0,.11,0,.15,.03,.04,.03,.07,.07,.09,.11,.02,.04,.02,.08,.02,.12,0,.04,0,.07-.01,.1-.01,.03-.02,.05-.03,.07-.02,.04-.03,.06-.03,.06,0,0,0-.02,.02-.06,0-.02,0-.04,.02-.07,0-.03,0-.06,0-.09,0-.02,0-.03,0-.05,0-.02-.01-.03-.02-.05-.02-.03-.04-.06-.08-.08-.03-.02-.07-.03-.11-.02-.02,0-.04,.01-.06,.02-.02,.01-.04,.02-.05,.03-.03,.02-.07,.06-.1,.09-.03,.04-.06,.07-.08,.11-.02,.04-.05,.07-.06,.11-.02,.04-.04,.07-.04,.1-.02,.06-.04,.12-.04,.16,0,.04,0,.06,0,.06Z"/>
                <path class="cls-1" d="M27.6,19.13s0,.01-.02,.03c0,0-.01,.02-.02,.03,0,.01-.01,.03-.02,.04,0,.01,0,.03-.01,.05,0,.02,0,.04,0,.06,0,0,0,.02,0,.03,0,0,0,.02,0,.03,0,0,0,.02,.01,.03,0,0,0,.02,.02,.03,0,0,.01,.02,.02,.02l.02,.02s.03,.03,.05,.04c.02,.01,.03,.02,.05,.02,.02,0,.03,0,.05,.01,.02,0,.03,0,.04,0,.01,0,.03,0,.03,0,.02,0,.03-.01,.03-.01,0,0,0,0-.02,.02,0,0-.02,.01-.03,.02-.01,0-.03,.01-.05,.01-.02,0-.04,0-.06,0-.02,0-.04,0-.07-.02-.01,0-.02-.01-.03-.02,0,0-.02-.01-.03-.02-.02-.02-.04-.04-.05-.06,0-.01-.01-.02-.02-.03,0-.01-.01-.02-.01-.04,0-.01,0-.03,0-.04,0-.01,0-.03,0-.04,0-.02,0-.05,.01-.07,0-.02,.02-.04,.03-.05,.01-.02,.02-.03,.03-.04,.01-.01,.02-.02,.03-.02,.02-.01,.03-.02,.03-.02Z"/>
              </g>
              <path class="cls-1" d="M21.64,16.82s.13,.31,.97,.62c.84,.3,1.94,.29,1.94,.29,0,0-.13,.23-.31,.66-.18,.43-.6,1.08-1.27,.9-.59-.15-.87-.54-.97-1.43-.09-.76-.34-.8-.36-1.04Z"/>
              <g>
                <path class="cls-1" d="M24.28,16.1c.1-.16,.25-.25,.33-.2,.08,.05,.06,.22-.04,.38-.1,.16-.25,.25-.33,.2-.08-.05-.06-.22,.04-.38Z"/>
                <path class="cls-1" d="M22.03,14.98c.1-.16,.25-.25,.33-.2,.08,.05,.06,.22-.04,.38-.1,.16-.25,.25-.33,.2-.08-.05-.06-.22,.04-.38Z"/>
                <path class="cls-1" d="M25.09,15.2c.21,.12,.15,.55,.23,.58,.08,.03,.23-.53-.08-.76-.32-.23-.69,.14-.64,.21,.05,.07,.22-.18,.5-.03Z"/>
                <path class="cls-1" d="M23.1,14.19c.12,.09,0,.4,.1,.42,.1,.02,.25-.41,.09-.57-.19-.2-.52,.06-.49,.16,.02,.06,.18-.11,.3-.01Z"/>
                <path class="cls-1" d="M22.73,16.1s-.01-.02-.04-.05c-.02-.03-.06-.07-.11-.11-.02-.02-.05-.04-.08-.06-.03-.02-.06-.04-.1-.04-.03,0-.07,0-.1,.02h-.01s0,.01-.01,.01l-.03,.02s-.03,.02-.04,.04c-.02,.03-.04,.07-.05,.11,0,.04-.01,.08,0,.12,0,.04,.01,.07,.02,.11,0,.02,.01,.03,.02,.05,0,.01,.02,.03,.02,.04,.02,.02,.04,.05,.06,.07,.02,.02,.04,.03,.05,.04,.03,.02,.05,.03,.05,.03,0,0,0,0-.02,0-.01,0-.03,0-.04-.01-.02,0-.04-.02-.06-.03-.02-.01-.05-.04-.07-.06-.01-.01-.02-.03-.03-.04,0-.02-.02-.03-.03-.05-.02-.04-.03-.08-.04-.12,0-.04,0-.09,0-.14,.01-.05,.03-.09,.06-.13,.01-.02,.03-.04,.05-.06l.03-.02s0,0,.02-.01h.02s.1-.03,.14-.02c.05,0,.08,.03,.12,.06,.03,.02,.06,.05,.08,.08,.05,.05,.07,.1,.09,.13,.02,.03,.03,.05,.03,.05Z"/>
                <g>
                  <path class="cls-4" d="M24.23,18.16c-.2,.07-.5,.12-.94-.01-.58-.17-.81-.5-.9-.7-.2-.08-.35-.17-.45-.24,.2,.53,.18,1.51,.74,1.87,.52-.53,1.02-.44,1.26-.34,.04-.07,.08-.14,.12-.22,.07-.14,.12-.26,.17-.36Z"/>
                  <path class="cls-1" d="M23.28,18.15c.44,.13,.75,.09,.94,.01,.13-.26,.2-.38,.2-.38,0,0-.19,.16-1.4-.13-.26-.06-.47-.13-.63-.2,.09,.21,.32,.53,.9,.7Z"/>
                  <path class="cls-1" d="M22.67,19.08c.09,.06,.18,.1,.3,.12,.41,.08,.73-.1,.97-.47-.25-.1-.75-.19-1.26,.34Z"/>
                </g>
              </g>
            </g>
            <path class="cls-5" d="M30.47,13.39c-2.63-3.12-5.09-2.19-5.09-2.19-.63-.33-.49-1.17-.59-1.04-.34,.46-.02,.83-.02,.83-1.31-.38-2.05,.7-1.77,.68,.28-.02,.6,0,.6,0,0,0-.78,.18-.84,.91-.05,.73,.31,.98,.31,.98,0,0,.47-1.46,1.79-1.55,0,0-.51,.54-.47,1.2,.04,.65,.47-.15,.66-.64,0,0-.13,1.17,.35,1.94,.29,.47,.3-.48,.3-.71,0-.03,0-.05,0-.05,0,0,0,.02,0,.05,0,.23,.1,1.25,1.02,2.85,.94,1.62,.55,2.33,.55,2.33,0,0,.86-.76,1.23-.22,.37,.53-.13,1.1-.74,1.26-.62,.17-.75-.35-.75-.35,0,0-.78,.46-1.62,.44,0,0,.97,.74,2.77,.49,2.79-.39,4.78-4.3,2.35-7.19Z"/>
            <path class="cls-4" d="M27.3,20.91c-.08,.08-.22,.13-.46,.1-.32-.04-.46-.15-.52-.27-.13,.14-.34,.43-.45,.99-.18,.87,.37,1.45,.53,.36,0,0,0,.89,.32,.9,.31,0,.17-.66,.17-.66,0,0,.74,.89,1.02,.67,.34-.27-.33-.79-.33-.79,0,0,.47,.3,.79,.31,.3,.01,.26-.79-1.07-1.61Z"/>
            <path class="cls-4" d="M26.29,20.49c-.03,.17,.01,.45,.54,.51,.48,.06,.57-.2,.57-.38-.44,0-.81-.06-1.12-.13Z"/>
          </g>
        </g>
        <g>
          <path class="cls-5" d="M17.4,18.18c-.16-.18-.58-.46-.82-.27-.05,.04-.07,.07-.07,.11,.04,.1,.16,.2,.23,.23,.15,.06,.3,.12,.45,.16,.05,.02,.09,.03,.14,.05,.03,0,.07,.02,.1,.03,.07,.02,.14,.03,.21,.06,0-.01-.01-.02-.01-.03-.06-.13-.13-.24-.23-.34Z"/>
          <path class="cls-5" d="M13.71,18.02c-.4-.34-.83-.76-.83-1.32,0-.17,.07-.38,0-.53-.09-.2-.35-.21-.49-.04-.1,.13-.05,.35-.02,.49,.02,.08,.06,.23,.05,.31,0,.01-.22-.24-.24-.27-.08-.1-.5-.45-.46-.08,.02,.2,.16,.61,.09,.78-.13,.29-1.26-.78-1.42-.89-.6-.4-1.34-.68-2.07-.64-.11,0-.22,.03-.33,.07,0,0-.01,0-.02,0,0,0,0,0,0,0-.01,0-.02,.01-.03,.02-.03,.01-.06,.03-.09,.04-.01,0-.02,.01-.03,.02-.03,.02-.06,.03-.08,.05-.01,0-.02,.02-.03,.03-.02,.02-.05,.04-.07,.06-.01,.01-.02,.03-.03,.04-.02,.02-.03,.04-.05,.07,0,.02-.01,.03-.02,.05,0,.02-.02,.04-.03,.07,0,.02,0,.04,0,.06,0,.02,0,.04,0,.07,0,.03,.01,.06,.02,.08,0,.02,0,.04,.01,.06,.02,.05,.04,.1,.07,.15,.13,.22,.32,.37,.55,.48,.42,.21,.89,.25,1.34,.36,.2,.05,.43,.11,.62,.21,.12,.06,.42,.32,.13,.39-.17,.04-.51-.05-.66,.08-.04,.08-.06,.16-.01,.26,.11,.24,.39,.35,.63,.4,.31,.06,.66,.02,.89,.28,.19,.2,.24,.5,.43,.71,.13,.14,.31,.2,.5,.19,.18,0,.31-.13,.28-.32-.02-.11-.1-.21-.17-.29-.15-.18-.45-.37-.44-.63,0-.18,.25-.23,.39-.25,.27-.03,.52,.01,.77,.08,.03,0,.06,.02,.1,.03,.14,0,.29,.01,.43,.01,.14,0,.45,.03,.3-.21-.11-.17-.32-.28-.49-.35-.08-.04-.49-.26-.24-.19,.21,.06,.4,.16,.59,.28,.1,.06,.43,.34,.57,.21,.02-.02,.02-.05,.01-.07-.06-.2-.23-.28-.38-.41Z"/>
          <path class="cls-5" d="M16.25,14.14c-.16-.18-.58-.46-.82-.27-.05,.04-.07,.07-.07,.11,.04,.1,.16,.2,.24,.23,.15,.06,.3,.12,.45,.16,.05,.02,.09,.03,.14,.05,.03,0,.07,.02,.1,.03,.07,.02,.14,.03,.21,.06,0-.01-.01-.02-.01-.03-.06-.13-.13-.24-.23-.34Z"/>
          <path class="cls-5" d="M10.32,14.36c.18,.08,.36,.17,.54,.24,.06,.02,.11,.05,.17,.08,.04,.01,.08,.03,.12,.04,.09,.03,.17,.06,.25,.09,0-.01-.01-.03-.01-.04-.06-.16-.14-.31-.25-.44-.18-.23-.68-.62-.99-.41-.06,.04-.09,.09-.1,.13,.04,.13,.18,.26,.27,.31Z"/>
          <path class="cls-5" d="M12.11,12.67c.12,.06,.25,.12,.37,.17,.04,.02,.08,.03,.12,.05,.03,0,.06,.02,.08,.03,.06,.02,.12,.04,.18,.06,0-.01,0-.02-.01-.02-.04-.11-.1-.21-.17-.31-.13-.16-.47-.43-.68-.28-.04,.03-.06,.06-.07,.09,.03,.09,.12,.18,.19,.21Z"/>
          <path class="cls-5" d="M17.1,13.73c.02-.13,.02-.27,.03-.37,0-.07,0-.16-.01-.24-.07-.2-.16-.4-.35-.5-.18-.09-.25,.12-.23,.27,.1,.23,.37,.53,.42,.62,.04,.07,.1,.15,.15,.24Z"/>
          <path class="cls-5" d="M16.01,16.75c-.22-.08-.73-.14-.85,.14-.02,.05-.03,.1-.01,.13,.08,.07,.23,.1,.31,.09,.16-.02,.32-.04,.47-.06,.05,0,.1-.01,.15-.02,.03,0,.07-.01,.1-.02,.07-.02,.14-.04,.21-.04-.01,0-.02-.01-.02-.02-.11-.09-.23-.15-.36-.2Z"/>
          <path class="cls-5" d="M18.26,17.16c-.07-.2-.16-.4-.35-.5-.18-.09-.25,.12-.23,.27,.1,.23,.37,.53,.42,.62,.04,.07,.1,.15,.15,.24,.02-.13,.02-.27,.03-.37,0-.07,0-.16-.01-.24Z"/>
          <path class="cls-5" d="M11.04,24.14s-.07-.08-.11-.12c0,0-.02-.02-.03-.02-.02-.01-.03-.03-.05-.04,0,0,0,0,0,0-.08-.06-.17-.11-.21-.14-.27-.19-.64-.35-.95-.44-.13-.04-.84-.29-.87,0,0,.09,.02,.15,.07,.22,.06,.08,.21,.25,.14,.3-.26-.13-.56-.22-.82-.31-.45-.14-.96-.32-1.44-.31-.13,0-.73-.02-.73,.22,0,0,0,0,0,.01,0,0,0,0,0,0,0,.02,.01,.03,.02,.05,0,.02,.01,.05,.02,.06,.01,.02,.03,.03,.04,.04,.02,.02,.03,.04,.06,.05,.02,.01,.03,.02,.05,.03,.02,.01,.05,.03,.07,.04,.04,.02,.08,.04,.11,.05,.36,.14,.75,.18,1.11,.31,.07,.03,.14,.05,.21,.09,.05,.02,.12,.03,.1,.03-.18,.01-.35-.02-.53-.02-.16,0-.48,.03-.48,.25,0,.19,.22,.32,.37,.37,.27,.09,.71,.27,.98,.09,.11-.07,.18-.42,.28-.42,.24,0,.48,.09,.71,.16,.2,.07,.39,.1,.6,.13,.12,.02,.34,.08,.47,.01,.21-.11-.21-.34,.08-.33,.25,.01,.71,.09,.79-.22,.01-.05,0-.09-.03-.13,0,0,0-.02-.01-.03Z"/>
        </g>
      </g>
    </g>
  </g>
</svg>