<?xml version="1.0" encoding="UTF-8"?>
<svg id="Layer_1" data-name="Layer 1" xmlns="http://www.w3.org/2000/svg" viewBox="0 0 43 43">
  <defs>
    <style>
      .cls-1 {
        fill: #aeb2b2;
      }

      .cls-2 {
        fill: #fff;
        stroke: #aeb2b2;
        stroke-miterlimit: 10;
      }
    </style>
  </defs>
  <rect class="cls-2" x="2.46" y="2.52" width="38.09" height="37.96" rx="8" ry="8"/>
  <g>
    <path class="cls-1" d="M33.9,20.83c-.31,0-.61,.08-.87,.22-.93-3.83-3.89-7.03-7.85-8.31-.38-2.48-1.49-4.31-1.56-4.42l-.27-.43-4.55,4.37c-.2-.06-.42-.1-.65-.1-.62,0-1.17,.25-1.54,.65l-5.36-2.51-.03,.61c0,.18-.18,3.59,.29,6.25-.64,.98-1.19,2.14-1.56,3.34-.26-.13-.54-.22-.85-.22-1.13,0-2.04,1.02-2.04,2.28s.91,2.28,2.04,2.28c.13,0,.25-.02,.38-.04,.61,5.79,5.72,10.32,11.9,10.32s11.01-4.3,11.83-9.87c.22,.09,.45,.15,.69,.15,1.13,0,2.04-1.02,2.04-2.28s-.91-2.28-2.04-2.28Zm-10.73-11.62c.53,1.05,1.71,3.79,1.17,6.7l-4.18-1.71c.01-.08,.03-.16,.03-.24,0-.51-.24-.97-.62-1.3l3.6-3.46Zm-11.15,2.35l4.18,1.96c-.04,.14-.07,.29-.07,.45,0,.35,.12,.67,.31,.95l-3.81,3.38c-.66-1.96-.65-5.35-.61-6.74Zm9.36,22.64c-6.1,0-11.06-4.74-11.06-10.57,0-1.86,.51-3.67,1.47-5.27,.09,.29,.19,.57,.3,.81l.24,.49,4.71-4.19c.32,.19,.7,.3,1.11,.3,.7,0,1.32-.32,1.69-.81l5.08,2.07,.11-.46c.24-.98,.3-1.94,.24-2.84,4.24,1.54,7.15,5.5,7.15,9.89,0,5.83-4.96,10.57-11.06,10.57Z"/>
    <path class="cls-1" d="M20.24,23.96c.08,.19,.29,.28,.48,.2,.19-.08,.28-.29,.2-.48-.4-.97-1.69-1.62-3.2-1.62s-2.83,.67-3.21,1.64c-.07,.19,.02,.41,.21,.48,.05,.02,.09,.03,.14,.03,.15,0,.29-.09,.34-.23,.27-.68,1.33-1.17,2.52-1.17s2.24,.49,2.52,1.16Z"/>
    <path class="cls-1" d="M25.77,22.06c-1.51,0-2.83,.67-3.21,1.64-.07,.19,.02,.41,.21,.48,.05,.02,.09,.03,.14,.03,.15,0,.29-.09,.34-.23,.27-.68,1.33-1.17,2.52-1.17s2.24,.49,2.52,1.16c.08,.19,.29,.28,.48,.2,.19-.08,.28-.29,.2-.48-.4-.97-1.68-1.62-3.2-1.62Z"/>
    <path class="cls-1" d="M26.67,27c-.2-.05-.4,.06-.46,.26-.56,1.98-2.38,3.36-4.44,3.36s-3.94-1.42-4.46-3.45c-.05-.2-.25-.32-.45-.26-.2,.05-.32,.25-.26,.45,.61,2.35,2.74,4,5.18,4s4.51-1.6,5.15-3.9c.05-.2-.06-.4-.26-.46Z"/>
  </g>
</svg>