<?xml version="1.0" encoding="UTF-8"?>
<svg id="Layer_1" data-name="Layer 1" xmlns="http://www.w3.org/2000/svg" viewBox="0 0 381.01 62.39">
  <defs>
    <style>
      @font-face {
        font-family: 'Nexa Bold';
        src: url('./fonts/Nunito-Bold.woff2') format('woff2'),
             url('./fonts/Nunito-Bold.woff') format('woff');
        font-weight: 400;
        font-style: normal;
      }

      .cls-1 {
        font-size: 29.07px;
        letter-spacing: 0.05em;  
        font-weight: 400;
      }

      .cls-1, .cls-2 {
        font-family: 'Nunito Bold', sans-serif;
        font-weight: 400;
      }

      .cls-1, .cls-2, .cls-3 {
        fill: #fff;
      }

      .cls-2 {
        font-size: 11.01px;
        letter-spacing: .4em;
      }

      .cls-3 {
        stroke-width: 0px;
      }
    </style>
  </defs>
  <text class="cls-1" transform="translate(92.93 38.86)"><tspan x="0" y="0">MEINE MALEDIVEN</tspan></text>
  <text class="cls-2" transform="translate(200.28 58)"><tspan x="0" y="0">HOTELS</tspan></text>
  <path class="cls-3" d="m85.18,23.07h0c-4.34,3.99-8.11,7.15-11.39,9.64-1.15.87-2.25,1.66-3.28,2.37-22.27,15.24-18.12-5.79-18.12-5.79-27.06,22.72-24.48,7.22-24.48,7.22-3.92,1.31-8.28,1.9-12.47,2.06-1.06.05-2.11.07-3.14.07-4.88,0-9.26-.47-12.07-.87-.3-.05-.26-.47.05-.47,4.17-.05,8-.56,11.49-1.36,1.01-.23,2.02-.49,2.98-.77,11.25-3.24,18.24-9.19,19.84-10.46.12-.09.26.02.21.14-.68,1.41-2.37,5.21.16,7.03,4.31,2.91,17.14-7.13,25.56-13.5.45-.33,1.03.12.82.63-1.45,3.54-2.91,7.9-.63,11.02,1.83,2.37,5.81,1.92,10.06.45.98-.35,1.99-.75,3-1.17,6.05-2.65,11.68-6.47,11.44-6.24Z"/>
  <path class="cls-3" d="m73.76,29.31c-.02-.42-.05-.82-.09-1.24C72.09,12.33,58.77,0,42.62,0,25.41,0,11.41,14,11.41,31.21c0,1.22.07,2.41.21,3.59.98-.21,1.97-.47,2.98-.77-.09-.91-.14-1.85-.14-2.81,0-15.52,12.64-28.16,28.16-28.16s27.1,11.61,28.09,26.21c.02.4.05.82.05,1.22v.7c0,1.31-.09,2.63-.26,3.89,1.03-.7,2.13-1.5,3.28-2.37.02-.49.05-1.01.05-1.52-.02-.63-.02-1.27-.07-1.88Zm-31.14,30.03c-12.54,0-23.21-8.25-26.82-19.62-.12-.38-.23-.77-.35-1.15-.3-1.1-.54-2.25-.7-3.4-.96.28-1.95.54-2.98.77.14.91.33,1.81.54,2.7.09.4.21.77.3,1.17,3.75,13.04,15.78,22.58,29.99,22.58,16.15,0,29.5-12.36,31.04-28.11-1.2.89-2.34,1.69-3.45,2.41-2.53,12.9-13.95,22.65-27.57,22.65Z"/>
</svg>
