<?xml version="1.0" encoding="UTF-8"?>
<svg id="Layer_1" data-name="Layer 1" xmlns="http://www.w3.org/2000/svg" viewBox="0 0 43 43">
  <defs>
    <style>
      .cls-1 {
        fill: #b1b1b1;
      }

      .cls-2 {
        fill: #fff;
        stroke: #ccc;
        stroke-miterlimit: 10;
      }
    </style>
  </defs>
  <rect class="cls-2" x="2.46" y="2.52" width="38.09" height="37.96" rx="8" ry="8"/>
  <path class="cls-1" d="M27.44,9.71c.22,.02,.43,.04,.65,.05,1.77,.12,3.51,.46,5.2,1.01,.03,0,.05,.02,.1,.04-.35,.05-.69,.1-1.02,.16-1.44,.27-2.82,.72-4.06,1.53-.72,.47-1.33,1.05-1.72,1.83-.39,.78-.48,1.6-.3,2.44,.17,.79,.39,1.57,.58,2.36,.16,.64,.27,1.28,.18,1.94-.04,.33-.14,.64-.2,.97,0,.05,0,.12,.04,.15,.91,.82,1.62,1.8,2.21,2.86,.5,.88,1,1.75,1.66,2.52,.48,.57,1.03,1.06,1.6,1.55,.62,.53,1.26,1.04,1.79,1.66,.46,.53,.9,1.08,1.14,1.76,.09,.24,.14,.5,.2,.75-.11-.29-.21-.59-.34-.87-.32-.66-.8-1.21-1.34-1.69-.54-.49-1.11-.95-1.7-1.38-1.34-.97-2.44-2.15-3.36-3.5-.6-.87-1.22-1.72-1.99-2.45-.24-.23-.5-.43-.76-.64-.04-.03-.11-.05-.17-.05-1.55,.09-3.11,.18-4.66,.28-1.38,.09-2.75,.28-4.05,.78-2.22,.86-3.98,2.26-5.13,4.37-.53,.96-.8,2-.8,3.11,0,.03,0,.06,0,.11-.04-.02-.08-.03-.11-.04-1.81-.86-2.86-2.28-3.07-4.28-.16-1.54,.23-2.95,.99-4.28,.23-.4,.41-.83,.61-1.25,.04-.09,.06-.21,.08-.31,.04-.27-.02-.5-.21-.71-.13-.15-.25-.32-.39-.5-.52,.04-1.06,.09-1.56-.23,0-.04,0-.07,0-.11,.13-.08,.25-.21,.39-.24,.52-.12,1.05-.2,1.58-.3,.05-.01,.11-.02,.16-.05,.42-.28,.8-.6,1.06-1.05,.12-.21,.18-.41,.09-.67-.37,0-.75,0-1.12,0-.17,0-.34,.04-.51,.05-.05,0-.1-.03-.15-.05,.02-.05,.03-.11,.06-.15,.04-.05,.1-.08,.16-.11,.61-.29,1.25-.51,1.93-.58,.12-.01,.24-.02,.35-.07,.28-.12,.55-.27,.84-.37,.7-.26,1.38-.55,1.96-1.03,.55-.46,1.09-.94,1.62-1.44,.88-.84,1.85-1.55,2.93-2.11,1.96-1.01,4.05-1.52,6.24-1.69,.23-.02,.46-.04,.7-.05,.55,0,1.1,0,1.65,0Z"/>
</svg>