<?xml version="1.0" encoding="utf-8"?>
<!-- Generator: Adobe Illustrator 24.0.2, SVG Export Plug-In . SVG Version: 6.00 Build 0)  -->
<svg version="1.1" id="Layer_1" xmlns="http://www.w3.org/2000/svg" xmlns:xlink="http://www.w3.org/1999/xlink" x="0px" y="0px"
	 viewBox="0 0 32.4 19.4" style="enable-background:new 0 0 32.4 19.4;" xml:space="preserve">
<style type="text/css">
	.st0{fill:#FF9900;}
	.st1{fill:#CC0000;}
	.st2{fill:#000066;}
	.st3{fill:#FFFFFF;}
</style>
<g>
	<g>
		<polygon class="st0" points="16.2,16.8 16.2,16.8 16.2,16.8 		"/>
		<circle class="st1" cx="9.6" cy="9.7" r="9.6"/>
		<path class="st0" d="M22.7,0c-2.5,0-4.9,1-6.6,2.6c-0.3,0.3-0.6,0.6-0.8,0.9H17c0.3,0.3,0.5,0.7,0.8,1.1h-3.2
			c-0.2,0.3-0.4,0.6-0.5,1h4.3c0.2,0.3,0.3,0.7,0.4,1.1h-5.2c-0.1,0.3-0.2,0.6-0.3,1H19c0.1,0.3,0.1,0.7,0.2,1.1
			c0,0.4,0.1,0.7,0.1,1.1c0,0.7-0.1,1.5-0.2,2.2c-0.1,0.4-0.2,0.7-0.3,1.1h-5.1c0.1,0.3,0.2,0.6,0.4,0.9h4.4
			c-0.2,0.4-0.4,0.7-0.6,1.1h-3.2c0.2,0.3,0.4,0.6,0.6,0.9h2c-0.3,0.4-0.6,0.7-1,1.1c0,0,0,0,0,0c1.7,1.6,4,2.6,6.6,2.6
			c5.4,0,9.7-4.3,9.7-9.7S28.1,0,22.7,0z"/>
	</g>
	<g>
		<g>
			<polygon class="st2" points="1.5,7.4 3,7.4 3.1,10.4 4.1,7.4 5.8,7.4 5,12.3 3.9,12.3 4.5,8.6 3.1,12.3 2.4,12.3 2.3,8.6 
				1.7,12.3 0.7,12.3 			"/>
			<polygon class="st3" points="1.8,7.1 3.3,7.1 3.4,10.1 4.4,7.1 6.1,7.1 5.2,12 4.2,12 4.8,8.3 3.4,12 2.7,12 2.6,8.3 2,12 1,12 
							"/>
		</g>
		<g>
			<g>
				<path class="st2" d="M6.1,8.4L5.9,9.3c0,0,0.5-0.2,1.2-0.2c0,0,0.4,0,0.6,0.2c0,0,0,0.1,0,0.1v0.2c0,0,0,0.1,0,0.1
					S6.8,9.7,6.2,9.9c0,0-1,0.4-0.8,1.8c0,0,0.4,1.2,1.8,0.4c0,0,0.2-0.2,0.2-0.2l0,0.4h0.9l0.2-1.6l0.2-1.1c0,0,0.2-1.1-0.9-1.4
					C7.7,8.2,7,8.1,6.1,8.4L6.1,8.4z"/>
			</g>
			<path class="st1" d="M7.5,10.5c0,0,0,1-0.7,1c0,0-0.5,0-0.4-0.5c0-0.1,0.1-0.4,0.5-0.5C7.1,10.5,7.4,10.5,7.5,10.5z"/>
			<path class="st3" d="M8.1,8C8,7.9,7.3,7.8,6.4,8.1l0,0L6.2,9c0,0,0.5-0.2,1.2-0.2c0,0,0.4,0,0.6,0.2c0,0,0,0.1,0,0.1v0.2
				c0,0,0,0.1,0,0.1c0,0-0.9-0.1-1.5,0.2c0,0-1,0.4-0.8,1.8c0,0,0.4,1.2,1.8,0.4c0,0,0.2-0.2,0.2-0.2l0,0.4h0.9l0.2-1.6L9,9.3
				C9,9.3,9.2,8.2,8.1,8z M7.1,11.2c0,0-0.5,0-0.4-0.5c0-0.1,0.1-0.4,0.5-0.5c0.1,0,0.4,0,0.6,0C7.8,10.2,7.8,11.2,7.1,11.2z"/>
		</g>
		<g>
			<g>
				<path class="st2" d="M22.9,8.4l-0.1,0.9c0,0,0.5-0.2,1.2-0.2c0,0,0.4,0,0.6,0.2c0,0,0,0.1,0,0.1v0.2c0,0,0,0.1,0,0.1
					c0,0-0.9-0.1-1.5,0.2c0,0-1,0.4-0.8,1.8c0,0,0.4,1.2,1.8,0.4c0,0,0.2-0.2,0.2-0.2l0,0.4h0.9l0.2-1.6l0.2-1.1
					c0,0,0.2-1.1-0.9-1.4C24.6,8.2,23.9,8.1,22.9,8.4L22.9,8.4z"/>
			</g>
			<path class="st0" d="M24.4,10.5c0,0,0,1-0.7,1c0,0-0.5,0-0.4-0.5c0-0.1,0.1-0.4,0.5-0.5C23.9,10.5,24.2,10.5,24.4,10.5z"/>
			<path class="st3" d="M25,7.9c-0.1,0-0.8-0.1-1.7,0.2l0,0L23.1,9c0,0,0.5-0.2,1.2-0.2c0,0,0.4,0,0.6,0.2c0,0,0,0.1,0,0.1v0.2
				c0,0,0,0.1,0,0.1c0,0-0.9-0.1-1.5,0.2c0,0-1,0.4-0.8,1.8c0,0,0.4,1.2,1.8,0.4c0,0,0.2-0.2,0.2-0.2l0,0.4h0.9l0.2-1.6l0.2-1.1
				C25.9,9.3,26.1,8.2,25,7.9z M24,11.2c0,0-0.5,0-0.4-0.5c0-0.1,0.1-0.4,0.5-0.5c0.1,0,0.4,0,0.6,0C24.7,10.2,24.7,11.2,24,11.2z"
				/>
		</g>
		<g>
			<path class="st2" d="M11.5,8.3l-0.1,0.9c0,0-1.1-0.2-1.2,0.1c-0.1,0.2,0,0.4,0.3,0.5c0.1,0,1,0.2,0.9,1.3c0,0.1,0,1-1.1,1.2
				c0,0-1.1,0.1-1.6-0.1l0.1-0.9c0,0,0.7,0.2,1.3,0.1c0.1,0,0.4-0.1,0.3-0.4c0,0-0.1-0.2-0.4-0.3c-0.1,0-1-0.4-0.8-1.6
				c0-0.1,0.2-1,1.7-0.9C10.9,8.2,11.4,8.3,11.5,8.3z"/>
			<path class="st3" d="M11.8,8l-0.1,0.9c0,0-1.1-0.2-1.2,0.1c-0.1,0.2,0,0.4,0.3,0.5c0.1,0,1,0.2,0.9,1.3c0,0.1,0,1-1.1,1.2
				c0,0-1.1,0.1-1.6-0.1L9,11c0,0,0.7,0.2,1.3,0.1c0.1,0,0.4-0.1,0.3-0.4c0,0-0.1-0.2-0.4-0.3c-0.1,0-1-0.4-0.8-1.6
				c0-0.1,0.2-1,1.7-0.9C11.2,7.9,11.7,8,11.8,8z"/>
		</g>
		<g>
			<path class="st2" d="M12.2,7.7h1.1l-0.1,0.6h0.5l-0.1,1h-0.5l-0.3,1.8c0,0,0,0.3,0.2,0.3c0.1,0,0.2,0,0.4,0l-0.1,0.9
				c0,0-1.1,0.4-1.4-0.1c0-0.1-0.3-0.3-0.1-1.2C11.6,10.9,12,8.4,12.2,7.7z"/>
			<path class="st3" d="M12.3,7.4h1.1L13.3,8h0.5l-0.1,1h-0.5l-0.3,1.8c0,0,0,0.3,0.2,0.3c0.1,0,0.2,0,0.4,0L13.3,12
				c0,0-1.1,0.4-1.4-0.1c0-0.1-0.3-0.3-0.1-1.2C11.8,10.6,12.2,8.2,12.3,7.4z"/>
		</g>
		<g>
			<path class="st2" d="M16.4,8.7c-0.1-0.1-1-1-2.2-0.2c0,0-1.5,1.5-0.4,3.3c0.1,0.1,0.8,0.8,2.5,0.4l0.2-1c0,0-1.3,0.6-1.9-0.1
				c-0.1-0.1-0.1-0.5-0.1-0.5h2.1C16.6,10.7,16.9,9.4,16.4,8.7z M15.7,9.8h-1.2c0,0,0-0.2,0.1-0.3c0.2-0.5,0.6-0.4,0.7-0.4
				C15.8,9.2,15.7,9.8,15.7,9.8z"/>
			<path class="st3" d="M16.7,8.4c-0.1-0.1-1-1-2.2-0.2c0,0-1.5,1.5-0.4,3.3c0.1,0.1,0.8,0.8,2.5,0.4l0.2-1c0,0-1.3,0.6-1.9-0.1
				c-0.1-0.1-0.1-0.5-0.1-0.5h2.1C16.8,10.4,17.2,9.1,16.7,8.4z M16,9.5h-1.2c0,0,0-0.2,0.1-0.3c0.2-0.5,0.6-0.4,0.7-0.4
				C16.1,8.9,16,9.5,16,9.5z"/>
		</g>
		<g>
			<path class="st2" d="M19.2,8.3c0,0-0.3,0.8-0.4,1.2c0,0-0.2-0.1-0.4,0.1c-0.1,0.1-0.3,0.4-0.4,1.1c0,0.1-0.3,1.7-0.3,1.7h-1.1
				l0.7-4l1,0l-0.1,0.6c0,0,0.4-0.6,0.8-0.6C19,8.3,19.1,8.2,19.2,8.3z"/>
			<path class="st3" d="M19.5,8c0,0-0.3,0.8-0.4,1.2c0,0-0.2-0.1-0.4,0.1c-0.1,0.1-0.3,0.4-0.4,1.1c0,0.1-0.3,1.7-0.3,1.7h-1.1
				l0.7-4l1,0l-0.1,0.6c0,0,0.4-0.6,0.8-0.6C19.2,8,19.4,7.9,19.5,8z"/>
		</g>
		<g>
			<path class="st2" d="M28,8.3c0,0-0.3,0.8-0.4,1.2c0,0-0.2-0.1-0.4,0.1c-0.1,0.1-0.3,0.4-0.4,1.1c0,0.1-0.3,1.7-0.3,1.7h-1.1
				l0.7-4l1,0L27,8.9c0,0,0.4-0.6,0.8-0.6C27.7,8.3,27.9,8.2,28,8.3z"/>
			<path class="st3" d="M28.2,8c0,0-0.3,0.8-0.4,1.2c0,0-0.2-0.1-0.4,0.1c-0.1,0.1-0.3,0.4-0.4,1.1c0,0.1-0.3,1.7-0.3,1.7h-1.1
				l0.7-4l1,0l-0.1,0.6c0,0,0.4-0.6,0.8-0.6C28,8,28.2,7.9,28.2,8z"/>
		</g>
		<path class="st2" d="M22.5,7.5l-0.2,1.1c0,0-1.2-0.9-2,0.3c-0.1,0.1-0.8,1.6,0.1,2.3c0.1,0.1,0.6,0.3,1.4-0.1l-0.2,1.1
			c0,0-1.9,0.6-2.6-0.8c-0.1-0.1-0.9-2.3,0.8-3.8C20.2,7.6,20.9,6.9,22.5,7.5z"/>
		<path class="st3" d="M22.8,7.2l-0.2,1.1c0,0-1.2-0.9-2,0.3c-0.1,0.1-0.8,1.6,0.1,2.3c0.1,0.1,0.6,0.3,1.4-0.1L22.1,12
			c0,0-1.9,0.6-2.6-0.8c-0.1-0.1-0.9-2.3,0.8-3.8C20.4,7.3,21.2,6.6,22.8,7.2z"/>
		<g>
			<path class="st2" d="M30.4,7.4l-0.2,1.4c-0.7-0.9-1.7-0.3-1.7-0.3c-1.4,1.2-1,2.9-0.9,3.1c0.9,1.7,2.1,0.4,2.1,0.4l-0.1,0.4h1
				l0.8-5H30.4z M29.9,10.3c0,0.1-0.2,1.2-0.9,1.1c-0.1,0-0.6,0-0.4-1.3c0-0.1,0.2-0.8,0.8-0.8C29.4,9.3,30,9.2,29.9,10.3z"/>
			<path class="st3" d="M30.7,7.1l-0.2,1.4c-0.7-0.9-1.7-0.3-1.7-0.3c-1.4,1.2-1,2.9-0.9,3.1c0.9,1.7,2.1,0.4,2.1,0.4L29.9,12h1
				l0.8-5H30.7z M30.2,10c0,0.1-0.2,1.2-0.9,1.1c-0.1,0-0.6,0-0.4-1.3c0-0.1,0.2-0.8,0.8-0.8C29.7,8.9,30.3,8.9,30.2,10z"/>
		</g>
	</g>
</g>
</svg>
