<?xml version="1.0" encoding="UTF-8"?>
<svg id="Layer_1" data-name="Layer 1" xmlns="http://www.w3.org/2000/svg" viewBox="0 0 43 43">
  <defs>
    <style>
      .cls-1 {
        font-family: MyriadPro-Regular, 'Myriad Pro';
        font-size: 5px;
      }

      .cls-1, .cls-2 {
        fill: #b1b1b1;
      }

      .cls-3 {
        fill: #fff;
        stroke: #ccc;
        stroke-miterlimit: 10;
      }
    </style>
  </defs>
  <rect class="cls-3" x="2.46" y="2.52" width="38.09" height="37.96" rx="8" ry="8"/>
  <g>
    <path class="cls-2" d="M33.88,27.11c-.52-.12-.95-.27-1.22-.76-.13-.25-.35-.49-.62-.58-.86-.29-1.74-.74-2.62-.75-1.06,0-2.05-.23-3.07-.42-.16-.03-.3-.07-.46,0-1.29,.48-2.65,.65-4.01,.74-2.41,.17-4.8,0-7.14-.69-.24-.07-.48-.08-.74-.05-.84,.07-1.64,.37-2.5,.45-.71,.06-1.54,.63-2,1.28-.33,.48-.68,.71-1.18,.87-.46,.14-.92,.3-1.38,.46-.52,.18-1.03,.36-1.62,.57,.34,.15,.59,.13,.83,.13,1.4-.01,2.8-.02,4.2-.04,.72-.01,1.38,.17,1.98,.57,1.16,.78,2.43,.88,3.63,.26,1.34-.69,2.56-.66,3.89,0,1.07,.53,2.25,.52,3.33-.04,1.24-.65,2.38-.63,3.63,0,1.26,.63,2.57,.57,3.79-.21,.65-.42,1.35-.56,2.1-.56,1.4,.01,2.8,.03,4.2,.04,.22,0,.45,.05,.73-.09-1.3-.42-2.51-.87-3.77-1.15Z"/>
    <path class="cls-2" d="M14.63,13.18c-.03,.21-.24,.29-.19,.51,.39-.19,.78-.38,1.17-.57,.02,.23-.26,.33-.12,.54,.37-.16,.68-.44,1.1-.52-.01,.21-.28,.23-.25,.43,.25,.06,.44-.21,.73-.12-.81,1.2-1.18,2.5-.95,3.98,.18-.54,.22-1.08,.55-1.53,.13,.2,.06,.45,.26,.61,.13-.38,.05-.79,.25-1.18,.11,.15,.2,.27,.33,.44,.12-.45,.21-.83,.35-1.36,.14,.23,.23,.38,.35,.58,.1-.36,.17-.62,.25-.87,.04-.13,.07-.31,.24-.32,.16,0,.22,.17,.28,.29,.05,.09,.08,.2,.11,.3,.57,2.31,.87,4.65,.68,7.04-.03,.44-.18,.61-.62,.68-1.41,.22-2.61,.87-3.58,1.93-.35,.38-.31,.48,.16,.58,.52,.11,1.05,.22,1.58,.31,2.55,.47,5.07,.3,7.59-.25,.65-.14,.67-.23,.2-.71-.94-.97-2.09-1.57-3.41-1.82-.38-.07-.52-.2-.53-.61-.05-2.29-.42-4.53-1.25-6.68-.02-.06-.02-.13-.03-.2,.43,0,.21-.5,.48-.64,.29,.32,.39,.75,.64,1.1,.18-.08,.08-.33,.3-.41,.19,.33,.38,.65,.56,.97,.24-.15,0-.36,.13-.52,.43,.35,.57,.88,1,1.3-.43-1.78-1.25-3.15-2.87-3.98,.57,.41,1.2-.17,1.74,.23,.04-.22-.21-.27-.15-.51,.44,.17,.88,.34,1.42,.55-.12-.23-.18-.34-.25-.48,.48-.02,.88,.21,1.44,.26-1.09-.86-2.17-1.39-3.49-1.25-.11,0-.22,0-.33-.01-.04-.32-.42-.08-.54-.3,.32-.28,.8-.19,1.1-.49-.14-.17-.37-.13-.56-.25,.45-.33,1.03-.25,1.48-.65-.26-.04-.42-.06-.69-.1,.43-.31,.88-.35,1.31-.57-1.57-.26-3.14,.73-4.03,2.49-1.88-1.43-2.63-1.75-4.02-1.67,.44,.24,.94,.29,1.3,.64-.19,.08-.4,.02-.51,.23,.43,.2,.95,.1,1.35,.4-.1,.13-.34,.04-.36,.26,.31,.15,.68,.09,.95,.35q-.37,.18-.06,.44c-1.63-.09-2.89,.67-4.01,1.74,.46-.19,.93-.38,1.42-.58Z"/>
    <path class="cls-2" d="M32.88,25.06c.55,0,1.11,0,1.66,0,0,0,0,0,0,0,.59,0,1.18,0,1.77,0,.1,0,.24,.03,.25-.12,0-.06-.09-.16-.16-.19-.45-.17-.75-.53-1.07-.84-.67-.66-.63-.67-1.38-.23-.47,.28-.93,.53-1.24,1-.06,.1-.23,.16-.14,.31,.06,.11,.19,.07,.29,.07Z"/>
    <path class="cls-2" d="M31.09,22.8c-.11-.09-.25-.15-.39-.04-.39,.31-.78,.62-1.25,.99h2.76c-.38-.33-.75-.64-1.12-.95Z"/>
    <path class="cls-2" d="M30.62,29.88c-1.33,.79-2.67,.81-4.02,.04-.7-.4-1.47-.43-2.25-.3-.52,.09-.98,.34-1.45,.54-1.08,.45-2.13,.41-3.15-.16-.39-.22-.81-.36-1.26-.44-.92-.16-1.73,.14-2.53,.51-.74,.34-1.52,.45-2.31,.25-.46-.11-.9-.33-1.35-.5-1.38-.59-2.78-.57-4.15,.1,.95-.11,1.91-.21,2.86,0,.58,.23,1.12,.54,1.67,.86,1.04,.6,2.15,.74,3.25,.23,1.4-.66,2.77-.63,4.15,0,.88,.4,1.79,.45,2.66,.05,1.52-.7,2.99-.66,4.52,.01,.95,.42,2,.44,2.9-.15,1.21-.79,2.48-1.17,3.92-1.02,.34,.07,.68,.15,1.02,.22-1.46-.83-2.95-1.09-4.49-.22Z"/>
  </g>
  <text class="cls-1" transform="translate(6.39 36.16)"><tspan x="0" y="0">Mid size Island</tspan></text>
</svg>