<?xml version="1.0" encoding="UTF-8"?>
<svg id="Layer_1" data-name="Layer 1" xmlns="http://www.w3.org/2000/svg" viewBox="0 0 43 43">
  <defs>
    <style>
      .cls-1 {
        fill: #aeb2b2;
      }

      .cls-2 {
        fill: #fff;
        stroke: #aeb2b2;
        stroke-miterlimit: 10;
      }
    </style>
  </defs>
  <rect class="cls-2" x="2.46" y="2.52" width="38.09" height="37.96" rx="8" ry="8"/>
  <g>
    <path class="cls-1" d="M35.19,15.61c-.1,.49-.16,1-.32,1.48-.85,2.61-2.62,4.24-5.29,4.82-1.98,.43-3.81-.01-5.51-1.19,.13-.15,.25-.29,.36-.43,.12-.14,.23-.27,.36-.42,1.92,1.24,3.94,1.45,6.01,.44,1.55-.76,2.55-2.02,3.04-3.68,.92-3.11-1.08-6.52-4.27-7.27-3.49-.82-6.91,1.58-7.25,5.26h-1.14c.07-.43,.11-.86,.22-1.26,.86-2.92,2.77-4.7,5.78-5.2,3.3-.55,6.61,1.54,7.62,4.72,.15,.48,.22,.99,.32,1.48,.01,.06,.03,.12,.05,.18v1.07Z"/>
    <path class="cls-1" d="M17.33,33.41v-4.29c0-.62,0-1.25,0-1.87,0-.2-.05-.35-.18-.5-3.05-3.61-6.09-7.22-9.14-10.83-.05-.06-.11-.12-.15-.19-.16-.28,0-.6,.32-.64,.09-.01,.18,0,.27,0,6.22,0,12.45,0,18.67,0,.06,0,.13-.02,.19,0,.14,.07,.35,.13,.4,.24,.06,.13,.03,.37-.06,.48-.41,.53-.85,1.03-1.28,1.54-2.63,3.11-5.25,6.23-7.87,9.35-.09,.11-.16,.28-.16,.43-.01,2.01,0,4.03-.01,6.04,0,.23,.08,.3,.28,.36,1.04,.3,2.09,.61,3.13,.91,.06,.02,.13,.02,.18,.06,.07,.06,.16,.16,.15,.21-.02,.08-.12,.15-.21,.2-.05,.03-.12,0-.18,0-2.58,0-5.15,0-7.73,0-.05,0-.12,.02-.16,0-.09-.05-.17-.12-.25-.19,.06-.08,.11-.21,.19-.24,.33-.12,.68-.21,1.02-.31,.86-.25,1.72-.51,2.6-.77ZM9.17,15.94c2.31,2.74,4.57,5.43,6.84,8.11,0-.12-.05-.2-.1-.28-.52-.85-1.04-1.7-1.56-2.55-1.04-1.69-2.07-3.39-3.12-5.08-.05-.08-.16-.19-.25-.19-.58-.02-1.16,0-1.81,0Z"/>
    <path class="cls-1" d="M31.68,18.74c-.71,.72-1.96,1.31-2.77,1.32-.08-1.3-.15-2.6-.24-3.99,1.03,.91,2.01,1.79,3,2.67Z"/>
    <path class="cls-1" d="M32.25,18.11c-1-.89-1.97-1.76-3.01-2.68,1.38-.08,2.68-.16,4.02-.23-.03,1.07-.37,2.02-1.01,2.91Z"/>
    <path class="cls-1" d="M24.71,11.4c.79-.74,1.7-1.17,2.77-1.34,.08,1.32,.15,2.63,.24,4.02-1.03-.92-2.01-1.79-3.01-2.67Z"/>
    <path class="cls-1" d="M31.86,11.6c.71,.69,1.27,1.86,1.33,2.76-1.31,.08-2.62,.15-4,.23,.91-1.02,1.78-2,2.67-3Z"/>
    <path class="cls-1" d="M28.33,10.01c1.09,.04,2.04,.37,2.9,1.02-.88,.99-1.75,1.97-2.67,3.01-.08-1.38-.16-2.69-.23-4.02Z"/>
    <path class="cls-1" d="M25.35,19.22c.81-.97,1.63-1.93,2.49-2.95,.08,1.33,.15,2.58,.22,3.84-.74,.09-2.05-.34-2.71-.88Z"/>
    <path class="cls-1" d="M27.06,14.63h-3.87c.02-.83,.4-1.86,.97-2.59,.95,.85,1.91,1.7,2.9,2.59Z"/>
  </g>
</svg>