<?xml version="1.0" encoding="UTF-8"?>
<svg id="Layer_1" data-name="Layer 1" xmlns="http://www.w3.org/2000/svg" viewBox="0 0 43 43">
  <defs>
    <style>
      .cls-1 {
        fill: #b1b1b1;
      }

      .cls-2 {
        fill: #fff;
        stroke: #ccc;
        stroke-miterlimit: 10;
      }
    </style>
  </defs>
  <rect class="cls-2" x="2.46" y="2.52" width="38.09" height="37.96" rx="8" ry="8"/>
  <path class="cls-1" d="M14,25.14c-.37-.31-.25-.71-.23-1.08,0-.06,.04-.14,.08-.17,.38-.18,.28-.52,.29-.83,.02-.98-.07-1.97,.06-2.93,.41-3.01,2.56-5.12,5.58-5.57,.06,0,.13-.02,.18-.03,.2-.85,.22-.87,.66-.99,.22-.29,.41-.47,.5-.69,.08-.17,.02-.4,.06-.59,.05-.29-.14-.32-.35-.38-1.55-.43-2.45-2.02-2.04-3.57,.41-1.53,2.01-2.47,3.53-2.07,.06,.01,.11,.05,.2,.09-1.48,.12-2.32,.73-2.61,1.87-.26,1,.15,2.06,1.02,2.64,.98,.65,2,.54,3.16-.34-.15,.66-1.14,1.32-2.29,1.51,0,.25,0,.5,0,.75,0,.04,.05,.09,.07,.13,.13,.18,.25,.35,.33,.57,.56,.12,.82,.48,.77,.99,.74,.24,1.48,.38,2.14,.7,2.38,1.16,3.63,3.1,3.72,5.75,.03,.84,0,1.67,0,2.51,0,.16,0,.28,.18,.4,.33,.21,.31,.95-.03,1.35,1.51,.36,2.22,1.35,2.2,2.89,.1,.01,.18,.03,.26,.03,.52,.01,.68,.17,.68,.71,0,2.2,0,4.4,0,6.6,0,.13,0,.26,0,.38,.59,.17,.68,.28,.63,.71-.03,.23-.15,.37-.39,.4-.06,0-.13,0-.19,0-7.13,0-14.25,0-21.38,0-.48,0-.67-.22-.59-.68,.06-.33,.3-.38,.63-.38,0-.14,0-.26,0-.38,0-2.18,0-4.36,0-6.54,0-.68,.09-.78,.76-.82,.05,0,.1-.02,.17-.03-.02-1.52,.67-2.51,2.21-2.89Zm9.99,10.27c.01-.06,.03-.09,.03-.12,0-2.18,0-4.36,0-6.53,0-.49-.19-.92-.48-1.31-.64-.87-1.75-1.23-2.78-.92-1.03,.31-1.76,1.24-1.77,2.32-.02,2.13,0,4.27,0,6.41,0,.05,.02,.1,.03,.15h4.99Zm-10.48-.02h3.34c0-1.45,.02-2.88,0-4.31-.01-.92-.77-1.62-1.67-1.61-.91,0-1.63,.71-1.66,1.62-.01,.37,0,.75,0,1.13,0,1.05,0,2.1,0,3.17Zm15.96,.02c0-1.51,.03-2.99-.01-4.46-.02-.61-.39-1.06-.95-1.32-1.11-.51-2.35,.27-2.37,1.52-.02,1.35,0,2.7,0,4.05,0,.07,.02,.14,.03,.21h3.3Z"/>
</svg>