<?xml version="1.0" encoding="UTF-8"?>
<svg id="Layer_1" data-name="Layer 1" xmlns="http://www.w3.org/2000/svg" viewBox="0 0 43 43">
  <defs>
    <style>
      .cls-1 {
        fill: #b1b1b1;
      }

      .cls-2 {
        fill: #fff;
        stroke: #ccc;
        stroke-miterlimit: 10;
      }

      .cls-3 {
        fill: red;
      }
    </style>
  </defs>
  <rect class="cls-2" x="2.46" y="2.52" width="38.09" height="37.96" rx="8" ry="8"/>
  <g>
    <path class="cls-1" d="M16.22,16.78c-.1,0-.18,0-.25,0-2.96,0-5.92,0-8.88,0-.06,0-.12,0-.18,0-.2-.02-.34-.16-.34-.35,0-.19,.13-.34,.33-.36,.09,0,.17,0,.26,0,2.95,0,5.89,0,8.84,0,.06,0,.13,0,.22,0,0-.44,0-.85,0-1.26,0-.65,.15-1.27,.43-1.86,1.34-2.88,5.1-3.59,7.4-1.39,.05,.05,.1,.09,.12,.12,.35-.26,.67-.53,1.02-.75,2.84-1.73,6.63,.16,6.95,3.47,.04,.47,.02,.94,.03,1.42,0,.08,0,.16,0,.26,.09,0,.16,0,.24,0,1.17,0,2.33,0,3.5,0,.07,0,.15,0,.22,0,.19,.03,.31,.18,.3,.36,0,.19-.14,.32-.33,.34-.08,0-.16,0-.24,0-3.46,0-6.93,0-10.39,0-.08,0-.16,0-.25,0v7.85c.06-.04,.11-.06,.15-.09,.68-.44,1.56-.39,2.18,.13,.17,.15,.33,.31,.5,.46,.47,.4,1.04,.4,1.51,0,.15-.13,.29-.28,.44-.41,.75-.65,1.73-.64,2.47,0,.15,.13,.29,.28,.44,.41,.44,.38,1.03,.39,1.48,.01,.19-.16,.36-.34,.55-.49,.32-.27,.69-.4,1.1-.41,.23,0,.38,.13,.4,.33,.01,.21-.13,.37-.37,.38-.33,0-.59,.15-.82,.37-.14,.13-.28,.27-.43,.39-.71,.58-1.68,.56-2.37-.03-.16-.13-.3-.28-.45-.42-.48-.42-1.06-.42-1.54,0-.17,.14-.32,.31-.49,.45-.72,.59-1.68,.58-2.38-.03-.15-.13-.29-.27-.44-.41-.48-.43-1.08-.43-1.56,0-.17,.15-.33,.32-.5,.46-.7,.56-1.65,.55-2.33-.02-.16-.13-.3-.28-.46-.42-.5-.44-1.08-.44-1.58,0-.15,.14-.3,.29-.46,.42-.68,.57-1.62,.58-2.32,.03-.17-.13-.32-.29-.47-.43-.52-.47-1.11-.47-1.63,0-.15,.14-.3,.29-.46,.42-.7,.57-1.66,.56-2.35-.03-.15-.12-.28-.26-.43-.39-.5-.46-1.11-.46-1.62,0-.14,.13-.28,.27-.43,.39-.72,.61-1.7,.61-2.41,0-.14-.12-.26-.24-.39-.37-.23-.21-.48-.35-.8-.35-.24,0-.38-.16-.37-.38,.01-.2,.16-.33,.4-.33,.37,0,.71,.11,1.01,.34,.19,.15,.37,.32,.55,.49,.52,.47,1.11,.48,1.63,0,.15-.13,.29-.28,.44-.41,.7-.58,1.67-.58,2.37,0,.15,.12,.28,.26,.43,.39,.5,.46,1.11,.47,1.62,.01,.1-.09,.2-.2,.31-.29,.17-.13,.33-.31,.52-.36,.37-.1,.39-.32,.39-.64-.01-2.25,0-4.5,0-6.76v-.27Zm15.24-.72c0-.49,.02-.96,0-1.42-.11-1.96-1.76-3.57-3.71-3.65-2.27-.09-4.11,1.67-4.11,3.95,0,3.36,0,6.73,0,10.09,0,.42,0,.43,.43,.39,.01,0,.03,0,.04,0,.34-.04,.39-.09,.39-.43,0-3.36,0-6.73,0-10.09,0-1.51,1.09-2.77,2.58-3.01,1.46-.24,2.89,.62,3.36,2.04,.11,.32,.14,.68,.16,1.02,.03,.37,0,.74,0,1.12h.85Zm-13.67,8.53c0-.06,0-.14,0-.21,0-3.15,0-6.3,0-9.45,0-1.29,.79-2.44,1.97-2.89,1.21-.45,2.54-.12,3.4,.86,.04,.05,.09,.09,.14,.14,.12-.22,.22-.43,.35-.62,.08-.12,.07-.2-.03-.3-.72-.7-1.59-1.1-2.59-1.14-2.26-.09-4.09,1.68-4.09,3.94,0,2.96,0,5.93,0,8.89,0,.11,0,.23,0,.34,0,.05,.05,.11,.09,.13,.24,.1,.49,.2,.76,.3Zm12.11-8.53c0-.43,0-.83,0-1.24-.03-1.19-.96-2.16-2.17-2.27-1.14-.1-2.26,.7-2.46,1.84-.09,.53-.04,1.09-.06,1.63,0,0,.01,.02,.03,.03h4.66Zm-6.97,0c0-.31,0-.61,0-.9,.01-.33,.04-.66,.05-1,0-.12,0-.26-.06-.36-.48-.85-1.22-1.3-2.2-1.25-1.01,.06-1.71,.61-2.08,1.55-.24,.63-.1,1.29-.14,1.94h4.43Zm0,8.82c0-.09,.01-.15,.01-.21,0-.54,0-1.08,0-1.62,0-.18-.05-.22-.23-.22-1.33,0-2.65,0-3.98,0-.07,0-.14,0-.22,0,0,.07,0,.13,0,.18,0,.72,0,1.44,0,2.16,0,.06,.08,.14,.14,.16,.43,.16,.82,.11,1.18-.19,.18-.15,.34-.32,.52-.47,.66-.55,1.59-.57,2.27-.06,.1,.07,.18,.15,.31,.26Zm0-8.08h-4.4v1.28h4.4v-1.28Zm-4.4,5.32h4.4v-1.28h-4.4v1.28Zm0-2.02h4.39v-1.28h-4.39v1.28Z"/>
    <path class="cls-1" d="M33.65,29.43c-.47,0-.87-.15-1.21-.46-.16-.14-.31-.3-.47-.43-.46-.38-1.02-.39-1.48,0-.16,.13-.3,.28-.46,.42-.74,.65-1.73,.65-2.47,0-.17-.14-.32-.3-.49-.44-.43-.35-.99-.35-1.41,0-.14,.11-.27,.24-.4,.37-.8,.74-1.82,.75-2.62,.02-.13-.12-.26-.25-.4-.37-.43-.37-1.01-.38-1.45-.01-.15,.13-.29,.27-.44,.41-.77,.69-1.8,.69-2.56-.02-.12-.11-.24-.23-.37-.34-.46-.41-1.06-.42-1.52-.02-.18,.16-.35,.33-.53,.48-.69,.56-1.64,.55-2.32-.02-.15-.13-.29-.27-.44-.41-.5-.46-1.11-.46-1.62,0-.15,.14-.3,.29-.46,.42-.71,.59-1.68,.57-2.38-.03-.14-.12-.27-.24-.4-.37-.22-.22-.48-.35-.8-.35-.23,0-.38-.15-.37-.36,0-.21,.16-.36,.4-.35,.43,.01,.81,.15,1.13,.43,.16,.14,.3,.28,.45,.42,.49,.43,1.08,.44,1.57,.01,.13-.11,.25-.24,.38-.36,.75-.68,1.76-.69,2.52-.02,.14,.12,.27,.26,.41,.38,.45,.4,1.04,.42,1.51,.03,.16-.13,.3-.28,.46-.42,.75-.65,1.75-.64,2.49,.01,.12,.11,.23,.22,.35,.33,.52,.48,1.12,.48,1.65,0,.16-.14,.31-.3,.47-.43,.68-.54,1.61-.54,2.29,0,.18,.14,.33,.31,.5,.46,.47,.42,1.06,.42,1.54,.01,.14-.12,.26-.25,.4-.37,.77-.69,1.77-.69,2.53,0,.15,.14,.3,.29,.46,.42,.4,.33,.97,.35,1.38,.03,.15-.11,.28-.25,.41-.38,.8-.76,1.82-.77,2.64-.04,.12,.11,.24,.23,.37,.34,.47,.41,1.05,.41,1.53,0,.14-.12,.27-.26,.41-.38,.33-.3,.72-.48,1.17-.5,.26-.01,.43,.11,.44,.33,.02,.23-.13,.37-.41,.38-.28,.01-.52,.12-.72,.31-.16,.15-.32,.3-.49,.45-.34,.29-.73,.43-1.17,.42Z"/>
    <path class="cls-1" d="M33.82,32.72c-.62,0-1.02-.14-1.36-.44-.16-.14-.31-.29-.47-.43-.46-.4-1.04-.41-1.51-.02-.19,.16-.36,.34-.55,.49-.69,.55-1.62,.54-2.3-.02-.16-.13-.3-.28-.46-.42-.5-.46-1.11-.46-1.61,0-.13,.12-.26,.25-.4,.37-.74,.64-1.73,.64-2.46,0-.16-.14-.31-.3-.47-.43-.44-.37-1.02-.37-1.46,0-.14,.12-.26,.25-.39,.37-.79,.72-1.78,.72-2.58,.01-.13-.12-.26-.25-.4-.37-.45-.39-1.05-.39-1.51,0-.19,.17-.37,.35-.57,.51-.69,.53-1.6,.51-2.27-.04-.16-.13-.3-.28-.46-.42-.51-.46-1.1-.46-1.61,0-.14,.12-.27,.26-.41,.38-.73,.63-1.72,.62-2.44-.01-.12-.11-.24-.21-.35-.33-.24-.24-.51-.37-.85-.38-.22,0-.35-.16-.35-.36,0-.2,.15-.34,.37-.34,.45,0,.84,.14,1.17,.43,.18,.15,.34,.32,.52,.47,.43,.36,1.02,.36,1.45,0,.16-.13,.3-.28,.46-.42,.76-.67,1.76-.66,2.52,.01,.12,.11,.23,.22,.35,.33,.5,.46,1.11,.46,1.62,0,.13-.12,.26-.25,.39-.37,.72-.63,1.69-.64,2.43-.03,.16,.14,.31,.29,.47,.43,.47,.41,1.06,.4,1.52,0,.17-.15,.33-.31,.5-.46,.69-.57,1.62-.57,2.32,0,.18,.14,.33,.31,.5,.46,.47,.41,1.06,.42,1.54,0,.17-.15,.33-.31,.5-.46,.69-.56,1.63-.56,2.32,0,.17,.14,.32,.3,.49,.44,.49,.43,1.08,.43,1.57,0,.15-.14,.3-.28,.46-.42,.67-.57,1.63-.59,2.32-.04,.18,.14,.33,.31,.5,.46,.49,.44,1.07,.44,1.57,.01,.15-.13,.29-.27,.44-.41,.33-.29,.71-.45,1.15-.45,.25,0,.4,.12,.41,.33,.01,.22-.13,.36-.38,.37-.34,.01-.61,.17-.85,.4-.15,.14-.3,.29-.46,.41-.33,.26-.68,.37-.92,.37Z"/>
  </g>
  <polygon class="cls-3" points="23 21.44 28.29 14.44 26.81 12.47 21.45 19.59 16.14 12.43 14.64 14.42 20.03 21.51 14.68 28.53 16.21 30.57 21.5 23.37 26.79 30.55 28.36 28.48 23 21.44"/>
</svg>