<?xml version="1.0" encoding="UTF-8"?>
<svg id="Layer_1" data-name="Layer 1" xmlns="http://www.w3.org/2000/svg" viewBox="0 0 43 43">
  <defs>
    <style>
      .cls-1 {
        font-family: MyriadPro-Regular, 'Myriad Pro';
        font-size: 7.87px;
      }

      .cls-1, .cls-2 {
        fill: #b1b1b1;
      }

      .cls-3 {
        fill: #fff;
        stroke: #ccc;
        stroke-miterlimit: 10;
      }
    </style>
  </defs>
  <rect class="cls-3" x="2.46" y="2.52" width="38.09" height="37.96" rx="8" ry="8"/>
  <g>
    <path class="cls-2" d="M35.75,29.98c-.03,.5-.29,.88-.77,1.11-.47,.22-.93,.17-1.32-.16-.41-.36-.78-.76-1.17-1.15-.92-.93-1.84-1.87-2.75-2.8-.04-.04-.08-.08-.11-.12-.36-.48-.86-.71-1.44-.85-1.09-.27-2.16-.6-3.24-.9-1.21-.34-2.42-.67-3.62-1.01-.63-.18-1.26-.35-1.89-.53-.89-.25-1.52-.8-1.97-1.61-1.56-2.78-3.15-5.54-4.72-8.31-.15-.26-.31-.5-.41-.79-.36-1,.29-2.12,1.34-2.29,.79-.13,1.47,.19,1.88,.91,1.32,2.33,2.64,4.65,3.93,6.99,.24,.43,.54,.61,.98,.73,1.35,.35,2.69,.74,4.03,1.12,.63,.18,1.25,.39,1.89,.53,.97,.22,1.75,.73,2.41,1.45,.53,.58,1.09,1.12,1.64,1.68,1.66,1.69,3.31,3.39,4.97,5.08,.24,.25,.35,.56,.36,.94Z"/>
    <path class="cls-2" d="M29.91,21.53c0-1.26,.96-2.34,2.18-2.47,1.3-.14,2.49,.71,2.74,1.97,.04,.19,.07,.39,.04,.57-.03,.22,.06,.32,.23,.41,.46,.24,.92,.5,1.38,.75,.09,.05,.11,.07,.03,.16-.63,.67-1.25,1.35-1.87,2.03-.1,.11-.13,.09-.21-.01-.26-.36-.54-.7-.8-1.06-.08-.12-.14-.12-.26-.07-1.14,.49-2.42,.1-3.09-.94-.26-.4-.38-.84-.38-1.35Z"/>
    <path class="cls-2" d="M20.29,17.34c.03-.23,.13-.5,.21-.78,.11-.41,.22-.83,.35-1.23,.14-.46,.49-.64,.95-.51,.89,.25,1.78,.5,2.67,.75,.96,.27,1.91,.55,2.87,.81,.1,.03,.11,.05,.09,.15-.28,1.01-.56,2.01-.84,3.02-.02,.09-.04,.15-.18,.11-1.34-.38-2.68-.75-4.02-1.12-.5-.14-1-.27-1.49-.41-.4-.11-.6-.36-.6-.78Z"/>
    <path class="cls-2" d="M6.43,6.41c1.19,0,2.35,0,3.5,0,.43,0,.86,.02,1.29,0,.13,0,.19,.05,.24,.15,.39,.77,.78,1.53,1.18,2.3,.11,.21,.21,.43,.33,.64,.06,.1,.04,.16-.04,.24-.54,.48-1.08,.95-1.61,1.44-.1,.09-.14,.08-.23,0-.58-.6-1.17-1.2-1.76-1.8-.93-.95-1.85-1.89-2.77-2.84-.04-.04-.07-.08-.13-.14Z"/>
    <path class="cls-2" d="M30.21,18.4c0,1.21-1.12,2.02-2.2,1.72-.19-.05-.37-.12-.55-.17-.1-.03-.13-.04-.1-.16,.26-.92,.51-1.84,.77-2.76,.11-.4,.12-.4,.52-.3,.56,.14,1.05,.38,1.34,.92,.14,.27,.22,.55,.22,.76Z"/>
  </g>
  <text class="cls-1" transform="translate(13.77 35.44)"><tspan x="0" y="0">PADI</tspan></text>
</svg>