<?xml version="1.0" encoding="UTF-8"?>
<svg id="Layer_1" data-name="Layer 1" xmlns="http://www.w3.org/2000/svg" viewBox="0 0 43 43">
  <defs>
    <style>
      .cls-1 {
        fill: #aeb2b2;
      }

      .cls-2 {
        fill: #fff;
        stroke: #aeb2b2;
        stroke-miterlimit: 10;
      }
    </style>
  </defs>
  <rect class="cls-2" x="2.46" y="2.52" width="38.09" height="37.96" rx="8" ry="8"/>
  <g>
    <path class="cls-1" d="M18.46,25.94c.39-1.39,1.15-2.49,2.25-3.27,.61-.43,1.29-.7,2.03-.86-.14-.12-.28-.23-.44-.33-1.02-.63-2.13-.75-3.29-.54-.85,.16-1.62,.5-2.32,1.01-.01-.01-.02-.02-.02-.02-.01-.03-.02-.05-.04-.08-.44-.97-1.08-1.77-1.96-2.38-.79-.54-1.66-.85-2.64-.82-1.08,.04-2.01,.47-2.82,1.18-.97,.85-1.52,1.91-1.54,3.23,0,.87,.18,1.71,.48,2.52,.43,1.19,1.04,2.29,1.71,3.36,1.04,1.65,2.23,3.2,3.47,4.71,.06,.08,.12,.08,.2,.05,1.4-.5,2.78-1.03,4.13-1.65,.62-.28,1.23-.58,1.83-.9-.14-.18-.27-.37-.39-.56-.88-1.39-1.1-3-.64-4.65Z"/>
    <path class="cls-1" d="M26.96,24.27c.29-.75,.71-1.41,1.29-1.96,.79-.75,1.72-1.22,2.83-1.24,1.02-.02,1.91,.35,2.7,.99,.51,.41,.93,.9,1.2,1.5,.3,.66,.38,1.35,.33,2.07-.06,.92-.34,1.78-.68,2.63-.49,1.18-1.12,2.28-1.81,3.36-.74,1.16-1.54,2.27-2.37,3.37-.05,.07-.09,.09-.18,.07-1.72-.55-3.43-1.15-5.07-1.9-1.06-.49-2.09-1.03-3.03-1.74-.64-.48-1.21-1.03-1.65-1.72-.65-1.03-.76-2.13-.44-3.28,.27-.96,.77-1.76,1.59-2.34,.74-.52,1.57-.72,2.46-.7,.99,.02,1.89,.33,2.72,.85,.02,.01,.04,.03,.07,.04,0,0,.01,0,.03,0Z"/>
    <path class="cls-1" d="M24.09,16.77c.1-.26,.24-.48,.44-.67,.27-.26,.59-.42,.97-.43,.35,0,.65,.12,.92,.34,.17,.14,.32,.31,.41,.51,.1,.22,.13,.46,.11,.71-.02,.31-.11,.61-.23,.9-.17,.4-.38,.78-.62,1.15-.25,.4-.53,.78-.81,1.15-.02,.02-.03,.03-.06,.02-.59-.19-1.17-.39-1.73-.65-.36-.17-.71-.35-1.03-.59-.22-.17-.41-.35-.56-.59-.22-.35-.26-.73-.15-1.12,.09-.33,.26-.6,.54-.8,.25-.18,.54-.25,.84-.24,.34,0,.65,.11,.93,.29,0,0,.02,.01,.02,.01,0,0,0,0,.01,0Z"/>
    <path class="cls-1" d="M19.89,13.44c.19-.11,.39-.17,.6-.19,.29-.02,.56,.04,.8,.22,.22,.17,.34,.4,.4,.66,.04,.17,.04,.34,0,.52-.05,.19-.15,.35-.28,.49-.17,.18-.37,.31-.58,.43-.3,.16-.62,.29-.94,.4-.35,.12-.7,.21-1.06,.3-.02,0-.03,0-.05-.02-.27-.4-.52-.82-.74-1.25-.14-.28-.26-.57-.34-.87-.05-.21-.08-.42-.05-.63,.04-.32,.2-.57,.46-.76,.22-.15,.46-.24,.73-.22,.24,.02,.45,.11,.63,.27,.2,.17,.34,.39,.42,.64,0,0,0,.01,0,.02,0,0,0,0,0,0Z"/>
    <path class="cls-1" d="M22.48,8.65c.05-.16,.14-.3,.25-.42,.16-.16,.35-.27,.58-.29,.21-.01,.4,.06,.57,.18,.11,.08,.2,.18,.26,.3,.07,.13,.09,.28,.09,.43,0,.19-.05,.38-.12,.55-.09,.25-.21,.49-.35,.72-.14,.25-.3,.49-.47,.72,0,.01-.02,.02-.04,.02-.36-.1-.73-.21-1.08-.35-.23-.09-.45-.2-.65-.34-.14-.1-.26-.2-.36-.34-.15-.21-.18-.44-.12-.68,.05-.2,.14-.37,.31-.5,.15-.12,.32-.16,.51-.17,.21,0,.4,.05,.58,.15,0,0,0,0,.01,0,0,0,0,0,0,0Z"/>
  </g>
</svg>