<?xml version="1.0" encoding="UTF-8"?>
<svg id="Layer_1" data-name="Layer 1" xmlns="http://www.w3.org/2000/svg" viewBox="0 0 43 43">
  <defs>
    <style>
      .cls-1 {
        fill: #aeb2b2;
      }

      .cls-2 {
        fill: #fff;
        stroke: #aeb2b2;
        stroke-miterlimit: 10;
      }
    </style>
  </defs>
  <rect class="cls-2" x="2.46" y="2.52" width="38.09" height="37.96" rx="8" ry="8"/>
  <g>
    <rect class="cls-1" x="7.56" y="29.21" width="27.88" height="2.33" rx="1.16" ry="1.16"/>
    <path class="cls-1" d="M21.5,15.24c-6.89,0-12.47,5.59-12.47,12.48,0,.15,.02,.3,.02,.45h24.9c0-.15,.02-.3,.02-.45,0-6.89-5.59-12.48-12.47-12.48Zm-.9,2.96c-4.18,0-7.65,3.26-7.91,7.42-.02,.25-.22,.44-.46,.44h-.03c-.26-.02-.45-.24-.44-.49,.29-4.65,4.18-8.3,8.84-8.3,.26,0,.47,.21,.47,.47s-.21,.47-.47,.47Z"/>
    <circle class="cls-1" cx="21.5" cy="12.84" r="1.45"/>
  </g>
</svg>