<?xml version="1.0" encoding="UTF-8"?>
<svg id="Layer_1" data-name="Layer 1" xmlns="http://www.w3.org/2000/svg" viewBox="0 0 43 43">
  <defs>
    <style>
      .cls-1 {
        fill: #aeb2b2;
      }

      .cls-2 {
        fill: #fff;
        stroke: #aeb2b2;
        stroke-miterlimit: 10;
      }
    </style>
  </defs>
  <rect class="cls-2" x="2.46" y="2.52" width="38.09" height="37.96" rx="8" ry="8"/>
  <g>
    <path class="cls-1" d="M31.09,21.91c-.25,0-.51,0-.76,0-.12,0-.18-.03-.22-.15-.13-.34-.27-.68-.43-1-.42-.81-.99-1.49-1.72-2.03-.83-.62-1.75-.99-2.78-1.05-.59-.04-1.19-.02-1.78-.02-1.12,0-2.25,0-3.37,0-.11,0-.22,.01-.33,.02-.02,0-.05-.02-.07-.02-2.03,0-4.06,0-6.08,0-1.3,0-2.43,.47-3.42,1.31-.88,.75-1.48,1.7-1.85,2.79-.04,.12-.1,.16-.22,.16-.29,0-.57,0-.86,0-.45,.02-.79,.36-.79,.82,0,.69,0,1.38,0,2.07,0,.47,.36,.82,.83,.83,.23,0,.46,0,.68,0,.13,0,.19,.03,.23,.17,.31,1.19,.89,2.24,1.79,3.09,.89,.84,1.93,1.36,3.16,1.46,.59,.05,1.15,0,1.67-.12h0s8.52-.09,8.52-.09c0,0,0,0,0,0,2.11,.61,3.94,.05,5.45-1.52,.77-.8,1.25-1.76,1.53-2.83,.03-.12,.08-.15,.2-.15,.22,0,.44,0,.66,0,.52,0,.87-.35,.87-.86,0-.65,0-1.3,0-1.95,0-.56-.33-.9-.89-.9Zm-14.23,7.26c.32-.26,.62-.55,.91-.89,.39-.45,.57-1.05,1.04-1.44,.03,0,.06,.01,.09,0,.5-.12,.81,0,1.06,.44,.11,.19,.22,.38,.34,.57,.33,.48,.71,.9,1.14,1.27l-4.57,.05Zm10.78-1.08c-1.04,.99-2.31,1.37-3.74,1.05-1.09-.25-1.94-.88-2.58-1.79-.24-.33-.42-.7-.68-1.02-.59-.72-1.74-.87-2.51-.35-.04,.03-.06,.08-.09,.11-.26,.07-.39,.28-.51,.49-.27,.46-.54,.91-.92,1.3-1.11,1.12-2.43,1.6-3.98,1.25-.99-.22-1.79-.79-2.41-1.58-.94-1.2-1.31-2.58-1.17-4.09,.14-1.52,.76-2.81,1.97-3.78,.73-.59,1.58-.9,2.54-.9,1.62,0,3.25,0,4.87,0,.07,0,.14-.03,.21-.05,.06,.02,.11,.05,.17,.05,1.94,0,3.89,0,5.83,0,1.34,0,2.45,.5,3.33,1.5,.7,.79,1.16,1.71,1.3,2.76,.28,1.95-.18,3.69-1.63,5.07Z"/>
    <path class="cls-1" d="M7.82,20.04c.3,0,.53-.24,.53-.53,0-5.56,4.92-10.09,10.97-10.09s10.97,4.53,10.97,10.09c0,.3,.24,.53,.53,.53s.53-.24,.53-.53c0-6.15-5.4-11.16-12.04-11.16S7.29,13.35,7.29,19.5c0,.3,.24,.53,.53,.53Z"/>
    <path class="cls-1" d="M36.6,15.84c-.71-3.33-4.99-8.05-5.18-8.25-.26-.29-.72-.31-1-.05-.29,.26-.31,.71-.05,1,.04,.05,4.14,4.56,4.82,7.52v16.23l-2.58,2.09c-.31,.25-.35,.69-.11,1,.14,.17,.35,.26,.55,.26,.16,0,.32-.05,.45-.16l2.84-2.3c.17-.14,.26-.34,.26-.55V15.99s0-.1-.02-.15Z"/>
    <path class="cls-1" d="M30.29,34.02h-5.55c-.39,0-.71,.32-.71,.71s.32,.71,.71,.71h5.55c.39,0,.71-.32,.71-.71s-.32-.71-.71-.71Z"/>
  </g>
</svg>