<?xml version="1.0" encoding="UTF-8"?>
<svg id="Layer_1" data-name="Layer 1" xmlns="http://www.w3.org/2000/svg" viewBox="0 0 43 43">
  <defs>
    <style>
      .cls-1 {
        fill: #aeb2b2;
      }

      .cls-2 {
        fill: #fff;
        stroke: #aeb2b2;
        stroke-miterlimit: 10;
      }
    </style>
  </defs>
  <rect class="cls-2" x="2.46" y="2.52" width="38.09" height="37.96" rx="8" ry="8"/>
  <g>
    <path class="cls-1" d="M29.09,17.74c0,.8-.53,1.49-1.31,1.7-3.72,1.01-7.44,2.01-11.16,3.02-.24,.07-.48,.14-.72,.18-.94,.16-1.81-.43-2.02-1.38-.21-.91,.36-1.86,1.27-2.11,2.6-.71,5.2-1.41,7.81-2.11,1.3-.35,2.6-.71,3.9-1.05,1.15-.31,2.25,.56,2.24,1.75Z"/>
    <path class="cls-1" d="M30.48,12.89H12.52c.12-.08,.22-.14,.31-.2,1.77-1.18,3.54-2.36,5.31-3.53,.66-.44,1.34-.85,2.08-1.15,.93-.38,1.83-.33,2.74,.07,.88,.39,1.68,.92,2.47,1.45,1.65,1.09,3.3,2.19,4.95,3.29,.02,.02,.05,.03,.11,.07Z"/>
    <path class="cls-1" d="M10.79,35.25v-2.52c.21,.28,.48,.41,.79,.46,.25,.04,.46-.01,.64-.2,.09-.09,.18-.18,.28-.27,.24-.2,.5-.19,.73,.02,.1,.09,.18,.19,.28,.27,.29,.25,.56,.25,.85,0,.1-.09,.19-.19,.29-.28,.23-.2,.47-.2,.71,0,.11,.09,.2,.19,.31,.29,.28,.25,.57,.25,.85,0,.1-.09,.18-.18,.28-.27,.24-.21,.5-.21,.74,0,.11,.1,.21,.21,.33,.31,.24,.2,.51,.2,.75,0,.12-.1,.22-.21,.33-.31,.25-.22,.5-.22,.75,0,.11,.1,.21,.21,.32,.3,.25,.21,.51,.21,.76,0,.1-.09,.2-.19,.3-.28,.27-.24,.54-.25,.8,0,.1,.09,.18,.19,.28,.27,.26,.22,.54,.22,.8,0,.11-.1,.21-.21,.33-.31,.23-.19,.47-.19,.69,0,.12,.1,.21,.21,.33,.31,.25,.22,.51,.23,.78,.02,.11-.08,.2-.18,.29-.28,.26-.25,.53-.25,.8-.01,.09,.08,.18,.18,.27,.26,.29,.25,.56,.24,.84,0,.1-.09,.2-.2,.31-.29,.22-.19,.47-.19,.69,0,.07,.06,.14,.13,.2,.19,.39,.38,.67,.39,1.05,0,.07-.07,.15-.15,.23-.21,.21-.16,.43-.17,.65-.01,.08,.05,.14,.12,.21,.18,.39,.39,.84,.42,1.28,.1,.09-.07,.17-.15,.26-.23v2.49H10.79Zm17.81-1.57c-.11,0-.23-.01-.34,0-.06,.01-.11,.08-.16,.13,.05,.04,.1,.12,.16,.13,.23,.01,.47,.01,.7,0,.06,0,.11-.08,.16-.12-.05-.05-.1-.12-.16-.13-.12-.02-.24,0-.36,0Zm-15.06,1.14s0,0,0,0c.12,0,.24,0,.36,0,.09,0,.16-.05,.14-.14-.01-.05-.09-.12-.14-.12-.24-.01-.48-.01-.72,0-.05,0-.1,.08-.15,.12,.05,.05,.1,.12,.16,.13,.12,.02,.24,0,.36,0Zm-1.52-1.05s0,0,0,0c-.12,0-.25-.01-.37,0-.06,0-.1,.08-.15,.12,.05,.05,.09,.13,.14,.13,.25,.01,.5,.01,.75,0,.05,0,.09-.08,.13-.12-.05-.05-.09-.12-.14-.13-.12-.02-.24,0-.36,0Zm8.62,.99s0,0,0,0c.12,0,.25,.01,.37,0,.06,0,.1-.09,.15-.14-.05-.04-.1-.12-.15-.12-.24-.01-.48-.01-.71,0-.05,0-.1,.08-.15,.12,.05,.05,.09,.13,.15,.14,.11,.02,.23,0,.34,0Zm.57-.95c.12,0,.25,.01,.37,0,.05,0,.09-.07,.14-.11-.04-.05-.08-.13-.13-.14-.25-.01-.5-.01-.74,0-.05,0-.09,.08-.14,.13,.05,.04,.09,.11,.15,.12,.12,.02,.24,0,.36,0Zm5.34,.7c-.12,0-.25-.01-.37,0-.05,0-.12,.08-.12,.12,0,.05,.07,.13,.11,.13,.25,.01,.51,.01,.76,0,.05,0,.09-.09,.13-.14-.05-.04-.09-.1-.14-.11-.12-.02-.25,0-.37,0Zm-11.23-.4c.12,0,.24,.01,.36,0,.06,0,.1-.07,.15-.12-.05-.05-.1-.13-.15-.13-.24-.01-.48,0-.71,0-.09,0-.17,.04-.14,.14,.01,.05,.09,.11,.14,.12,.12,.02,.24,0,.36,0Zm7.91,.29c.12,0,.24,.01,.36,0,.05,0,.1-.08,.15-.12-.05-.04-.1-.12-.15-.12-.24-.01-.48-.01-.71,0-.06,0-.11,.08-.16,.13,.05,.04,.1,.1,.16,.11,.12,.02,.24,0,.36,0Zm7.06,.21c.12,0,.24,.01,.36,0,.06-.01,.1-.09,.15-.13-.05-.04-.1-.12-.15-.12-.24-.01-.48-.01-.71,0-.05,0-.1,.08-.15,.13,.06,.04,.11,.11,.17,.12,.11,.02,.23,0,.34,0Zm-11.97-.5c-.12,0-.24-.01-.36,0-.06,.01-.11,.08-.16,.13,.05,.04,.11,.12,.16,.12,.23,.01,.47,.01,.7,0,.06,0,.11-.08,.16-.12-.05-.04-.1-.12-.16-.13-.11-.02-.23,0-.34,0Zm-1.27,.78c.12,0,.24,.01,.36,0,.06-.01,.11-.08,.16-.12-.05-.04-.1-.11-.15-.12-.24-.01-.48-.01-.71,0-.05,0-.1,.08-.15,.12,.05,.04,.1,.11,.16,.12,.11,.02,.23,0,.34,0Zm8.13-.92h0c.12,0,.25,.01,.37,0,.05,0,.1-.07,.15-.11-.05-.04-.09-.12-.15-.12-.24-.01-.49-.01-.73,0-.05,0-.1,.08-.14,.13,.05,.04,.1,.1,.16,.11,.11,.02,.23,0,.34,0Z"/>
    <path class="cls-1" d="M17.62,30.25c.6-1.29,.19-2.7-.94-3.45,.11-.03,.2-.06,.29-.08,3.3-.89,6.6-1.78,9.9-2.68,1-.27,1.98,.27,2.25,1.25,.26,.96-.32,1.94-1.31,2.2-3.33,.9-6.67,1.81-10,2.71-.05,.01-.11,.03-.19,.04Z"/>
    <path class="cls-1" d="M21.5,13.3c3.14,0,6.27,0,9.41,0,.29,0,.49,.14,.56,.38,.07,.24-.02,.51-.24,.62-.1,.06-.24,.08-.36,.08-1.55,0-3.11,0-4.66,0-4.69,0-9.38,0-14.07,0-.37,0-.62-.2-.63-.52-.01-.29,.2-.54,.49-.56,.11,0,.23,0,.34,0,3.05,0,6.1,0,9.16,0Z"/>
    <path class="cls-1" d="M17.57,29.02c.01,1.24-.98,2.26-2.21,2.27-1.25,.01-2.27-.99-2.29-2.23-.01-1.26,.98-2.3,2.21-2.31,1.26-.01,2.27,.99,2.28,2.27Zm-2.23-1.63c-.9,0-1.63,.73-1.63,1.64,0,.89,.72,1.62,1.62,1.62,.9,0,1.63-.72,1.63-1.62,0-.91-.72-1.64-1.61-1.64Z"/>
    <path class="cls-1" d="M20.6,25.33c0-.07,0-.13,0-.18,0-1.06,0-2.12,0-3.18,0-.11,.03-.16,.14-.19,.55-.14,1.09-.3,1.65-.45,0,.06,0,.11,0,.16,0,1.08,0,2.15,0,3.23,0,.11-.03,.16-.15,.19-.5,.13-.99,.26-1.49,.4-.05,.01-.1,.02-.17,.04Z"/>
    <path class="cls-1" d="M22.8,24.74v-2.85c1.38,.57,2.75,1.14,4.17,1.72-1.42,.38-2.78,.75-4.17,1.13Z"/>
    <path class="cls-1" d="M16.1,23.02c1.36-.37,2.72-.73,4.1-1.1v2.83c-1.37-.57-2.74-1.13-4.1-1.7,0-.01,0-.02,0-.03Z"/>
    <path class="cls-1" d="M26.46,20.22c.44-.12,.84-.24,1.24-.34,.45-.11,.85-.31,1.17-.65,.67-.71,.8-1.78,.31-2.61-.51-.86-1.5-1.26-2.46-1-.46,.12-.92,.25-1.39,.38,.45-.71,1.76-1.36,3.07-.8,1.34,.57,1.98,2.15,1.43,3.51-.54,1.33-2.04,2.02-3.38,1.51Z"/>
    <path class="cls-1" d="M22.39,29.37v3.34c-.6-.69-1.19-.69-1.79,0,0-.09,0-.13,0-.18,0-.84,0-1.68,0-2.53,0-.11,.02-.16,.14-.19,.55-.14,1.09-.29,1.66-.44Z"/>
    <path class="cls-1" d="M20.61,17.28v-2.49h1.78s.01,.08,.01,.12c0,.58,0,1.16,0,1.75,0,.11-.03,.15-.14,.18-.52,.14-1.03,.28-1.55,.43-.03,0-.07,.01-.11,.02Z"/>
  </g>
</svg>