<?xml version="1.0" encoding="UTF-8"?>
<svg id="Layer_1" data-name="Layer 1" xmlns="http://www.w3.org/2000/svg" viewBox="0 0 43 43">
  <defs>
    <style>
      .cls-1 {
        font-family: MyriadPro-Regular, 'Myriad Pro';
        font-size: 5px;
      }

      .cls-1, .cls-2 {
        fill: #b1b1b1;
      }

      .cls-3 {
        fill: #fff;
        stroke: #ccc;
        stroke-miterlimit: 10;
      }
    </style>
  </defs>
  <rect class="cls-3" x="2.46" y="2.52" width="38.09" height="37.96" rx="8" ry="8"/>
  <g>
    <path class="cls-2" d="M16.38,9.62c-.27-.49-.67-.78-1.11-1.03-.16-.09-.33-.15-.49-.25-.09-.05-.2-.15-.21-.23,0-.08,.11-.2,.19-.24,1.08-.52,2.38-.05,2.89,1.02,.02,.05,.05,.09,.08,.17,.09-.08,.16-.15,.24-.22,1.26-1.2,3.35-1.06,4.38,.29,.11,.15,.21,.33,.28,.5,.03,.08,.02,.22-.03,.28-.05,.06-.19,.07-.28,.05-.69-.2-1.39-.31-2.1-.17-.29,.06-.58,.17-.87,.26v.08c.08,0,.15,.02,.21,.02,2.66,.03,3.98,2.42,3.76,4.4-.01,.12-.09,.29-.19,.33-.17,.08-.25-.1-.33-.22-1.03-1.66-2.5-2.6-4.46-2.75-.18-.01-.36,0-.52,0,.22,.66,.49,1.27,.62,1.91,.28,1.39,.58,2.78,.72,4.19,.22,2.17,.31,4.35,.45,6.52,0,.09,0,.19,0,.3-.37,.04-.73,.09-1.1,.13,0-.07-.01-.14-.02-.21-.05-1.86-.06-3.71-.16-5.56-.12-2.14-.37-4.27-.98-6.34-.06-.2-.14-.4-.21-.59-.02-.05-.04-.09-.09-.18-.22,.12-.44,.23-.64,.36-1.51,1.06-2.47,2.46-2.62,4.34,0,.09-.09,.22-.17,.25-.06,.03-.21-.04-.26-.11-1.06-1.53-1.17-3.5,.13-4.85,.33-.34,.77-.57,1.16-.84,.07-.05,.17-.08,.31-.15-.5-.07-.91-.02-1.32,.12-.56,.19-1.06,.49-1.52,.86-.09,.07-.23,.07-.34,.11-.03-.12-.1-.24-.08-.35,.33-1.83,2.11-3,3.84-2.53,.27,.07,.51,.21,.81,.34Z"/>
    <path class="cls-2" d="M26.27,16.48c-.63-.23-1.23-.32-1.86-.26-.78,.07-1.49,.35-2.15,.78-.09,.06-.22,.04-.33,.06-.02-.12-.08-.25-.05-.35,.45-1.64,2.3-2.6,3.94-2.06,.06,.02,.13,.04,.19,.07,.02-.03,.05-.05,.07-.08-.08-.06-.17-.11-.24-.17-.46-.36-.99-.54-1.56-.65-.13-.02-.25-.12-.37-.19,.07-.12,.12-.27,.22-.36,.85-.71,2.35-.51,3.12,.41,.2,.24,.34,.52,.53,.81,.04-.03,.1-.06,.16-.11,.82-.68,1.95-.15,2.37,.36,.05,.06,.08,.19,.05,.23-.05,.07-.16,.13-.25,.14-.34,.05-.68,.07-1.01,.12-.11,.01-.21,.07-.36,.13,.28,.05,.51,.07,.73,.13,1.27,.35,2.06,1.73,1.72,3-.03,.12-.15,.21-.22,.32-.1-.08-.23-.15-.29-.25-.29-.54-.63-1.03-1.16-1.36-.07-.04-.15-.08-.29-.15,.07,.11,.1,.17,.14,.22,.9,1.29,.76,2.79-.37,3.88-.21,.2-.45,.37-.69,.52-.08,.05-.24,.07-.3,.02-.06-.05-.08-.21-.05-.3,.47-1.35,.27-2.62-.4-3.84-.42-.75-.48-.76-1.11-.21-2.19,1.89-3.6,4.24-4.12,7.1-.04,.22-.07,.44-.11,.68-.38-.08-.73-.16-1.12-.24,.46-3.57,2.2-6.35,5.17-8.41Z"/>
    <path class="cls-2" d="M26.24,29.11H13.71c.35-.76,.82-1.39,1.4-1.93,1.3-1.19,2.85-1.8,4.6-1.86,3.49-.13,5.86,2.05,6.53,3.79Z"/>
    <path class="cls-2" d="M15.47,13.88c0-.54,.42-.98,.95-.98,.55,0,.99,.43,.99,.97,0,.55-.43,.98-.98,.98-.54,0-.96-.43-.96-.97Z"/>
    <path class="cls-2" d="M19.2,12.14c.41,.01,.71,.34,.7,.76-.02,.39-.34,.7-.74,.69-.41,0-.71-.35-.7-.76,.02-.39,.35-.7,.74-.69Z"/>
  </g>
  <text class="cls-1" transform="translate(9.17 36.16)"><tspan x="0" y="0">Small Island</tspan></text>
</svg>