<?xml version="1.0" encoding="UTF-8"?>
<svg id="Layer_1" data-name="Layer 1" xmlns="http://www.w3.org/2000/svg" viewBox="0 0 43 43">
  <defs>
    <style>
      .cls-1 {
        fill: #aeb2b2;
      }

      .cls-2 {
        fill: #fff;
        stroke: #aeb2b2;
        stroke-miterlimit: 10;
      }
    </style>
  </defs>
  <rect class="cls-2" x="2.46" y="2.52" width="38.09" height="37.96" rx="8" ry="8"/>
  <g>
    <path class="cls-1" d="M36.07,22.2c-.19,.27-.38,.54-.57,.8-1.24,1.67-2.69,3.14-4.42,4.31-.7,.47-1.48,.69-2.32,.69-7.53,0-15.07,0-22.6,0-.79,0-.73,.08-.72-.71,0-.67,0-1.33,0-2,0-.19,.04-.26,.25-.28,2.83-.26,5.66-.53,8.49-.8,2.01-.19,4.03-.38,6.04-.57,2.47-.24,4.93-.48,7.4-.72,2.47-.24,4.95-.46,7.42-.7,.34-.03,.67-.07,1.01-.1l.04,.07Z"/>
    <path class="cls-1" d="M37.57,19.55c-.18,.35-.37,.64-.48,.95-.18,.54-.56,.66-1.09,.71-3.09,.27-6.17,.58-9.26,.87-2.3,.22-4.61,.43-6.92,.64-2.42,.23-4.83,.46-7.25,.69-2.26,.22-4.51,.44-6.77,.65-.11,.01-.22,0-.33,0,0-.62,.51-1.33,1.19-1.53,.42-.13,.87-.16,1.31-.21,1.64-.17,3.29-.32,4.93-.47,1.24-.12,2.48-.23,3.72-.35,1.51-.14,3.03-.29,4.54-.43,2.16-.2,4.32-.4,6.48-.61,2.65-.25,5.3-.51,7.95-.76,.57-.05,1.15-.1,1.72-.15,.05,0,.11,0,.24,0Z"/>
    <path class="cls-1" d="M9.86,15.99c.76-.05,1.46-.09,2.16-.15,1.26-.1,2.51-.21,3.77-.33,1.69-.16,3.38-.33,5.07-.5,.68-.07,1.22,.15,1.67,.65,1.06,1.21,2.13,2.42,3.19,3.63,.07,.08,.13,.21,.1,.29-.02,.07-.17,.12-.27,.13-1.99,.19-3.98,.38-5.97,.57-1.8,.17-3.61,.34-5.41,.51-.44,.04-.48,.02-.46-.41,.06-1.35-.86-2.76-2.34-3.23-.64-.2-1.11-.61-1.52-1.18Zm8.59,3.07c.1,0,.18,0,.26,0,1.26-.11,2.52-.22,3.77-.34,.1,0,.19-.07,.28-.1-.04-.09-.05-.2-.11-.27-.38-.44-.77-.85-1.14-1.3-.35-.43-.77-.63-1.34-.57-.57,.06-1.14,.09-1.72,.13v2.45Zm-.99-2.32c-1.05,.18-2,1.22-2.09,2.24-.02,.23,.11,.35,.36,.33,.52-.04,1.05-.08,1.57-.14,.06,0,.15-.1,.15-.15,.01-.75,0-1.51,0-2.28Z"/>
    <path class="cls-1" d="M36.71,18.68v-.87c-.37,.03-.71,.07-1.05,.1-.22,.02-.43,.06-.65,.07-.2,0-.24,.1-.23,.27,.01,.19,0,.39,0,.61-.29,.03-.56,.05-.86,.08v-.85c-.65,.07-1.26,.13-1.91,.2v.82c-.27,.03-.51,.07-.75,.08-.04,0-.11-.1-.11-.16-.01-.21,0-.42,0-.65-.39,.04-.75,.07-1.11,.12-.39,.06-.65,.29-.75,.67-.05,.18-.14,.23-.31,.23-.19,0-.38,.03-.57,.05-.09-.62,.38-1.33,.89-1.61,.46-.25,.97-.25,1.46-.3,1.95-.21,3.91-.41,5.86-.62,.55-.06,.93,.27,.94,.82,0,.27,0,.53,0,.83-.28,.03-.55,.06-.86,.09Z"/>
  </g>
</svg>