<?xml version="1.0" encoding="UTF-8"?>
<svg id="Layer_1" data-name="Layer 1" xmlns="http://www.w3.org/2000/svg" viewBox="0 0 43 43">
  <defs>
    <style>
      .cls-1 {
        fill: #b1b1b1;
      }

      .cls-2 {
        fill: #fff;
        stroke: #ccc;
        stroke-miterlimit: 10;
      }
    </style>
  </defs>
  <rect class="cls-2" x="2.46" y="2.52" width="38.09" height="37.96" rx="8" ry="8"/>
  <g>
    <path class="cls-1" d="M23.88,27.29l.48-.49s.86-.32,.99-.37,.86-.1,1.23,.04,.85,.31,1.11,.32,.58-.05,.85,.09,.41,.12,.57,.35,.37,.58,.17,.68-.36,.08-.78,.06-1.11-.32-1.11-.32c0,0,.49-.45-.27-.14s-1.08,.06-1.1,.34,.51,.12-.1,.54-.55,.44-.82,.52-.97-.03-.97-.03l-.42-.47-.02-.7,.21-.41Z"/>
    <path class="cls-1" d="M23.11,28.23h-.66s-.46-.45-.46-.45l-.58-.26-.45,.21-.67,.18-.36,.08-.82-.14s-.33,.38-.4,.76-.86,1.07-.86,1.07c0,0,.49,.3,.62,.24s.48,.17,.69,.29,.34,.19,.84,.18,.95-.13,1.14-.27,.07-.17,.82-.52,.89-.46,1.02-.52,.36-.21,.31-.41-.16-.45-.16-.45Z"/>
    <path class="cls-1" d="M22.14,27.04s.24,.2,.29,.3-.02,.5-.02,.5l-.32-.25-.69-.07-.38-.27s-.14-.51-.43-.37-.7,.02-1.32,.53-.88,.59-.88,.59l-1.03-.36-.97-.56s.05-.42,1.01-.43,1.01,.1,1.7-.04,.14-.46,.94-.26,.74,.4,1.28,.15,.73-.48,1.29-.69,.58-.49,.85-.13,.36,.45,.11,.57-.89,.15-1.14,.27-.3,.54-.3,.54Z"/>
    <path class="cls-1" d="M24.56,25.42l.89-.37,.72-.07c.48-.05,.72-.29,.94-.04s.43,.06,.29,.4-.47,.4-.56,.53-.8,.02-.8,.02c0,0-1.47-.02-1.48-.46Z"/>
    <path class="cls-1" d="M29.04,25.17s.7-.24,.86-.32,.96-.32,1.34-.27,.94,.49,.94,.49c0,0-.63,.48-.89,.46s-1.14-.17-1.39-.06-1.26,.11-1.26,.11c0,0,.22-.28,.41-.41Z"/>
    <path class="cls-1" d="M29.49,23.23l-.82,.08-.78-.16s-.38-.49-.09-.62,.5-.33,1.28-.38,.61,.11,1.28-.07,1.03-.39,1.28-.29,.23,.07,.45,.32,.28,.49,.15,.64-.22,.5-.83,.48-1.06,0-1.06,0l-.29,.89-.16,.74s-.47,.4-.56,.31-.48-.7-.39-.83,.54-1.1,.54-1.1Z"/>
    <path class="cls-1" d="M25.65,23.53l-.57-.57-.65,.44s-.57,.4-.6,.55-1.18,.07-1.18,.07c0,0,.09-.88-.29-.62s-1.12,.62-1.12,.62l1.76,.63,2.13-.73,.53-.38Z"/>
    <path class="cls-1" d="M18.78,24.5l-.1-.97-1.01-.1-.6,.33s-.2,.23-.05,.33,.38,.27,.57,.35-.3,0,.19,.09,1-.03,1-.03Z"/>
    <path class="cls-1" d="M15.64,25.44l-.22-.47,.65-.66-.51-.65-1.36,.11-1.88-.45s-.36,.08-.19,.45,.41,.65,.19,.84-1.01,.43-.32,.5,.58-.05,1.14,.17,.73,.37,1.14,.39,1.35-.24,1.35-.24Z"/>
    <path class="cls-1" d="M16.54,27.85l-1.13-.04s-1.77,.96-1.85,.78-.69-.61-.69-.61l-1.27-.11c.2,.53,.16,.99,.16,.99,0,0-1.42,.53-1.47,.42s-1.12-.45-1.12-.45c0,0,.51,.87,.74,1.03s.41,.65,1.09,.38,.51-.2,1.05-.45,.72,.02,1.25-.14,1.9-.67,1.99-.8,.9-.56,1.25-.99Z"/>
    <path class="cls-1" d="M23.74,22.7s.17-.61,0-.53-.84,.04-.84,.04l-.61-.11-.59,.68s.06,.24,.34,.29,.66,0,.82,.02,.89-.37,.89-.37Z"/>
    <path class="cls-1" d="M20.12,22.63s-.56,.31-.69,.37-.93,.17-.93,.17l-.29-.3-.16-.45s-.38-.27-.63-.15l-.58,.27-.22-.25s.33-.38,.48-.49,.37-.4,.79-.37,.72,.02,1.05,.08,.37,.05,.68,.26,.37,.36,.47,.58,.04,.29,.04,.29Z"/>
    <path class="cls-1" d="M21.94,21.55l.7-.24s-.15,.11,.42,.03,.36-.08,.56-.09,.37,.05,.46,.23,.02,.26-.19,.35-.99,.37-.99,.37l-.48-.17-.47-.14v-.35Z"/>
    <path class="cls-1" d="M14.23,21.68l-.8-.2s-.4,.01-.41,.19-.2-.44-.16,.3-.12,.81,.38,.71-.03,.15,.71-.2,.55-.44,.99-.47-.29-.3-.71-.33Z"/>
    <path class="cls-1" d="M34.01,23.15l-.8-.2s-.4,.01-.41,.19-.2-.44-.16,.3-.12,.81,.38,.71-.03,.15,.71-.2,.55-.44,.99-.47-.29-.3-.71-.33Z"/>
    <path class="cls-1" d="M35.09,25.3l-.8-.2s-.4,.01-.41,.19-.2-.44-.16,.3-.12,.81,.38,.71-.03,.15,.71-.2,.55-.44,.99-.47-.29-.3-.71-.33Z"/>
    <path class="cls-1" d="M10.17,22.39s.96-.85,1.06-.76,.2,.22,.31,.56-.24,.56-.24,.56l-.53-.15-.6-.21Z"/>
    <path class="cls-1" d="M9.8,24.51l-.58-.26-1.1,.03s-.37,.17-.3,.32-.06,.52,.1,.53,.56,0,.82-.08,.31-.1,.6-.24,.46-.31,.46-.31Z"/>
    <path class="cls-1" d="M6.55,24.35s.53-.69,1.05-.89,.5-.23,1.06-.32,1.12-.3,1.53-.41,.45,.32,.46,.54-.77,.63-.77,.63l-.84-.18s-.87,.19-1.13,.4-1.76,.56-1.35,.24Z"/>
    <path class="cls-1" d="M7.48,26.99s.5-.23,1.11-.74,.47-.71,.83-.92,.58-.27,.76,0,.41,.12,.31,.56-.71,.95-.71,.95c0,0,.43,.06,.92-.08s.45-.43,.63-.16-.15,.33-.17,.7,1.23,.04-.51,.64-1.9,.36-1.9,.36c0,0-.17,.08-.39-.39s-.85-.53-.88-.91Z"/>
    <path class="cls-1" d="M14.06,26.58c.09-.13,.21-.41,.77-.63s.7-.24,1.04-.27,.56,0,.74-.04,.02,.04,.55-.22,.48-.27,.7-.33,.47,.36,.47,.36c0,0,1.03-.39-.67,.4s-1.91,.76-2.08,.84-.9,.02-.9,.02l-.63-.15Z"/>
    <path class="cls-1" d="M11.97,21.05s-.59-.39-.42-.69,1.31-.97,1.55-.99,1.31,0,1.51,.09,.59,.3,.74,.4,.18,.27,.25,.42-.89,.46-.89,.46h-.76s-.59,.14-.59,.14l-.84,.35-.54-.19Z"/>
    <path class="cls-1" d="M16.37,20.45s.25-.65,.7-.77,1.19,.28,1.19,.28c0,0,.23,.38,.6,.21s.17-.17,.74-.35,.82,.02,1.01,.01,1.17,.03,.24,.51-.93,.7-1.64,.81-1.24,.05-1.39-.06-.9-.2-.9-.2l-.56-.44Z"/>
    <path class="cls-1" d="M32.27,17.86s.25-.65,.7-.77,1.19,.28,1.19,.28c0,0,.23,.38,.6,.21s.17-.17,.74-.35,.82,.02,1.01,.01,1.17,.03,.24,.51-.93,.7-1.64,.81-1.24,.05-1.39-.06-.9-.2-.9-.2l-.56-.44Z"/>
    <path class="cls-1" d="M21.74,20.58s-.01-.35,.24-.47,.85-.13,1.19-.16,.82,.02,.98-.06-.34-.29-.17-.36,1.18-.38,1.33-.18-.04,.77,.01,.88-.99,.69-1.31,.75-.87,.19-1.19-.06-.9-.42-.9-.42l-.17,.08Z"/>
    <path class="cls-1" d="M25.49,21.04s-.37-.67,.11-.85,.87-.41,1.01-.43,.52,.02,.52,.02c0,0,.6-.02,.77-.18s-.03-.38,.42-.51,.36-.3,.65-.13,.53,.06,.21,.56-1.02,.83-1.19,.91-.76,0-.73,.39-1.67,.96-1.84,.82,.07-.61,.07-.61Z"/>
    <path class="cls-1" d="M30.39,20.73l.65-.66s.37-.17,.51-.2,.5,.21,.4,.43-.88,.59-.88,.59l-.68-.17Z"/>
    <path class="cls-1" d="M28.13,21.4s-.08-.49,.42-.73,1.15-.67,1.31-.66,.42,.25,.36,.54-.39,.45-.48,.58-.75,.44-1.06,.54-.54-.28-.54-.28Z"/>
    <path class="cls-1" d="M29.21,19.83l.13-.68s.2-.54,.41-.63,.64-.35,.85-.44,.44-.25,.44-.25c0,0,.52,.24,.73,.28s.61,.55,.75,.62-.1,.22-.54,.56-1.61,.98-1.7,.89-1.07-.34-1.07-.34Z"/>
    <path class="cls-1" d="M23.06,17.94l-.99,.05s.48-.4,.65-.48,.63-.24,.92-.19,.22-.1,.79-.31,.26-.3,1.06-.32,.6,.43,1.19,.39,.95-.27,1.27-.3,.83,.2,.56,.62-.43,.79-1.07,.74-.82-.32-.92-.1-.18,.62-.6,.87-1.1,.52-1.46,.62-1.01,0-.77-.35,.16-.67,.16-.67l-1.02-.17,.22-.4Z"/>
    <path class="cls-1" d="M20.66,17.71l-1.1,.52-.92-.39-.95-.44s-.82-.03-.19-.26,.53-.31,1.26-.47,1.25-.06,1.57-.09,.45-.62,.93-.32,.19,1.27,.19,1.27l-.79,.19Z"/>
    <path class="cls-1" d="M35.6,21.48l-1.1,.52-.92-.39-.95-.44s-.82-.03-.19-.26,.53-.31,1.26-.47,1.25-.06,1.57-.09,.45-.62,.93-.32,.19,1.27,.19,1.27l-.79,.19Z"/>
    <path class="cls-1" d="M12.16,15.02l-1.1,.52-.92-.39-.95-.44s-.82-.03-.19-.26,.53-.31,1.26-.47,1.25-.06,1.57-.09,.45-.62,.93-.32,.19,1.27,.19,1.27l-.79,.19Z"/>
    <path class="cls-1" d="M15.9,18.76l-.94-.15h-1.54s-.59,.05,.3-.48,1.01-.71,1.46-.62,.61,.3,.78,.52-.06,.74-.06,.74Z"/>
    <path class="cls-1" d="M33.46,27.74l-.94-.15h-1.54s-.59,.05,.3-.48,1.01-.71,1.46-.62,.61,.3,.78,.52-.06,.74-.06,.74Z"/>
    <path class="cls-1" d="M15.55,16.86l-1.74,.46-.31-.51s.03-.37,.64-.65,1.2-.45,1.63-.41,.45-.04,.54,.28-.15,.54-.31,.62l-.44,.21Z"/>
    <path class="cls-1" d="M9.4,18.69l-1.74,.46-.31-.51s.03-.37,.64-.65,1.2-.45,1.63-.41,.45-.04,.54,.28-.15,.54-.31,.62l-.44,.21Z"/>
    <path class="cls-1" d="M17.88,15.95s.6,.13,1.04-.08l1.16-.54c.66-.31,.9-.95,.9-.95l-1.09-.02s-1.32,.2-1.45,.5-.86,.17-.86,.17c0,0-.51-.65-.73-.54s-.59,.75-.35,1.11,1.38,.36,1.38,.36Z"/>
    <path class="cls-1" d="M22.13,15.84s-.29,.67-.08,.69,.7,.2,1.13,.12,.61,0,1.05-.2l1.16-.54c.5-.23,1.35,.01,1.35,.01,0,0,.3-.79,.19-1.03s-.81-.86-1.22-.73-1.43,.26-1.43,.26l-.88,.41-1.27,1.01Z"/>
    <path class="cls-1" d="M28.85,16.52s.5,.35,1.11,.07,.64-.65,1.13-.47,.06,.56,.66,.4,1.04-.08,1.04-.37-.82-1.03-.82-1.03l-1.11-.07s-1.09-.02-1.35,.28-.91,1.08-.91,1.08l.26,.12Z"/>
    <path class="cls-1" d="M29.36,14.75l-1.23-.19-1.19-.39c.58-.33,.95-.56,1.34-.45s.68,.15,.98,.37,.11,.66,.11,.66Z"/>
    <path class="cls-1" d="M12.29,17.09l-1.28,.13s-.55-.16-.18-.39,.18-.32,.76-.53,.84-.22,1.16,.04,.27,.58,.27,.58l-.73,.17Z"/>
    <path class="cls-1" d="M24.28,13.41s-.56,.31-.69,.37-.93,.17-.93,.17l-.29-.3-.16-.45s-.38-.27-.63-.15l-.58,.27-.22-.25s.33-.38,.48-.49,.37-.4,.79-.37,.72,.02,1.05,.08,.37,.05,.68,.26,.37,.36,.47,.58,.04,.29,.04,.29Z"/>
    <path class="cls-1" d="M18.38,12.46l-.8-.2s-.4,.01-.41,.19-.2-.44-.16,.3-.12,.81,.38,.71-.03,.15,.71-.2,.55-.44,.99-.47-.29-.3-.71-.33Z"/>
    <path class="cls-1" d="M15.55,12.36l-.8-.2s-.4,.01-.41,.19-.2-.44-.16,.3-.12,.81,.38,.71-.03,.15,.71-.2,.55-.44,.99-.47-.29-.3-.71-.33Z"/>
    <path class="cls-1" d="M29.09,13.1l-.94-.15h-1.54s-.59,.05,.3-.48,1.01-.71,1.46-.62,.61,.3,.78,.52-.06,.74-.06,.74Z"/>
    <path class="cls-1" d="M34.13,14.51l-.94-.15h-1.54s-.59,.05,.3-.48,1.01-.71,1.46-.62,.61,.3,.78,.52-.06,.74-.06,.74Z"/>
    <path class="cls-1" d="M7.53,21.38s.6,.13,1.04-.08l1.16-.54c.66-.31,.9-.95,.9-.95l-1.09-.02s-1.32,.2-1.45,.5-.86,.17-.86,.17c0,0-.51-.65-.73-.54s-.59,.75-.35,1.11,1.38,.36,1.38,.36Z"/>
    <path class="cls-1" d="M15.27,14.63l-1.28,.13s-.55-.16-.18-.39,.18-.32,.76-.53,.84-.22,1.16,.04,.27,.58,.27,.58l-.73,.17Z"/>
  </g>
</svg>