<?xml version="1.0" encoding="UTF-8"?>
<svg id="Layer_1" data-name="Layer 1" xmlns="http://www.w3.org/2000/svg" viewBox="0 0 43 43">
  <defs>
    <style>
      .cls-1 {
        fill: #ccc;
      }

      .cls-2 {
        fill: #fff;
        stroke: #ccc;
        stroke-miterlimit: 10;
      }
    </style>
  </defs>
  <rect class="cls-2" x="2.46" y="2.52" width="38.09" height="37.96" rx="8" ry="8"/>
  <g>
    <path class="cls-1" d="M6.94,28.86c.69-.35,1.31-.68,1.95-.97,2.7-1.26,5.53-2.11,8.45-2.7,.11-.02,.25-.09,.3-.18,.46-.92,.9-1.84,1.35-2.79-.1-.06-.19-.11-.29-.16-1.3-.67-2.6-1.35-3.9-2.02-.71-.37-.9-.89-.58-1.63,.82-1.87,1.63-3.74,2.45-5.6,.04-.1,.08-.19,.13-.31-.1,0-.16-.02-.23-.01-1.13,.03-2.26,.06-3.39,.11-.13,0-.27,.09-.36,.19-.93,.95-1.85,1.91-2.77,2.86-.28,.3-.63,.39-1.02,.26-.36-.12-.57-.4-.62-.78-.04-.29,.05-.54,.25-.75,1.07-1.12,2.14-2.24,3.24-3.34,.17-.17,.46-.29,.7-.3,1.51-.07,3.02-.1,4.54-.13,.2,0,.41,.04,.59,.12,1.25,.53,2.49,1.08,3.73,1.63,.16,.07,.31,.16,.44,.28,2.32,1.94,4.64,3.89,6.95,5.83,.48,.41,.57,.96,.22,1.39-.36,.44-.93,.46-1.43,.05-2.18-1.83-4.36-3.66-6.55-5.5-.08-.07-.17-.14-.29-.24-.67,1.54-1.34,3.06-2.02,4.61,.13,.01,.22,.02,.32,.03,1.78,.05,3.57,.1,5.35,.16,.9,.03,1.38,.79,1.02,1.61-.53,1.18-1.06,2.37-1.6,3.55-.04,.09-.08,.19-.12,.29,1.5,.04,2.98,.07,4.47,.11,0,.03,.01,.07,.02,.1-.08,.06-.17,.11-.25,.17-4.52,2.93-9.46,4.62-14.85,4.94-1.89,.11-3.77-.02-5.58-.61-.15-.05-.29-.11-.44-.16-.03-.01-.07-.03-.18-.09Zm14.33-7.8c.38,.52,.22,1.01-.04,1.51-.32,.62-.61,1.26-.91,1.89-.04,.07-.06,.15-.11,.27,.3-.03,.55-.07,.8-.08,.2,0,.31-.09,.39-.28,.45-1.02,.91-2.03,1.36-3.04,.03-.08,.06-.16,.1-.28h-1.59Z"/>
    <path class="cls-1" d="M7.33,31.97c.74,.19,1.45,.3,2.15,.11,.47-.13,.92-.31,1.37-.51,1.41-.61,2.89-.86,4.4-.58,.78,.15,1.53,.44,2.27,.73,.88,.35,1.78,.65,2.73,.46,.69-.14,1.37-.38,2.05-.59,.33-.11,.65-.25,.98-.39,1.42-.6,2.85-.57,4.28-.03,.57,.22,1.15,.44,1.73,.63,.75,.24,1.52,.24,2.28,.06,.09-.02,.19-.04,.36-.07-.08,.32-.11,.62-.23,.87-.07,.14-.29,.26-.46,.29-.86,.15-1.71,.03-2.53-.26-.57-.2-1.13-.43-1.7-.63-1.08-.39-2.16-.39-3.23,.05-.61,.25-1.21,.49-1.83,.71-1.59,.58-3.16,.57-4.73-.12-.7-.31-1.44-.57-2.19-.71-1.31-.25-2.58,0-3.8,.53-.64,.28-1.28,.59-1.99,.64-.33,.02-.66,.03-.99,0-.64-.06-.79-.21-.89-.86-.01-.09-.02-.19-.03-.33Z"/>
    <path class="cls-1" d="M31.91,34.12c-.04,.25-.06,.46-.11,.67-.07,.29-.25,.46-.57,.5-.83,.1-1.64,.03-2.42-.24-.56-.19-1.12-.41-1.67-.62-1.15-.44-2.3-.44-3.45,.03-.76,.31-1.52,.61-2.3,.85-1.32,.41-2.63,.33-3.92-.2-.65-.27-1.3-.55-1.97-.72-1.32-.34-2.63-.19-3.9,.31-.4,.16-.79,.33-1.19,.49-.68,.28-1.39,.36-2.12,.3-.71-.06-.99-.42-.9-1.18,.19,.04,.38,.08,.57,.11,.85,.16,1.67,.04,2.45-.33,1.12-.53,2.29-.87,3.55-.89,1.11-.03,2.16,.23,3.19,.65,.59,.24,1.2,.48,1.82,.63,.87,.2,1.73,.03,2.56-.26,.62-.22,1.22-.46,1.83-.71,1.39-.57,2.77-.56,4.17-.04,.62,.23,1.24,.47,1.87,.67,.73,.24,1.48,.22,2.23,.04,.09-.02,.18-.04,.32-.07Z"/>
    <path class="cls-1" d="M17.77,30.49c.38-.09,.75-.18,1.13-.28,2.93-.75,5.75-1.8,8.36-3.34,3.02-1.78,5.4-4.21,7.22-7.2,.21-.34,.42-.68,.67-1.1,.15,.48,.28,.89,.39,1.3,.01,.05-.03,.13-.07,.18-1.31,1.89-2.63,3.76-4.41,5.25-1.99,1.67-4.22,2.95-6.59,3.98-1.59,.69-3.22,1.22-4.89,1.69-.35,.1-.65,.03-.97-.08-.29-.1-.57-.22-.86-.33,0-.02,0-.04,0-.06Z"/>
    <path class="cls-1" d="M22.46,9.34c0,1.05-.86,1.89-1.9,1.89-1.04,0-1.9-.86-1.9-1.9,0-1.06,.86-1.91,1.92-1.9,1.05,0,1.88,.85,1.88,1.91Z"/>
    <path class="cls-1" d="M35.9,21.43c.05,.44,.11,.88,.15,1.32,0,.08-.06,.18-.11,.26-2.12,2.89-4.75,5.2-7.88,6.95-.1,.06-.26,.07-.38,.04-.33-.07-.65-.18-1.03-.29,3.83-1.96,6.87-4.73,9.19-8.3l.07,.03Z"/>
    <path class="cls-1" d="M28.4,23.41c2.45-2.04,4.19-4.53,5.59-7.36,.21,.41,.39,.74,.55,1.08,.03,.08,0,.21-.04,.29-1.31,2.14-2.76,4.16-4.6,5.88-.18,.17-.36,.27-.62,.21-.25-.06-.52-.06-.87-.1Z"/>
  </g>
</svg>