<?xml version="1.0" encoding="UTF-8"?>
<svg id="Layer_1" data-name="Layer 1" xmlns="http://www.w3.org/2000/svg" viewBox="0 0 43 43">
  <defs>
    <style>
      .cls-1 {
        fill: #aeb2b2;
      }

      .cls-2 {
        fill: #fff;
        stroke: #aeb2b2;
        stroke-miterlimit: 10;
      }
    </style>
  </defs>
  <rect class="cls-2" x="2.46" y="2.52" width="38.09" height="37.96" rx="8" ry="8"/>
  <path class="cls-1" d="M8.45,32.36c.13,.08,.21,.12,.27,.18,.64,.63,1.27,1.26,1.9,1.89,.19,.19,.17,.34-.04,.54-.21,.21-.35,.23-.54,.04-.64-.63-1.27-1.26-1.9-1.9-.08-.08-.13-.28-.09-.36,.09-.15,.25-.26,.39-.4Z"/>
  <path class="cls-1" d="M34.93,14.58c-.16-2.22-1.14-4-3.03-5.22-1.77-1.14-3.72-1.3-5.74-.89-.65,.13-1.31,.36-1.96,.64,.29,.26,.56,.55,.78,.87,.21-.08,.41-.17,.62-.25,.05-.02,.15,0,.19,.04,.16,.12,.3,.27,.44,.39-.27,.27-.52,.52-.76,.77,.03,.07,.04,.15,.07,.22,.26-.26,.52-.51,.78-.76,.42,.43,.87,.89,1.32,1.35-.39,.39-.81,.82-1.23,1.24-.21-.21-.42-.42-.63-.63,0,.08,.02,.15,.02,.23,.16,.16,.33,.33,.49,.49-.19,.19-.38,.38-.57,.56-.03,.15-.08,.28-.12,.42,.27-.27,.55-.54,.83-.82,.38,.39,.79,.81,1.2,1.23-.41,.4-.84,.82-1.25,1.22-.32-.33-.66-.67-.99-1.01-.03,.08-.08,.14-.12,.22,.31,.31,.62,.63,.94,.95-.39,.39-.81,.81-1.24,1.24-.25-.25-.52-.51-.78-.77-.04,.04-.09,.08-.14,.11l.8,.8c-.41,.4-.83,.82-1.25,1.23-.37-.38-.76-.77-1.14-1.16-.18,.06-.37,.13-.56,.17-.34,.34-.69,.68-1.06,1.05-.38-.38-.76-.75-1.14-1.13-.1-.03-.2-.06-.3-.09,.44,.44,.89,.89,1.32,1.32-.41,.41-.84,.84-1.28,1.27-.94-.48-.93-2.14-.1-2.61-.06-.02-.12-.03-.18-.06-.1,.1-.2,.2-.32,.32,.03-.15,.05-.28,.07-.43-.35-.16-.67-.37-.98-.61-.23,.99-.33,2.05-.24,3.17,.06,.73-.02,1.44-.19,2.15-.5,2.07-1.47,3.92-2.65,5.68-.01,.02-.04,.03-.11,.08-.06-.07-.11-.16-.18-.23-.26-.26-.39-.26-.65,0-1.58,1.58-3.15,3.15-4.73,4.73-.23,.23-.23,.38,0,.61,.4,.4,.8,.8,1.2,1.2,.37,.37,.44,.37,.81,0,1.52-1.52,3.05-3.05,4.57-4.57,.35-.35,.35-.42,.01-.77-.05-.05-.1-.11-.17-.18,.06-.05,.09-.08,.13-.11,1.24-.82,2.53-1.53,3.92-2.07,1.32-.51,2.66-.81,4.09-.72,.78,.05,1.58,.03,2.35-.09,2.62-.43,4.74-1.79,6.42-3.81,1.68-2.02,2.59-4.33,2.4-6.99Zm-1.25-.98c.01,.06-.03,.15-.08,.21-.12,.14-.25,.28-.36,.4-.44-.44-.85-.86-1.27-1.28,.31-.31,.65-.65,1.01-.99,.33,.51,.57,1.07,.7,1.66Zm-8.64,6.27c.4-.4,.83-.82,1.23-1.22,.4,.39,.82,.81,1.23,1.21-.4,.41-.83,.83-1.24,1.25-.41-.42-.82-.83-1.23-1.25Zm1.05,1.39c-.38,.37-.81,.8-1.23,1.21-.39-.39-.8-.8-1.2-1.21,.41-.41,.83-.83,1.24-1.25,.39,.41,.8,.83,1.19,1.25Zm4.3-7.09c-.34-.33-.73-.72-1.1-1.09,.42-.41,.84-.83,1.26-1.25,.34,.36,.72,.76,1.08,1.13-.38,.37-.81,.79-1.24,1.21Zm.04,.31c.4,.4,.81,.82,1.21,1.22-.4,.4-.82,.83-1.24,1.26-.4-.41-.81-.82-1.22-1.24,.41-.4,.83-.83,1.25-1.24Zm-1.26-1.55c-.4-.41-.81-.83-1.21-1.24,.4-.41,.82-.83,1.24-1.25,.41,.41,.83,.82,1.24,1.23-.42,.42-.85,.84-1.26,1.25Zm1.16,1.42c-.42,.42-.84,.84-1.26,1.25-.38-.38-.77-.78-1.15-1.17,.4-.4,.83-.81,1.25-1.23,.38,.38,.78,.77,1.16,1.15Zm-1.26,1.5c.41,.42,.82,.83,1.21,1.23-.42,.42-.84,.85-1.27,1.27-.4-.4-.81-.82-1.22-1.23,.42-.41,.84-.84,1.27-1.27Zm-.16,2.62c-.42,.42-.85,.84-1.28,1.26-.39-.4-.81-.82-1.21-1.23,.41-.41,.83-.83,1.27-1.27,.4,.41,.81,.82,1.22,1.24Zm-1.26,1.51c.43,.44,.88,.9,1.34,1.37-.41,.39-.85,.8-1.27,1.2-.41-.41-.86-.87-1.32-1.34,.39-.39,.83-.81,1.26-1.23Zm.13-.13c.4-.41,.83-.84,1.23-1.25,.45,.46,.91,.92,1.37,1.38-.41,.41-.83,.83-1.24,1.24-.45-.46-.91-.92-1.36-1.37Zm1.37-1.38c.42-.43,.84-.85,1.26-1.27,.45,.46,.9,.92,1.35,1.38-.42,.4-.86,.82-1.28,1.22-.42-.42-.88-.88-1.33-1.33Zm1.37-1.39c.42-.41,.85-.83,1.26-1.23,.46,.45,.92,.9,1.38,1.36-.42,.42-.84,.84-1.26,1.25-.45-.45-.92-.91-1.38-1.37Zm1.26-1.49c-.4-.4-.81-.82-1.22-1.23,.42-.41,.85-.83,1.28-1.25,.38,.39,.8,.81,1.2,1.22-.4,.4-.82,.82-1.26,1.25Zm.08-4.9c.36,.35,.71,.72,1.05,1.07-.4,.41-.74,.76-1.07,1.1-.39-.39-.78-.78-1.21-1.22,.33-.32,.67-.66,1.03-.98,.03-.03,.16-.01,.2,.03Zm-1.82-1c.56,.18,1.09,.44,1.57,.81-.38,.37-.73,.72-1.08,1.07-.4-.4-.8-.81-1.28-1.29,.2-.17,.42-.37,.64-.56,.04-.03,.11-.04,.15-.03Zm-1.65-.32c.46,.07,.93,.14,1.46,.23-.26,.25-.47,.43-.69,.64-.26-.26-.52-.52-.79-.78,0-.03,.01-.06,.02-.08Zm-2.11,.75c-.11-.12-.25-.27-.42-.45,.38-.08,.73-.15,1.12-.23-.25,.24-.46,.45-.7,.69Zm.1,.08c.26-.25,.52-.5,.79-.73,.2-.17,.95-.11,1.14,.07,.27,.25,.53,.51,.79,.75-.46,.47-.89,.9-1.3,1.32-.46-.45-.91-.9-1.42-1.4Zm.18,2.88c.39-.38,.82-.8,1.25-1.22,.39,.4,.8,.81,1.2,1.22-.4,.39-.84,.81-1.26,1.21-.36-.37-.77-.79-1.18-1.21Zm1.23,1.55c.33,.34,.72,.74,1.1,1.13-.39,.37-.83,.79-1.27,1.21-.34-.34-.72-.73-1.11-1.12,.42-.4,.86-.82,1.29-1.23Zm-1.37,1.36c.36,.36,.75,.75,1.12,1.11-.42,.42-.85,.85-1.28,1.28-.36-.37-.74-.77-1.11-1.14,.41-.4,.84-.82,1.27-1.25Zm-1.43,1.4c.37,.37,.76,.77,1.16,1.18-.39,.39-.81,.81-1.21,1.22-.39-.4-.78-.8-1.16-1.19,.38-.38,.8-.8,1.21-1.21Zm-1.36,1.33c.4,.4,.78,.78,1.15,1.15-.43,.42-.85,.85-1.29,1.28-.36-.36-.75-.76-1.13-1.15,.41-.42,.83-.84,1.27-1.28Zm-.23,2.57c-.42,.42-.84,.84-1.25,1.25-.38-.38-.77-.77-1.15-1.16,.4-.4,.83-.83,1.25-1.25,.38,.38,.77,.77,1.15,1.16Zm-1.12-3.89c.4,.39,.81,.8,1.21,1.19-.42,.42-.85,.84-1.26,1.26-.38-.38-.79-.79-1.2-1.19,.41-.41,.84-.84,1.25-1.25Zm-1.36,1.4c.39,.39,.8,.79,1.2,1.19-.42,.42-.85,.85-1.27,1.27-.4-.4-.81-.81-1.2-1.21,.42-.41,.85-.84,1.28-1.25Zm-.19,2.59c-.25,.25-.51,.52-.79,.81-.37-.48-.63-1-.8-1.57-.02-.07,.07-.19,.12-.27,.06-.1,.13-.18,.19-.27,.47,.48,.88,.9,1.28,1.31Zm-1.3-1.37c-.14,.12-.25,.22-.39,.35-.06-.28-.11-.55-.17-.83,.2,.18,.38,.33,.56,.48Zm-.47,5.33c-.66,.27-1.3,.59-2,.91,.7-1.31,1.27-2.63,1.64-4.12,.62,1.06,1.41,1.86,2.43,2.47-.71,.25-1.4,.47-2.07,.74Zm1.04-2.98c.33-.31,.61-.58,.88-.84,.37,.37,.76,.75,1.16,1.14-.26,.25-.53,.51-.84,.81-.38-.35-.78-.73-1.2-1.11Zm2.89,1.86c-.53-.17-1.04-.36-1.52-.69,.28-.26,.54-.5,.8-.75,.39,.4,.8,.81,1.22,1.24-.1,.19-.24,.29-.5,.2Zm-.58-1.58c.39-.38,.82-.81,1.24-1.22,.39,.39,.81,.8,1.23,1.21-.42,.42-.85,.84-1.26,1.24-.39-.41-.8-.83-1.2-1.24Zm3.59,1.7c-.49,.05-.98,.06-1.46,.11-.38,.04-.64-.13-.83-.42,.44-.44,.86-.86,1.28-1.28,.44,.45,.89,.91,1.38,1.41-.12,.06-.24,.17-.37,.18Zm-.9-1.72c.42-.42,.84-.84,1.26-1.26,.45,.46,.9,.93,1.34,1.38-.4,.4-.83,.82-1.25,1.25-.44-.44-.89-.9-1.35-1.37Zm1.48,1.5c.43-.43,.85-.85,1.28-1.29,.2,.21,.42,.44,.63,.66-.41,.33-1.71,.76-1.92,.63Zm2.16-.73s-.15-.02-.2-.06c-.21-.18-.41-.37-.62-.57,.46-.46,.89-.88,1.3-1.29,.31,.31,.64,.64,1,1.01-.47,.29-.97,.61-1.47,.91Zm1.63-1.04c-.36-.37-.69-.7-1.01-1.03,.41-.41,.84-.82,1.25-1.23,.32,.32,.66,.66,1.03,1.04-.4,.39-.84,.8-1.26,1.22Zm1.41-1.38c-.36-.36-.7-.7-1.03-1.04,.4-.4,.83-.82,1.27-1.25,.24,.25,.49,.52,.79,.82-.33,.47-.68,.97-1.02,1.46Zm1.78-3.18c-.23,.51-.43,1.03-.66,1.57-.29-.3-.53-.55-.76-.79,.41-.4,.84-.83,1.29-1.27,.18,.1,.23,.25,.13,.48Zm.3-1.3c-.05,.23-.28,.41-.41,.6-.5-.49-.96-.95-1.41-1.4,.42-.42,.85-.84,1.31-1.3,.18,.2,.39,.41,.58,.63,.05,.05,.07,.15,.06,.23-.03,.41-.03,.84-.12,1.24Zm-.42-2.19c.11-.12,.24-.27,.41-.48,.05,.39,.09,.71,.15,1.09-.22-.24-.39-.43-.56-.61Z"/>
  <path class="cls-1" d="M20.97,17.56c-2.68,0-4.86-2.18-4.86-4.86s2.18-4.86,4.86-4.86,4.86,2.18,4.86,4.86-2.18,4.86-4.86,4.86Zm0-8.71c-2.13,0-3.86,1.73-3.86,3.86s1.73,3.86,3.86,3.86,3.86-1.73,3.86-3.86-1.73-3.86-3.86-3.86Z"/>
  <path class="cls-1" d="M19.09,17.07c-.72-1.44,.37-2.64,1.89-4.3l.61-.68c1.47-1.65,.38-3.08,.34-3.14l.78-.62c.59,.73,1.26,2.6-.37,4.43l-.62,.69c-1.45,1.59-2.13,2.39-1.73,3.18l-.89,.45Z"/>
</svg>