<?xml version="1.0" encoding="UTF-8"?>
<svg id="Layer_1" data-name="Layer 1" xmlns="http://www.w3.org/2000/svg" viewBox="0 0 43 43">
  <defs>
    <style>
      .cls-1 {
        fill: #aeb2b2;
      }

      .cls-2 {
        fill: #fff;
        stroke: #aeb2b2;
        stroke-miterlimit: 10;
      }
    </style>
  </defs>
  <rect class="cls-2" x="2.46" y="2.52" width="38.09" height="37.96" rx="8" ry="8"/>
  <g>
    <path class="cls-1" d="M14.72,26.41c.03-.37,.06-.72,.08-1.07,.13-1.7-.12-3.34-.83-4.9-.04-.09-.09-.13-.19-.13-1.53-.1-2.99,.18-4.4,.77-.38,.16-.76,.34-1.14,.51-.05,.02-.1,.04-.2,.09,.05-.22,.08-.41,.14-.58,.39-1.07,1.16-1.74,2.22-2.09,1.1-.36,2.16-.25,3.14,.41,.01,0,.02,0,.06,.02-.84-1.58-2.12-2.73-3.56-3.75,.28-.13,.56-.19,.84-.21,1.43-.07,2.79,.77,3.41,2.1,.02,.05,.05,.1,.08,.18,.38-.77,.93-1.37,1.68-1.75,.76-.39,1.54-.51,2.4-.23-.06,.05-.1,.09-.15,.13-.78,.64-1.54,1.31-2.15,2.13-.31,.41-.57,.86-.85,1.29-.03,.04-.05,.09-.07,.14,1.44-.41,2.7-.12,3.77,.9,.64,.6,.98,1.35,.97,2.28-.08-.05-.13-.08-.19-.12-.81-.54-1.63-1.04-2.54-1.4-.7-.28-1.42-.47-2.17-.57-.01,0-.03,0-.04,0,1.22,1.06,1.62,2.38,1.22,3.93-.23,.9-.91,1.71-1.56,1.93Z"/>
    <path class="cls-1" d="M25.72,23.1c-.04-.51-.08-1-.11-1.48-.17-2.36,.17-4.63,1.15-6.79,.06-.12,.12-.17,.26-.18,2.11-.14,4.14,.25,6.08,1.07,.53,.22,1.05,.47,1.57,.7,.07,.03,.14,.06,.27,.12-.07-.3-.1-.56-.19-.81-.53-1.48-1.6-2.41-3.07-2.89-1.52-.5-2.99-.35-4.34,.57-.01,0-.03,.01-.08,.03,1.16-2.19,2.93-3.77,4.92-5.18-.39-.19-.77-.27-1.16-.29-1.98-.09-3.86,1.07-4.72,2.91-.03,.07-.07,.14-.12,.25-.53-1.07-1.29-1.89-2.33-2.43-1.05-.53-2.14-.7-3.32-.32,.08,.07,.14,.13,.2,.18,1.08,.89,2.14,1.81,2.98,2.94,.42,.57,.79,1.19,1.17,1.78,.04,.06,.06,.12,.1,.2-1.99-.57-3.74-.16-5.22,1.24-.88,.83-1.36,1.87-1.35,3.15,.11-.07,.19-.11,.26-.16,1.12-.74,2.26-1.43,3.51-1.93,.97-.39,1.97-.65,3-.79,.02,0,.04,0,.06,0-1.69,1.46-2.24,3.29-1.69,5.43,.32,1.24,1.26,2.36,2.16,2.67Z"/>
    <path class="cls-1" d="M20.4,34.34c-.16,0-.32,0-.48-.01-2.86-.16-5.57-1.74-8.08-4.7-.08-.09-.09-.22-.04-.33s.16-.18,.28-.18l18.02-.25c.12,.03,.24,.08,.29,.19,.05,.12,.02,.25-.07,.34-3.47,3.28-6.8,4.94-9.91,4.94Zm-7.65-4.61c2.26,2.5,4.68,3.84,7.2,3.98,2.9,.18,6.03-1.25,9.34-4.21l-16.54,.23Z"/>
    <path class="cls-1" d="M10.92,34.65c0,.13,0,.26,0,.39h1.72c0-.23,0-.44,0-.66,.07-1.76,.15-3.52,.22-5.28h-1.56c-.19,2.28-.33,4.54-.39,5.55Z"/>
    <path class="cls-1" d="M13.71,22.73c.15-.47,.15-.88-.04-1.31-.22-.51-.07-.47-.69-.47-.11,0-.16,.04-.21,.14-.37,.82-.61,1.67-.81,2.55-.18,.81-.37,2.5-.54,4.35h1.51c.09-1.77,.23-3.55,.78-5.24Z"/>
    <path class="cls-1" d="M29.53,19.24c-.27-1.2-.61-2.39-1.12-3.52-.06-.14-.13-.19-.29-.19-.85,0-.64-.06-.95,.65-.27,.61-.27,1.17-.06,1.82,.84,2.58,.99,5.3,1.12,7.99,.03,.66,.06,1.32,.09,1.98h2.19c-.28-3.48-.65-7.22-.99-8.72Z"/>
    <path class="cls-1" d="M28.6,34.09c.01,.31,0,.62,0,.95h2.38c0-.19,0-.38,0-.56-.06-1.09-.19-3.22-.36-5.61h-2.24c.07,1.74,.15,3.49,.21,5.23Z"/>
    <path class="cls-1" d="M15.59,32.86c-.16,0-.29-.13-.29-.29v-3.06c0-.16,.13-.29,.29-.29s.29,.13,.29,.29v3.06c0,.16-.13,.29-.29,.29Z"/>
    <path class="cls-1" d="M25.55,32.86c-.16,0-.29-.13-.29-.29v-3.06c0-.16,.13-.29,.29-.29s.29,.13,.29,.29v3.06c0,.16-.13,.29-.29,.29Z"/>
    <path class="cls-1" d="M23.19,33.83c-.18,0-.33-.15-.33-.33v-3.99c0-.18,.15-.33,.33-.33s.33,.15,.33,.33v3.99c0,.18-.15,.33-.33,.33Z"/>
    <path class="cls-1" d="M17.92,33.83c-.18,0-.33-.15-.33-.33v-3.99c0-.18,.15-.33,.33-.33s.33,.15,.33,.33v3.99c0,.18-.15,.33-.33,.33Z"/>
    <path class="cls-1" d="M20.34,34.16c-.19,0-.34-.15-.34-.34v-4.31c0-.19,.15-.34,.34-.34s.34,.15,.34,.34v4.31c0,.19-.15,.34-.34,.34Z"/>
  </g>
</svg>