<?xml version="1.0" encoding="UTF-8"?>
<svg id="Layer_1" data-name="Layer 1" xmlns="http://www.w3.org/2000/svg" viewBox="0 0 43 43">
  <defs>
    <style>
      .cls-1 {
        fill: #aeb2b2;
      }

      .cls-2 {
        fill: #fff;
        stroke: #aeb2b2;
        stroke-miterlimit: 10;
      }
    </style>
  </defs>
  <rect class="cls-2" x="2.46" y="2.52" width="38.09" height="37.96" rx="8" ry="8"/>
  <g>
    <path class="cls-1" d="M21.82,32.06c-5.8,0-10.51-4.72-10.51-10.51s4.72-10.51,10.51-10.51,10.51,4.72,10.51,10.51-4.72,10.51-10.51,10.51Zm0-20.16c-5.32,0-9.65,4.33-9.65,9.65s4.33,9.65,9.65,9.65,9.65-4.33,9.65-9.65-4.33-9.65-9.65-9.65Z"/>
    <path class="cls-1" d="M21.82,29.69c-4.49,0-8.15-3.65-8.15-8.15s3.66-8.15,8.15-8.15,8.15,3.66,8.15,8.15-3.66,8.15-8.15,8.15Zm0-15.63c-4.13,0-7.48,3.36-7.48,7.48s3.36,7.48,7.48,7.48,7.48-3.36,7.48-7.48-3.36-7.48-7.48-7.48Z"/>
    <circle class="cls-1" cx="21.82" cy="21.55" r="5.55"/>
    <path class="cls-1" d="M36.4,10.31v9.88h-2.6c-.07-.39-.13-.81-.16-1.21-.09-1.01-.15-2.03-.12-3.03,.07-1.77,.61-3.4,1.58-4.87,.17-.27,.4-.51,.62-.76,.08-.09,.18-.17,.28-.23,.09-.04,.23-.08,.33-.05,.04,.02,.08,.18,.08,.27Z"/>
    <path class="cls-1" d="M34.41,22.27h1.99v9.82c0,.54-.35,.91-.86,.9-.4,0-.74-.29-.8-.68-.03-.1-.03-.21-.03-.31v-8.73c0-.21-.03-.4-.13-.59-.06-.14-.12-.27-.18-.42Z"/>
    <path class="cls-1" d="M9.43,25.46c.08,2.63,.13,4.63,.19,6.64,.02,.49-.27,.85-.7,.89-.51,.04-.9-.33-.89-.84,.03-.94,.06-1.89,.09-2.82,.06-2.13,.12-4.26,.19-6.38,0-.22,0-.45,.02-.68h1.01c.03,1.21,.07,2.33,.09,3.19Z"/>
    <path class="cls-1" d="M11.05,10.46c0,2.24,0,4.49,0,6.74,0,.41-.04,.83-.13,1.24-.11,.51-.38,.7-.91,.76-.53,.06-.76,.31-.74,.87,0,.04,0,.09,0,.14h-.89v-.13c.02-.57-.19-.83-.76-.87-.47-.03-.76-.27-.85-.7-.1-.4-.15-.82-.16-1.24,0-2.28,0-4.56,0-6.85,0-.05,0-.1,0-.15,.03-.15,.14-.25,.3-.25,.17,0,.28,.09,.32,.26,0,.07,0,.15,0,.21v5.69c0,.07,0,.15,0,.21,.03,.16,.14,.26,.31,.26,.16,0,.27-.09,.31-.26,.02-.06,0-.13,0-.19v-5.73c0-.08,0-.15,.02-.22,.05-.15,.15-.24,.32-.23,.15,0,.26,.09,.28,.25,.02,.07,.02,.14,.02,.21v5.71c0,.06,0,.13,0,.19,.03,.17,.12,.27,.29,.27,.16,.02,.31-.1,.33-.27,.02-.07,0-.14,0-.21v-5.69c0-.07,0-.14,0-.21,.03-.17,.15-.26,.32-.26,.16,0,.27,.09,.29,.26,.02,.07,0,.14,0,.21v5.67c0,.08,0,.15,0,.21,.03,.18,.16,.29,.33,.28,.16,0,.29-.13,.3-.31,0-.05,0-.1,0-.15,0-1.9,0-3.81,0-5.71,0-.08,0-.15,0-.21,.04-.16,.15-.26,.33-.25,.16,0,.27,.09,.29,.26,0,.07,0,.13,0,.2Z"/>
  </g>
</svg>