<?xml version="1.0" encoding="utf-8"?>
<!-- Generator: Adobe Illustrator 24.0.2, SVG Export Plug-In . SVG Version: 6.00 Build 0)  -->
<svg version="1.1" id="Layer_1" xmlns="http://www.w3.org/2000/svg" xmlns:xlink="http://www.w3.org/1999/xlink" x="0px" y="0px"
	 viewBox="0 0 852.8 276.2" style="enable-background:new 0 0 852.8 276.2;" xml:space="preserve">
<style type="text/css">
	.st0{fill:#FEFEFE;}
	.st1{fill:#00529D;}
	.st2{fill:#FF9C00;}
	.st3{fill:#FDA002;}
</style>
<path class="st0" d="M167.1,147.7L167.1,147.7c0-0.6,0.1-1.4-0.1-2c-2.4-12.4-4.9-24.7-7.3-37.1c-5.1-26-10.3-52.1-15.4-78.1
	c-1.2-6.4-3.2-12.3-7.9-17.1c-6.6-6.6-15-8.6-23.8-8.6C76.2,4.7,39.9,4.7,3.5,4.8c-0.8,0-1.7-0.3-2.6,0.4c-0.3,1.7-0.5,3.4-0.8,5.1
	c0.6,0.2,1,0.5,1.4,0.6c12.7,3.3,25.1,7.3,37.2,12.3C50.5,28,61.9,33.5,72.8,40c0.1,0.6,0.2,1.2,0.3,1.8
	c18.8,71.4,37.7,142.7,56.6,214.1c1.4,5.3,2.8,10.6,4.2,15.8c0.5,0,0.7,0.1,0.9,0.1c23.5,0,47,0,70.6,0c1.6,0,2-0.7,2.4-1.9
	c35.6-87.5,71.3-175,106.9-262.5c0.3-0.7,1-1.5,0.6-2.4c-0.3,0-0.6-0.1-1-0.1c-23.4,0-46.7,0-70.1-0.1c-1.7,0-2.1,0.8-2.6,2.1
	c-20.5,55.3-41,110.6-61.5,166c-1.6,4.4-3.3,8.7-4.9,13.1c-1.2-3.6-1.9-7.2-2.6-10.8c-1.7-8.6-3.5-17.3-5.2-25.9
	C167.5,148.7,167.8,148,167.1,147.7z"/>
<path class="st0" d="M422.3,201.8c-3.2,20.1-6.5,40-9.7,60c4.2,2,8.4,3.5,12.7,4.8c18,5.5,36.4,8.2,55.1,9.2
	c21.6,1.1,42.8-1,63.5-7.7c16.7-5.4,31.6-13.8,43.7-26.6c13.7-14.6,20.7-32.1,22-52c1.3-19.3-4.6-36-17.9-50.1
	c-9.1-9.6-19.9-16.9-31.5-23.1c-10.3-5.4-20.9-10.4-30.8-16.6c-4.9-3.1-9.8-6.4-13.2-11.3c-4.1-5.7-4.2-12.5-0.3-18.4
	c2.5-3.7,5.8-6.4,9.7-8.4c8.4-4.4,17.5-5.5,26.8-5.7c17.6-0.3,34.5,2.9,50.6,9.9c2.4,1,4.8,2.2,7.4,3.5c3.1-19.5,6.2-38.7,9.3-58
	c-4.1-1.7-8.2-3.1-12.3-4.3c-23.2-6.7-46.9-8.6-70.9-5.7c-17.9,2.1-34.9,6.8-50.6,15.7c-19.4,11-34.1,26.1-41,47.8
	c-5,15.9-5.7,31.9,1.1,47.6c5.8,13.4,15.8,23.4,27.3,32c10.6,7.8,22.3,13.6,34,19.5c8.4,4.2,16.7,8.6,23.4,15.3
	c9.6,9.5,8.8,23-1.8,31.3c-7.4,5.9-16.2,8.4-25.4,9.1c-21.7,1.7-42.7-1.2-63-9.6C434.6,207.6,428.6,204.8,422.3,201.8z"/>
<path class="st0" d="M300.4,271.8c0.5,0.2,0.6,0.3,0.8,0.3c22.3,0,44.5,0,66.8,0c1.4,0,1.7-0.6,1.8-1.8c0.9-6.2,2-12.5,3-18.7
	c2.9-18.1,5.9-36.2,8.8-54.4c3.4-21,6.8-42,10.2-63c3.2-20,6.5-40,9.7-60c3.1-19.2,6.2-38.4,9.3-57.6c0.6-3.9,1.2-7.8,1.9-11.9
	c-23.2,0-46.1,0-69.1,0C329.2,93.8,314.8,182.7,300.4,271.8z"/>
<path class="st1" d="M604.8,272.1c0.9-2.1,1.6-4,2.4-5.9c33.3-79.6,66.6-159.1,99.8-238.7c4.2-10,10.6-17.6,21.4-20.8
	c5-1.4,10.1-1.8,15.2-1.8c17.3-0.1,34.6,0,51.9,0c0.4,0,0.8,0.1,1.4,0.1c18.6,89,37.2,178,55.9,267.1c-21.6,0-42.8,0-64.2,0
	c-1.4-6.9-2.9-13.7-4.3-20.6c-1.2-5.8-2.6-11.5-3.6-17.3c-0.3-1.9-1.2-2.1-2.8-2.1c-25.9,0-51.8,0-77.7,0c-1.9,0-3.8,0.2-5.7,0
	c-2.2-0.3-2.9,0.7-3.6,2.6c-4.2,11.9-8.5,23.7-12.7,35.6c-0.4,1.2-0.8,2.1-2.5,2.1c-23.2-0.1-46.4-0.1-69.6-0.1
	C605.8,272.2,605.5,272.1,604.8,272.1z M748.3,77.7c-12.3,33.5-24.3,66.4-36.4,99.4c19.1,0,37.8,0,57,0"/>
<path class="st1" d="M422.3,201.8c6.2,3,12.2,5.8,18.4,8.3c20.2,8.3,41.3,11.2,63,9.6c9.2-0.7,18-3.2,25.4-9.1
	c10.6-8.4,11.3-21.8,1.8-31.3c-6.7-6.7-15.1-11.1-23.4-15.3c-11.7-5.9-23.4-11.7-34-19.5c-11.6-8.6-21.5-18.5-27.3-32
	c-6.8-15.7-6.1-31.7-1.1-47.6c6.9-21.7,21.5-36.9,41-47.8c15.7-8.9,32.8-13.6,50.6-15.7c24-2.8,47.7-1,70.9,5.7
	c4.1,1.2,8.3,2.5,12.3,4.3c-3.1,19.3-6.2,38.5-9.3,58c-2.6-1.2-5-2.4-7.4-3.5C587,59,570.1,55.7,552.6,56
	c-9.3,0.1-18.4,1.2-26.8,5.7c-3.9,2-7.3,4.7-9.7,8.4c-3.9,5.9-3.8,12.6,0.3,18.4c3.5,4.9,8.3,8.2,13.2,11.3
	c9.9,6.2,20.5,11.1,30.8,16.6c11.6,6.2,22.4,13.4,31.5,23.1c13.3,14.1,19.2,30.8,17.9,50.1c-1.3,19.9-8.3,37.4-22,52
	c-12.1,12.9-27.1,21.2-43.7,26.6c-20.6,6.7-41.8,8.8-63.5,7.7c-18.7-0.9-37.1-3.7-55.1-9.2c-4.3-1.3-8.5-2.8-12.7-4.8
	C415.9,241.8,419.1,221.9,422.3,201.8z"/>
<path class="st1" d="M167.5,149.2c1.7,8.6,3.5,17.3,5.2,25.9c0.7,3.6,1.4,7.2,2.6,10.8c1.6-4.4,3.3-8.7,4.9-13.1
	c20.5-55.3,41-110.6,61.5-166c0.5-1.3,0.9-2.1,2.6-2.1c23.4,0.1,46.7,0,70.1,0.1c0.3,0,0.6,0.1,1,0.1c0.4,1-0.3,1.7-0.6,2.4
	c-35.6,87.5-71.3,175-106.9,262.5c-0.5,1.2-0.9,1.9-2.4,1.9c-23.5-0.1-47,0-70.6,0c-0.2,0-0.5,0-0.9-0.1c-1.4-5.2-2.8-10.5-4.2-15.8
	c-18.9-71.4-37.7-142.7-56.6-214.1c-0.2-0.6-0.2-1.2-0.3-1.8c0.6,0.3,1.1,0.6,1.7,0.9c17.6,10.5,33.7,23,48,37.8
	c15.3,15.9,28,33.6,37.6,53.5c2.5,5.1,4.7,10.4,7.1,15.6v-0.1C167,148.3,167.1,148.8,167.5,149.2z"/>
<path class="st1" d="M300.4,271.8c14.4-89.1,28.8-178,43.1-267c23.1,0,45.9,0,69.1,0c-0.6,4-1.2,7.9-1.9,11.9
	c-3.1,19.2-6.2,38.4-9.3,57.6c-3.2,20-6.5,40-9.7,60c-3.4,21-6.8,42-10.2,63c-2.9,18.1-5.9,36.2-8.8,54.4c-1,6.2-2,12.4-3,18.7
	c-0.2,1.2-0.5,1.8-1.8,1.8c-22.3,0-44.5,0-66.8,0C301.1,272,300.9,271.9,300.4,271.8z"/>
<path class="st2" d="M167.1,147.7c-2.4-5.2-4.6-10.5-7.1-15.6c-9.6-19.9-22.2-37.7-37.6-53.5c-14.3-14.8-30.3-27.3-48-37.8
	c-0.5-0.3-1.1-0.6-1.7-0.9c-10.9-6.6-22.3-12-34.1-16.8c-12.1-5-24.5-9-37.2-12.3C1,10.7,0.5,10.5,0,10.2c0.3-1.7,0.6-3.4,0.8-5.1
	c0.8-0.6,1.7-0.3,2.6-0.4c36.4,0,72.7-0.1,109.1,0c8.8,0,17.3,2,23.8,8.6C141,18,143,24,144.2,30.4c5.1,26,10.2,52.1,15.4,78.1
	c2.4,12.4,4.9,24.7,7.3,37.1C167.2,146.3,167.1,147,167.1,147.7z"/>
<path class="st3" d="M167.5,149.2c-0.4-0.4-0.6-1-0.5-1.6C167.8,148,167.5,148.7,167.5,149.2z"/>
</svg>
