<?xml version="1.0" encoding="UTF-8"?>
<svg id="Layer_1" data-name="Layer 1" xmlns="http://www.w3.org/2000/svg" viewBox="0 0 43 43">
  <defs>
    <style>
      .cls-1 {
        fill: #b1b1b1;
      }

      .cls-2 {
        fill: #fff;
        stroke: #ccc;
        stroke-miterlimit: 10;
      }
    </style>
  </defs>
  <rect class="cls-2" x="2.46" y="2.52" width="38.09" height="37.96" rx="8" ry="8"/>
  <g>
    <path class="cls-1" d="M27.98,31.72l1.03-4.83s.43-2.52,4.65-3.09c.65-.09,1.11-.68,.99-1.33l-1.55-8.3c-.1-.52-.6-.86-1.12-.74-2.32,.54-8.3,1.85-10.68,1.52l.3-1.04c.14-.5-.31-.96-.81-.83l-6.07,1.56H7v1.03h7.3l5.18,3.32c.13,.08,.29,.02,.33-.13,.15-.63,.6-2.03,1.79-2.27,1.54-.31,5.35,.21,5.35,.21l.51,5.96s-3.19-.1-4.01,2.06l-1.44,5c-.48-.23-.96-.48-1.43-.74-.7-.38-1.58-.77-2.13-1.36-.35-.38-.56-.93-.4-1.41-.64-.08-1.29-.08-1.93-.01-.08,0-.16,.02-.22,.07-.1,.09-.09,.25-.06,.37,.2,.84,.8,1.51,1.37,2.16,.24,.27,.49,.55,.73,.82-1.1-.02-2.21,.04-3.32,.04,0,0-1.3-.93-1.44-1.89h-2.26s1.1,2.98,3.33,3.43c0,0,8.09,.93,10.35,1.61s8.16,3.09,10.08,4.32l1.3-1.71s-1.92-1.17-3.43-1.3v-2.06l-4.59-.45Z"/>
    <circle class="cls-1" cx="28.66" cy="9.26" r="3.5"/>
  </g>
</svg>