<?xml version="1.0" encoding="UTF-8"?>
<svg id="Layer_1" data-name="Layer 1" xmlns="http://www.w3.org/2000/svg" viewBox="0 0 43 43">
  <defs>
    <style>
      .cls-1 {
        fill: #aeb2b2;
      }

      .cls-2 {
        fill: #fff;
        stroke: #aeb2b2;
        stroke-miterlimit: 10;
      }
    </style>
  </defs>
  <rect class="cls-2" x="2.46" y="2.52" width="38.09" height="37.96" rx="8" ry="8"/>
  <path class="cls-1" d="M33.93,24.29c-.16-.77-.59-1.39-1.12-1.96-.45-.47-.99-.83-1.51-1.2-.1-.07-.14-.14-.14-.26,0-.44,0-.89,0-1.33,0-.16,0-.32-.03-.48-.06-.28-.24-.48-.52-.56-.28-.08-.54-.02-.75,.19-.2,.2-.24,.45-.23,.72,0,.16,0,.32,0,.52-.63-.46-1.23-.89-1.83-1.33-.04-.03-.07-.11-.07-.17,0-.41,0-.81,0-1.22,0-.41-.3-.74-.69-.76-.43-.02-.77,.26-.82,.69-.01,.09-.01,.18-.02,.28-.03-.01-.05-.02-.06-.03-1.04-.82-2.08-1.63-3.12-2.46-.04-.03-.07-.1-.07-.15-.01-.48-.01-.96-.02-1.43-.03-1.22-.08-2.43-.28-3.64-.08-.48-.18-.95-.44-1.37-.36-.56-1.12-.55-1.46,.03-.08,.14-.15,.29-.2,.44-.25,.71-.35,1.45-.39,2.19-.07,1.24-.1,2.49-.14,3.73,0,.11-.03,.18-.12,.25-1,.78-2,1.57-3,2.36-.04,.03-.08,.05-.13,.09,0-.09,0-.16-.01-.22-.03-.46-.36-.77-.8-.76-.42,.02-.71,.35-.71,.81,0,.38,0,.77,0,1.15,0,.11-.04,.17-.12,.23-.31,.22-.61,.44-.92,.66-.28,.2-.56,.4-.86,.62,0-.24,0-.45,0-.66,0-.37-.23-.68-.55-.77-.5-.14-.97,.22-.97,.77,0,.52,0,1.05,0,1.57,0,.14-.04,.23-.16,.31-.6,.43-1.21,.84-1.7,1.42-.49,.58-.86,1.22-.95,1.98-.04,.34,.09,.45,.41,.33,1.95-.78,3.9-1.56,5.84-2.34v1.61c0,.4,.32,.72,.72,.72s.72-.32,.72-.72v-2.19c.54-.22,1.08-.43,1.63-.65,.66-.26,1.38,.14,1.45,.83,.1,.96,.18,1.93,.27,2.89,.08,.91,.16,1.83,.24,2.74,.11,1.22,.21,2.44,.32,3.65,.01,.12-.03,.16-.14,.2-1.38,.55-2.75,1.1-4.13,1.65-.08,.03-.16,.11-.19,.19-.2,.47-.39,.94-.58,1.42-.02,.04-.03,.09-.06,.19,1.78-.42,3.51-.83,5.26-1.24,.06,.41,.25,.7,.67,.72,.46,.02,.67-.3,.74-.72,1.74,.41,3.47,.82,5.2,1.23,0-.02,.02-.04,.03-.06,0-.03-.01-.05-.02-.08-.2-.5-.4-1-.61-1.5-.03-.07-.1-.13-.17-.16-1.38-.56-2.76-1.11-4.14-1.66-.11-.04-.13-.09-.12-.19,.02-.16,.03-.32,.04-.48,.13-1.46,.26-2.92,.39-4.39,.13-1.43,.28-2.87,.39-4.3,.05-.69,.74-1.25,1.53-.93,.49,.2,.98,.4,1.47,.59v2.23c0,.4,.32,.72,.72,.72s.72-.32,.72-.72v-1.65c1.4,.56,2.79,1.12,4.19,1.68,.6,.24,1.21,.48,1.81,.72,.22,.09,.37,0,.36-.25,0-.12-.02-.24-.05-.36Z"/>
</svg>