<?xml version="1.0" encoding="UTF-8"?>
<svg id="Layer_1" data-name="Layer 1" xmlns="http://www.w3.org/2000/svg" viewBox="0 0 43 43">
  <defs>
    <style>
      .cls-1 {
        fill: #aeb2b2;
      }

      .cls-2 {
        fill: none;
      }

      .cls-3 {
        fill: #fff;
        stroke: #aeb2b2;
        stroke-miterlimit: 10;
      }
    </style>
  </defs>
  <rect class="cls-3" x="2.46" y="2.52" width="38.09" height="37.96" rx="8" ry="8"/>
  <g>
    <path class="cls-1" d="M11.3,15.08s18.58,1.09,18.48-.7-7.75-10.13-18.48,.7Z"/>
    <path class="cls-2" d="M25.82,28.56c.26-.52,.63-1.01,1.09-1.45-.08,.03-.16,.05-.25,.07-.49,.11-.98,.13-1.35,.13-.32,0-.67,0-1.02-.03,.8,.37,1.34,.81,1.54,1.28Z"/>
    <path class="cls-1" d="M19.25,17.17c-6.14,0-11.13,.67-11.13,1.49s4.98,1.49,11.13,1.49c4.57,0,8.5-.37,10.21-.9,.2-.37,.42-.68,.65-.91-1.1-.67-5.54-1.17-10.86-1.17Z"/>
    <path class="cls-1" d="M23.35,22.19c-2.02-.28-4.84-.45-7.97-.45-6.14,0-11.13,.67-11.13,1.49s4.98,1.49,11.13,1.49c2.18,0,4.2-.08,5.91-.23,.02-.08,.03-.16,.05-.24,.3-.99,1.04-1.73,2-2.06Z"/>
    <path class="cls-1" d="M24.28,27.28c-.74-.06-1.51-.24-2.15-.69,0,0,0,0-.01,0-1.34-.3-2.94-.47-4.66-.47-4.66,0-8.44,1.27-8.44,2.83s3.78,2.83,8.44,2.83c3.64,0,6.73-.77,7.92-1.85,.06-.45,.21-.92,.44-1.36-.19-.47-.73-.91-1.54-1.28Z"/>
    <path class="cls-1" d="M29.54,23.8s.03-.1,.03-.19c.07-.8,.03-1.59,.19-2.39,.22-1.15,.76-2.61,2.1-2.76,2.58-.3,2.88,2.98,.89,4.37,0,0-1.59,1.39-.5,1.79s1.69-1.29,3.58-1.79,3.78,2.48,2.48,3.38-3.38,.1-4.17-.1-2.28,.3-1.29,.79,4.87,2.38,3.68,5.17-4.27,.6-4.27-1.89-1.09-3.18-1.39-2.28-.3,5.17-2.88,4.47-1.99-3.48,0-4.97c.36-.27,2.05-1.53,.75-1.69-.33-.04-.66-.05-.98,0-.5,.09-.82,.45-1.3,.55-.38,.08-.78,.11-1.17,.11-.85,.01-1.9-.04-2.62-.55-.44-.31-.6-.79-.44-1.31,.31-1.03,1.24-1.6,2.29-1.6,.47,0,.94,.1,1.37,.29,.19,.09,.39,.19,.55,.33,.28,.23,.45,.56,.78,.74,.28,.15,.6,.18,.91,.13,.43-.06,.86-.22,1.23-.45,.11-.07,.16-.11,.19-.16Z"/>
  </g>
</svg>