<?xml version="1.0" encoding="UTF-8"?>
<svg id="Layer_1" data-name="Layer 1" xmlns="http://www.w3.org/2000/svg" viewBox="0 0 43 43">
  <defs>
    <style>
      .cls-1 {
        fill: #b1b1b1;
      }

      .cls-2 {
        fill: #fff;
        stroke: #ccc;
        stroke-miterlimit: 10;
      }
    </style>
  </defs>
  <rect class="cls-2" x="2.46" y="2.52" width="38.09" height="37.96" rx="8" ry="8"/>
  <g>
    <path class="cls-1" d="M37.64,22.77c-.28-.21-.61-.39-.93-.53-1.95-.83-3.91-1.65-5.87-2.45-2.31-.94-4.7-1.63-7.2-1.89-.48-.05-.83-.26-1.14-.62-.53-.64-1.07-1.28-1.63-1.89-.52-.57-1.1-1.09-1.81-1.43-.52-.25-1.06-.36-1.63-.3-.28,.03-.34,.13-.22,.39,.08,.17,.19,.34,.28,.5,.45,.8,.75,1.64,.73,2.57-.02,.77-.21,1.03-.96,1.22-1.51,.39-2.95,.94-4.35,1.63-.23,.11-.44,.14-.68,.02-.14-.07-.29-.12-.45-.16-.5-.12-.72,.04-.74,.54-.01,.44-.21,.72-.59,.94-.59,.35-1.11,.35-1.7-.04-.53-.35-1.14-.61-1.74-.85-.49-.19-1.03-.21-1.55-.05-.46,.14-.55,.37-.27,.76,.26,.38,.55,.75,.83,1.12,.62,.82,1.07,1.71,1.16,2.75,.08,.86,.02,1.72-.17,2.56-.1,.46-.24,.92-.35,1.38-.02,.09,.02,.2,.03,.29,.1-.02,.21-.01,.29-.06,.16-.09,.32-.2,.44-.33,.38-.47,.8-.92,1.1-1.44,.51-.9,.96-1.85,1.4-2.79,.19-.41,.43-.7,.84-.88,.66-.3,1.35-.49,2.07-.56,.36-.03,.73-.08,1.08-.18,1.05-.29,2.07-.34,3.04,.28,.05,.03,.17,.02,.23-.02,.54-.29,1.11-.35,1.71-.28,.92,.11,1.79,.43,2.63,.8,.43,.19,.85,.4,1.3,.61,.03-.1,.06-.19,.07-.29,.02-.27,.17-.43,.42-.51,.34-.12,.67-.27,1.02-.34,.82-.17,1.61-.1,2.31,.42,.68,.51,.8,1.3,.32,1.99-.04,.06-.08,.12-.14,.21,.08,0,.12,0,.16,0,1.38-.03,2.74-.23,4.08-.58,1.36-.36,2.66-.87,3.86-1.62,.09-.06,.25-.02,.38-.03-.07,.11-.11,.25-.21,.32-.23,.17-.49,.31-.74,.45-2.38,1.4-4.93,2.17-7.71,2.09-.29,0-.51,.05-.72,.3,.15,.02,.27,.04,.39,.06,1.22,.12,2.43,.09,3.64-.11,1.45-.25,2.87-.63,4.14-1.39,.84-.5,1.7-.89,2.62-1.19,.3-.1,.6-.25,.87-.43,.41-.28,.43-.68,.03-.97Zm-4.3,.85c-.24,0-.45-.18-.47-.41-.02-.24,.2-.45,.45-.45,.24,0,.44,.19,.45,.42,0,.24-.18,.44-.43,.44Z"/>
    <path class="cls-1" d="M26.2,24c-.1-.06-.22-.12-.33-.16-.78-.25-1.54-.13-2.28,.18-.06,.02-.12,.09-.13,.14-.31,1.16-1.02,2.08-1.77,2.98-.47,.57-.96,1.14-1.44,1.71-.11,.13-.2,.28-.29,.43,.02,.02,.03,.05,.05,.07,.16-.06,.32-.11,.48-.18,1.68-.71,3.34-1.46,4.8-2.59,.45-.35,.86-.77,1.22-1.22,.41-.52,.27-1.02-.3-1.37Z"/>
    <path class="cls-1" d="M22.19,25.79c.14-.23,.27-.45,.41-.68-.79-.49-2.36-1.1-3.37-1.31-.85-.18-1.68-.2-2.35,.47-.04-.02-.05-.02-.07-.03-.06-.05-.11-.11-.17-.17-.44-.46-.99-.72-1.62-.67-.44,.03-.87,.16-1.31,.25-.2,.04-.41,.07-.61,.09-.43,.04-.86,.06-1.29,.09,0,.03,0,.05,0,.08,.78,.02,1.08,.24,1.32,.98,.03,.08,.07,.15,.13,.28,.11-.12,.19-.19,.25-.28,.12-.18,.22-.38,.35-.56,.5-.7,1.35-.68,1.84,.02,.22,.31,.27,.67,.32,1.04,.02,.12,.1,.23,.15,.34,.11-.06,.25-.09,.33-.18,.25-.25,.47-.52,.7-.78,.38-.43,.86-.58,1.42-.47,.86,.17,1.65,.54,2.43,.91,.38,.18,.74,.38,1.13,.57Z"/>
  </g>
</svg>