<?xml version="1.0" encoding="UTF-8"?>
<svg id="Layer_1" data-name="Layer 1" xmlns="http://www.w3.org/2000/svg" viewBox="0 0 43 43">
  <defs>
    <style>
      .cls-1 {
        fill: #aeb2b2;
      }

      .cls-2 {
        fill: #fff;
        stroke: #aeb2b2;
        stroke-miterlimit: 10;
      }
    </style>
  </defs>
  <rect class="cls-2" x="2.46" y="2.52" width="38.09" height="37.96" rx="8" ry="8"/>
  <g>
    <path class="cls-1" d="M20.96,10.64c5.68,.01,10.37,1.85,14.29,5.61,.24,.23,.45,.47,.51,.82,.09,.55-.15,1.07-.63,1.32-.47,.25-1.04,.18-1.45-.2-.4-.37-.79-.75-1.22-1.1-2.65-2.18-5.68-3.49-9.09-3.83-5.39-.53-10.05,1.1-13.96,4.85-.63,.6-1.49,.57-1.96-.09-.35-.49-.3-1.15,.14-1.6,.82-.83,1.71-1.58,2.67-2.25,2.54-1.76,5.34-2.87,8.4-3.3,.85-.12,1.7-.16,2.29-.22Z"/>
    <path class="cls-1" d="M22.11,16.53c3.13,.04,6.37,1.35,9.08,3.95,.55,.53,.59,1.31,.09,1.82-.49,.52-1.26,.5-1.82-.04-2.51-2.4-5.5-3.49-8.96-3.21-2.68,.22-5,1.31-6.94,3.18-.25,.24-.52,.42-.88,.44-.51,.03-.99-.25-1.2-.71-.22-.47-.13-1.03,.26-1.42,1.35-1.34,2.91-2.37,4.69-3.07,1.62-.64,3.3-.95,5.67-.95Z"/>
    <path class="cls-1" d="M21.53,22.37c2.13,.03,3.98,.78,5.53,2.27,.54,.52,.57,1.29,.08,1.8-.48,.5-1.24,.5-1.78,0-1.76-1.62-3.77-2.01-6-1.15-.68,.26-1.24,.7-1.77,1.19-.56,.53-1.42,.43-1.85-.19-.35-.5-.29-1.17,.17-1.62,1.56-1.52,3.44-2.27,5.62-2.3Z"/>
    <path class="cls-1" d="M21.49,32.61c-1.26,0-2.26-1.02-2.26-2.28,0-1.26,1.02-2.27,2.28-2.27,1.27,0,2.28,1.02,2.28,2.3,0,1.25-1.03,2.26-2.29,2.26Z"/>
  </g>
</svg>